<svg width="275" height="200" viewBox="0 0 275 200" fill="none" xmlns="http://www.w3.org/2000/svg">
<rect y="0.90625" width="275" height="199" rx="13" fill="#1D1D1D"/>
<rect y="0.90625" width="275" height="199" rx="13" fill="url(#paint0_linear_2_831)"/>
<path d="M45.5302 124.976L58.5202 138.983C59.251 139.554 59.8422 140.284 60.2488 141.117C60.6553 141.951 60.8667 142.866 60.8668 143.793V158.526C60.8668 159.423 60.5107 160.283 59.8768 160.916C59.243 161.55 58.3833 161.906 57.4869 161.906H40.5901" stroke="#D8BAA3" stroke-width="6" stroke-miterlimit="10" stroke-linecap="round"/>
<path d="M60.8324 122.753C60.8324 123.342 60.5982 123.908 60.1813 124.325C59.7644 124.742 59.1989 124.976 58.6093 124.976H26.511C24.7843 124.976 23.1283 124.29 21.9073 123.069C20.6863 121.848 20.0002 120.192 20 118.465V92.9896C19.9999 92.4059 20.1148 91.8279 20.3383 91.2886C20.5617 90.7494 20.8893 90.2595 21.3022 89.8469C21.7152 89.4344 22.2054 89.1073 22.7448 88.8843C23.2843 88.6614 23.8624 88.547 24.4461 88.5476H40.9271C41.3253 88.5475 41.7197 88.6259 42.0877 88.7782C42.4556 88.9306 42.7899 89.1539 43.0715 89.4355C43.3531 89.7171 43.5765 90.0515 43.7289 90.4194C43.8812 90.7874 43.9596 91.1818 43.9595 91.58V114.02C43.9595 115.746 44.6454 117.402 45.8663 118.623C47.0872 119.844 48.7431 120.53 50.4697 120.53H58.6093C59.1989 120.53 59.7644 120.764 60.1813 121.181C60.5982 121.598 60.8324 122.163 60.8324 122.753Z" fill="white" stroke="#D8BAA3" stroke-width="6" stroke-miterlimit="10" stroke-linecap="round"/>
<path d="M60.7443 123.374C60.6098 123.836 60.329 124.242 59.944 124.531C59.5591 124.82 59.0907 124.976 58.6093 124.976H26.511C24.7843 124.976 23.1283 124.29 21.9073 123.069C20.6863 121.848 20.0002 120.192 20 118.465V92.9895C20.0002 92.1692 20.2273 91.3649 20.6563 90.6657C21.0853 89.9664 21.6993 89.3995 22.4305 89.0276C21.9712 89.7428 21.7277 90.5752 21.729 91.4252V117.898C21.729 119.361 22.3102 120.764 23.3448 121.798C24.3793 122.833 25.7824 123.414 27.2455 123.414H60.3441C60.4785 123.413 60.6125 123.4 60.7443 123.374Z" fill="#F0E1D4" stroke="#D8BAA3" stroke-width="6" stroke-miterlimit="10" stroke-linecap="round"/>
<path d="M44.0413 105.321H50.134C52.9671 105.322 55.6837 106.448 57.6865 108.452C59.6894 110.455 60.8145 113.172 60.8145 116.005V123.416" stroke="#D8BAA3" stroke-width="6" stroke-miterlimit="10" stroke-linecap="round"/>
<path d="M31.4513 124.976L44.4413 138.983C45.1721 139.554 45.7632 140.284 46.1698 141.117C46.5764 141.951 46.7878 142.866 46.7879 143.793V158.526C46.7879 159.423 46.4318 160.283 45.7979 160.916C45.1641 161.55 44.3044 161.906 43.408 161.906H26.5112" stroke="#D8BAA3" stroke-width="6" stroke-miterlimit="10" stroke-linecap="round"/>
<path d="M45.8205 71.6186C45.8205 71.6186 51.9034 70.7129 55.5582 78.7043C58.7594 85.7028 61.1463 92.2295 61.1463 92.2295C61.1463 92.2295 66.0798 94.9885 74.3775 97.9419V101.902C74.3775 101.902 61.7218 102.637 57.4988 101.902C54.394 101.362 45.8262 89.8698 45.2309 82.0743C44.6357 74.2788 45.8205 71.6186 45.8205 71.6186Z" fill="#374486"/>
<path d="M72.7127 101.864C72.2442 101.769 72.5859 100.312 72.8609 99.4141C73.0132 98.9201 73.3772 98.6665 73.8621 98.4532C74.8271 98.0267 76.4968 97.7781 77.4379 97.9839C78.8195 98.2861 79.7071 98.9011 80.5666 99.9064C80.8136 100.194 82.0281 101.576 82.0281 101.945L72.7127 101.864Z" fill="#FAB6AD"/>
<path d="M39.9952 68.4032C34.7505 68.9434 24.6258 75.3112 26.3013 98.6935C27.3716 113.645 37.1884 121.138 38.3749 120.629C39.5613 120.12 59.6931 110.198 55.0815 104.86C50.6691 99.7556 52.1051 95.8496 52.7992 88.9368C53.4932 82.0239 54.5364 74.501 48.9294 71.8975C39.8437 67.6812 41.3974 68.2583 39.9952 68.4032Z" fill="#3F4D90"/>
<path d="M82.0257 161.797H67.6846C67.6698 161.568 67.6657 161.351 67.669 161.139H82.0422C82.0584 161.358 82.0528 161.579 82.0257 161.797Z" fill="#383C4D"/>
<path d="M69.1462 155.105C69.1973 156.737 67.6856 157.77 67.6856 161.142H82.0259C82.0259 161.142 82.2342 158.314 79.3665 157.662C76.4987 157.01 73.8912 156.139 73.6302 155.109L69.1462 155.105Z" fill="#FFB000"/>
<path d="M53.7236 103.871C53.7236 103.871 75.6115 102.443 80.9303 108.968C86.2492 115.493 75.9244 141.169 74.8812 155.309C74.8812 155.309 69.6439 155.852 67.5171 155.309C65.3904 154.765 63.5395 127.367 68.8971 120.733C68.8971 120.733 49.3491 125.62 41.4079 119.456C33.4667 113.292 50.4186 103.986 53.7236 103.871Z" fill="#383C4D"/>
<path d="M114.43 139.156L103.055 148.262C102.89 148.057 102.749 147.856 102.618 147.661L113.949 138.593C114.13 138.762 114.292 138.951 114.43 139.156Z" fill="#41465A"/>
<path d="M100.219 141.969C101.211 143.23 100.615 145.01 102.583 147.685L113.959 138.58C113.959 138.58 112.477 136.204 109.818 137.51C107.159 138.815 104.586 139.779 103.775 139.124L100.219 141.969Z" fill="#FFB000"/>
<path d="M37.7657 120.111C38.0951 121.953 55.8984 127.24 75.7139 114.189C75.7139 114.189 78.7883 131.404 98.813 142.823C98.813 142.823 103.222 140.864 104.421 138.226C104.421 138.226 90.2946 120.171 85.2648 105.539C83.152 99.4016 56.5793 102.613 52.6947 103.871C48.8101 105.129 36.3035 111.904 37.7657 120.111Z" fill="#41465A"/>
<path d="M38.4696 74.386C43.0548 75.9092 49.5082 89.4771 49.5082 89.4771C49.5082 89.4771 56.7306 90.1696 67.6614 94.7466C67.6614 94.7466 67.9134 97.1252 66.4733 99.0741C66.4733 99.0741 54.4524 100.632 48.1999 99.9921C46.0855 99.774 38.0735 93.7808 33.6686 85.4872C29.7297 78.0688 32.8683 72.526 38.4696 74.386Z" fill="#49549A"/>
<path d="M67.5758 94.8224C67.5758 94.8224 70.6222 93.2136 72.0491 93.5355C73.4759 93.8574 75.1951 95.1443 75.3737 95.5017C75.5524 95.859 76.8039 97.6111 76.8039 98.0038C76.8039 98.3966 72.7596 98.2508 72.1931 98.2508C71.6267 98.2508 67.8846 98.3109 67.1625 98.1611C66.4404 98.0112 67.5758 94.8224 67.5758 94.8224Z" fill="#FFCFC9"/>
<path d="M72.1906 98.2541C72.7604 98.2541 76.8014 98.3974 76.8014 98.0071C76.8014 97.6169 75.5499 95.8664 75.3712 95.505C75.1925 95.1435 73.4775 93.8583 72.0465 93.5388C72.0465 93.5388 73.8118 95.9899 72.1873 98.2574" fill="#FAB6AD"/>
<path d="M44.4847 60.9924C44.5761 61.7038 42.9895 65.2821 40.1588 68.0642C37.6747 70.5038 48.3593 72.3917 48.6393 72.33C48.9192 72.2682 50.1666 68.5113 50.4227 67.6311C50.6787 66.7509 44.4847 60.9924 44.4847 60.9924Z" fill="#FFCFC9"/>
<path d="M50.4205 67.6311C50.3102 68.0106 49.8688 69.2506 49.3806 70.5433C48.2016 69.9727 46.8208 68.8546 45.7406 66.7262C44.5706 64.4208 44.7163 62.0652 44.5763 61.4568C44.5669 61.3444 44.585 61.2313 44.629 61.1274C45.5611 62.0043 50.6527 66.8308 50.4205 67.6311Z" fill="#FAB6AD"/>
<path d="M53.7034 57.3137C54.1488 59.088 54.5408 62.0628 53.9348 63.5069C53.3288 64.9511 52.2593 67.6047 51.8402 67.7439C51.4211 67.883 46.8111 67.2787 45.7408 65.2738C44.6704 63.269 44.6227 61.5951 44.4835 60.9924C44.3444 60.3897 46.8581 55.4974 50.0708 55.5904C53.2835 55.6835 53.5741 56.7991 53.7034 57.3137Z" fill="#FFCFC9"/>
<path d="M55.6511 56.4335C54.7973 56.7835 55.4445 57.7739 53.8398 57.9222C52.2351 58.0704 51.8637 56.1034 51.8637 56.1034C51.8637 56.1034 51.6809 56.8897 50.8757 57.1581C50.8757 57.1581 51.3047 56.3249 50.6896 55.9576C50.0746 55.5904 49.6967 56.082 49.6967 56.082C49.6967 56.082 49.1607 55.8136 48.8733 56.4541C48.586 57.0947 49.1039 57.4784 49.779 57.5516C49.779 57.5516 49.8408 58.5034 48.3307 58.6483C46.8207 58.7933 46.5095 57.862 46.5095 57.862C46.5095 57.862 46.2625 57.634 46.1571 58.2968C46.0517 58.9596 46.5688 60.0349 45.5157 60.8837C45.095 61.2221 44.857 61.3563 44.731 61.395C45.2621 61.8545 45.0052 63.2492 43.8015 63.8182C42.1671 64.5913 40.9683 64.0199 40.8193 62.8902C40.6851 61.8701 41.3355 62.2703 41.1692 61.484C41.1692 61.484 40.1046 62.2629 39.4155 61.1283C38.8523 60.2012 39.8371 59.6207 39.8371 59.6207C39.8371 59.6207 39.1356 58.659 39.7185 57.9872C40.3772 57.2207 41.4072 57.7171 41.2565 57.2412C41.1058 56.7653 40.7123 55.6472 41.3528 55.0231C41.9934 54.399 43.0094 54.6502 43.1535 54.3192C43.2976 53.9882 43.0926 53.4958 42.4306 53.7832C42.4567 53.5696 42.5291 53.3643 42.6429 53.1817C42.7567 52.999 42.909 52.8435 43.0893 52.726C43.6763 52.33 44.5466 52.4222 45.1477 52.5984C45.2498 52.0591 45.5042 51.4004 46.1546 51.0941C47.2324 50.5894 48.0014 51.2044 48.4221 51.7297C48.4841 51.546 48.598 51.3841 48.7499 51.2636C48.9018 51.1431 49.0854 51.069 49.2784 51.0505C50.5612 50.8644 51.6167 51.1979 51.8637 52.232C52.1247 53.3213 54.03 50.8101 54.9266 52.9565C55.1102 53.3954 54.631 53.742 55.1736 54.0952C55.4807 54.2953 55.8751 53.6424 55.568 53.4135C55.9508 53.5719 56.2698 53.8536 56.4745 54.2138C56.6391 54.5036 57.0269 55.8712 55.6511 56.4335Z" fill="#FFB000"/>
<path d="M21.7292 105.321H29.1394C31.9724 105.322 34.689 106.448 36.6919 108.452C38.6948 110.455 39.8199 113.172 39.8199 116.005V123.416" stroke="#D8BAA3" stroke-width="6" stroke-miterlimit="10" stroke-linecap="round"/>
<path d="M104.199 100.724H61.7368C61.4201 100.724 61.1165 100.85 60.8926 101.074C60.6687 101.297 60.5429 101.601 60.5429 101.918C60.5429 102.234 60.6687 102.538 60.8926 102.762C61.1165 102.986 61.4201 103.112 61.7368 103.112H104.199V100.724Z" fill="white"/>
<path d="M104.199 100.724H61.7368C61.4201 100.724 61.1165 100.85 60.8926 101.074C60.6687 101.297 60.5429 101.601 60.5429 101.918V101.918C60.5429 102.234 60.6687 102.538 60.8926 102.762C61.1165 102.986 61.4201 103.112 61.7368 103.112H104.199" stroke="#D8BAA3" stroke-width="6" stroke-miterlimit="10"/>
<path d="M85.8146 161.824L92.6698 104.391C92.8872 103.167 94.6294 103.128 94.9003 104.342L103.44 161.502" stroke="#D8BAA3" stroke-width="6" stroke-miterlimit="10" stroke-linecap="round"/>
<path d="M99.6479 98.5142H66.9839C66.5392 98.5142 66.1787 98.8747 66.1787 99.3194V99.8134C66.1787 100.258 66.5392 100.619 66.9839 100.619H99.6479C100.093 100.619 100.453 100.258 100.453 99.8134V99.3194C100.453 98.8747 100.093 98.5142 99.6479 98.5142Z" fill="white" stroke="#D8BAA3" stroke-width="6" stroke-miterlimit="10"/>
<path d="M98.321 98.4778H74.3797C73.7605 98.4778 73.3447 97.8825 73.5942 97.3523L80.3572 82.9667C80.7409 82.1516 81.6029 81.6255 82.5547 81.6255H106.497C107.116 81.6255 107.531 82.2208 107.282 82.751L100.519 97.1357C100.136 97.9509 99.2736 98.4778 98.321 98.4778Z" fill="white" stroke="#D8BAA3" stroke-width="6" stroke-miterlimit="10"/>
<path d="M127.665 72.2562C127.665 70.9516 127.956 69.7862 128.539 68.7602C129.134 67.7216 129.939 66.9172 130.952 66.3472C131.978 65.7646 133.124 65.4732 134.391 65.4732C135.873 65.4732 137.171 65.8532 138.286 66.6132C139.401 67.3732 140.18 68.4246 140.623 69.7672H137.564C137.26 69.1339 136.829 68.6589 136.272 68.3422C135.727 68.0256 135.094 67.8672 134.372 67.8672C133.599 67.8672 132.909 68.0509 132.301 68.4182C131.706 68.7729 131.237 69.2796 130.895 69.9382C130.566 70.5969 130.401 71.3696 130.401 72.2562C130.401 73.1302 130.566 73.9029 130.895 74.5742C131.237 75.2329 131.706 75.7459 132.301 76.1133C132.909 76.4679 133.599 76.6452 134.372 76.6452C135.094 76.6452 135.727 76.4869 136.272 76.1702C136.829 75.8409 137.26 75.3596 137.564 74.7262H140.623C140.18 76.0816 139.401 77.1392 138.286 77.8992C137.184 78.6466 135.886 79.0203 134.391 79.0203C133.124 79.0203 131.978 78.7352 130.952 78.1652C129.939 77.5826 129.134 76.7782 128.539 75.7522C127.956 74.7262 127.665 73.5609 127.665 72.2562ZM147.474 79.0393C146.549 79.0393 145.713 78.8809 144.966 78.5642C144.231 78.2476 143.649 77.7916 143.218 77.1962C142.787 76.6009 142.566 75.8979 142.553 75.0872H145.403C145.441 75.6319 145.631 76.0626 145.973 76.3792C146.328 76.6959 146.809 76.8542 147.417 76.8542C148.038 76.8542 148.525 76.7086 148.88 76.4172C149.235 76.1132 149.412 75.7206 149.412 75.2392C149.412 74.8466 149.292 74.5236 149.051 74.2702C148.81 74.0169 148.506 73.8206 148.139 73.6812C147.784 73.5292 147.29 73.3646 146.657 73.1872C145.796 72.9339 145.093 72.6869 144.548 72.4462C144.016 72.1929 143.554 71.8192 143.161 71.3252C142.781 70.8186 142.591 70.1472 142.591 69.3113C142.591 68.5259 142.787 67.8419 143.18 67.2592C143.573 66.6766 144.124 66.2332 144.833 65.9292C145.542 65.6126 146.353 65.4542 147.265 65.4542C148.633 65.4542 149.741 65.7899 150.59 66.4612C151.451 67.1199 151.926 68.0446 152.015 69.2352H149.089C149.064 68.7792 148.867 68.4056 148.5 68.1142C148.145 67.8102 147.67 67.6582 147.075 67.6582C146.556 67.6582 146.138 67.7912 145.821 68.0572C145.517 68.3232 145.365 68.7096 145.365 69.2162C145.365 69.5709 145.479 69.8686 145.707 70.1092C145.948 70.3372 146.239 70.5272 146.581 70.6792C146.936 70.8186 147.43 70.9832 148.063 71.1732C148.924 71.4266 149.627 71.6799 150.172 71.9332C150.717 72.1866 151.185 72.5666 151.578 73.0732C151.971 73.5799 152.167 74.2449 152.167 75.0682C152.167 75.7776 151.983 76.4362 151.616 77.0442C151.249 77.6522 150.71 78.1399 150.001 78.5072C149.292 78.8619 148.449 79.0393 147.474 79.0393ZM159.052 79.0393C158.127 79.0393 157.291 78.8809 156.544 78.5642C155.809 78.2476 155.227 77.7916 154.796 77.1962C154.365 76.6009 154.144 75.8979 154.131 75.0872H156.981C157.019 75.6319 157.209 76.0626 157.551 76.3792C157.906 76.6959 158.387 76.8542 158.995 76.8542C159.616 76.8542 160.103 76.7086 160.458 76.4172C160.813 76.1132 160.99 75.7206 160.99 75.2392C160.99 74.8466 160.87 74.5236 160.629 74.2702C160.388 74.0169 160.084 73.8206 159.717 73.6812C159.362 73.5292 158.868 73.3646 158.235 73.1872C157.374 72.9339 156.671 72.6869 156.126 72.4462C155.594 72.1929 155.132 71.8192 154.739 71.3252C154.359 70.8186 154.169 70.1472 154.169 69.3113C154.169 68.5259 154.365 67.8419 154.758 67.2592C155.151 66.6766 155.702 66.2332 156.411 65.9292C157.12 65.6126 157.931 65.4542 158.843 65.4542C160.211 65.4542 161.319 65.7899 162.168 66.4612C163.029 67.1199 163.504 68.0446 163.593 69.2352H160.667C160.642 68.7792 160.445 68.4056 160.078 68.1142C159.723 67.8102 159.248 67.6582 158.653 67.6582C158.134 67.6582 157.716 67.7912 157.399 68.0572C157.095 68.3232 156.943 68.7096 156.943 69.2162C156.943 69.5709 157.057 69.8686 157.285 70.1092C157.526 70.3372 157.817 70.5272 158.159 70.6792C158.514 70.8186 159.008 70.9832 159.641 71.1732C160.502 71.4266 161.205 71.6799 161.75 71.9332C162.295 72.1866 162.763 72.5666 163.156 73.0732C163.549 73.5799 163.745 74.2449 163.745 75.0682C163.745 75.7776 163.561 76.4362 163.194 77.0442C162.827 77.6522 162.288 78.1399 161.579 78.5072C160.87 78.8619 160.027 79.0393 159.052 79.0393Z" fill="white"/>
<path d="M0 21.9062H75C80.5229 21.9062 85 26.3834 85 31.9062V36.9063C85 42.4291 80.5229 46.9062 75 46.9062H0V21.9062Z" fill="#B6A514"/>
<path d="M10.9395 38.9062H9.84745L5.45545 32.2462V38.9062H4.36345V30.5302H5.45545L9.84745 37.1782V30.5302H10.9395V38.9062ZM15.669 39.0143C15.053 39.0143 14.493 38.8743 13.989 38.5942C13.493 38.3142 13.101 37.9182 12.813 37.4062C12.533 36.8862 12.393 36.2862 12.393 35.6062C12.393 34.9342 12.537 34.3422 12.825 33.8302C13.121 33.3102 13.521 32.9142 14.025 32.6422C14.529 32.3622 15.093 32.2222 15.717 32.2222C16.341 32.2222 16.905 32.3622 17.409 32.6422C17.913 32.9142 18.309 33.3062 18.597 33.8182C18.893 34.3302 19.041 34.9262 19.041 35.6062C19.041 36.2862 18.889 36.8862 18.585 37.4062C18.289 37.9182 17.885 38.3142 17.373 38.5942C16.861 38.8743 16.293 39.0143 15.669 39.0143ZM15.669 38.0542C16.061 38.0542 16.429 37.9622 16.773 37.7782C17.117 37.5942 17.393 37.3182 17.601 36.9502C17.817 36.5822 17.925 36.1342 17.925 35.6062C17.925 35.0782 17.821 34.6302 17.613 34.2622C17.405 33.8942 17.133 33.6222 16.797 33.4462C16.461 33.2622 16.097 33.1702 15.705 33.1702C15.305 33.1702 14.937 33.2622 14.601 33.4462C14.273 33.6222 14.009 33.8942 13.809 34.2622C13.609 34.6302 13.509 35.0782 13.509 35.6062C13.509 36.1422 13.605 36.5942 13.797 36.9622C13.997 37.3302 14.261 37.6062 14.589 37.7902C14.917 37.9662 15.277 38.0542 15.669 38.0542ZM21.8087 33.2302V37.1062C21.8087 37.4262 21.8767 37.6542 22.0127 37.7902C22.1487 37.9182 22.3847 37.9822 22.7207 37.9822H23.5247V38.9062H22.5407C21.9327 38.9062 21.4767 38.7662 21.1727 38.4862C20.8687 38.2062 20.7167 37.7462 20.7167 37.1062V33.2302H19.8647V32.3302H20.7167V30.6742H21.8087V32.3302H23.5247V33.2302H21.8087ZM29.139 31.4302V34.2262H32.187V35.1262H29.139V38.0062H32.547V38.9062H28.047V30.5302H32.547V31.4302H29.139ZM37.4034 32.2102C38.2034 32.2102 38.8514 32.4542 39.3474 32.9422C39.8434 33.4222 40.0914 34.1182 40.0914 35.0302V38.9062H39.0114V35.1862C39.0114 34.5302 38.8474 34.0302 38.5194 33.6862C38.1914 33.3342 37.7434 33.1582 37.1754 33.1582C36.5994 33.1582 36.1394 33.3382 35.7954 33.6982C35.4594 34.0582 35.2914 34.5822 35.2914 35.2702V38.9062H34.1994V32.3302H35.2914V33.2662C35.5074 32.9302 35.7994 32.6702 36.1674 32.4862C36.5434 32.3022 36.9554 32.2102 37.4034 32.2102ZM42.9672 33.3982C43.1592 33.0222 43.4312 32.7302 43.7832 32.5222C44.1432 32.3142 44.5792 32.2102 45.0912 32.2102V33.3382H44.8032C43.5792 33.3382 42.9672 34.0022 42.9672 35.3302V38.9062H41.8752V32.3302H42.9672V33.3982ZM49.2197 39.0143C48.6037 39.0143 48.0437 38.8743 47.5397 38.5942C47.0437 38.3142 46.6517 37.9182 46.3637 37.4062C46.0837 36.8862 45.9437 36.2862 45.9437 35.6062C45.9437 34.9342 46.0877 34.3422 46.3757 33.8302C46.6717 33.3102 47.0717 32.9142 47.5757 32.6422C48.0797 32.3622 48.6437 32.2222 49.2677 32.2222C49.8917 32.2222 50.4557 32.3622 50.9597 32.6422C51.4637 32.9142 51.8597 33.3062 52.1477 33.8182C52.4437 34.3302 52.5917 34.9262 52.5917 35.6062C52.5917 36.2862 52.4397 36.8862 52.1357 37.4062C51.8397 37.9182 51.4357 38.3142 50.9237 38.5942C50.4117 38.8743 49.8437 39.0143 49.2197 39.0143ZM49.2197 38.0542C49.6117 38.0542 49.9797 37.9622 50.3237 37.7782C50.6677 37.5942 50.9437 37.3182 51.1517 36.9502C51.3677 36.5822 51.4757 36.1342 51.4757 35.6062C51.4757 35.0782 51.3717 34.6302 51.1637 34.2622C50.9557 33.8942 50.6837 33.6222 50.3477 33.4462C50.0117 33.2622 49.6477 33.1702 49.2557 33.1702C48.8557 33.1702 48.4877 33.2622 48.1517 33.4462C47.8237 33.6222 47.5597 33.8942 47.3597 34.2622C47.1597 34.6302 47.0597 35.0782 47.0597 35.6062C47.0597 36.1422 47.1557 36.5942 47.3477 36.9622C47.5477 37.3302 47.8117 37.6062 48.1397 37.7902C48.4677 37.9662 48.8277 38.0542 49.2197 38.0542ZM55.1195 30.0262V38.9062H54.0275V30.0262H55.1195ZM58.0726 30.0262V38.9062H56.9806V30.0262H58.0726ZM65.9338 35.3662C65.9338 35.5742 65.9218 35.7942 65.8978 36.0262H60.6418C60.6818 36.6742 60.9018 37.1822 61.3018 37.5502C61.7098 37.9102 62.2018 38.0902 62.7778 38.0902C63.2498 38.0902 63.6418 37.9822 63.9538 37.7662C64.2738 37.5422 64.4978 37.2462 64.6258 36.8782H65.8018C65.6258 37.5102 65.2738 38.0262 64.7458 38.4262C64.2178 38.8182 63.5618 39.0143 62.7778 39.0143C62.1538 39.0143 61.5938 38.8743 61.0978 38.5942C60.6098 38.3142 60.2258 37.9182 59.9458 37.4062C59.6658 36.8862 59.5258 36.2862 59.5258 35.6062C59.5258 34.9262 59.6618 34.3302 59.9338 33.8182C60.2058 33.3062 60.5858 32.9142 61.0738 32.6422C61.5698 32.3622 62.1378 32.2222 62.7778 32.2222C63.4018 32.2222 63.9538 32.3582 64.4338 32.6302C64.9138 32.9022 65.2818 33.2782 65.5378 33.7582C65.8018 34.2302 65.9338 34.7662 65.9338 35.3662ZM64.8058 35.1382C64.8058 34.7222 64.7138 34.3662 64.5298 34.0702C64.3458 33.7662 64.0938 33.5382 63.7738 33.3862C63.4618 33.2262 63.1138 33.1462 62.7298 33.1462C62.1778 33.1462 61.7058 33.3222 61.3138 33.6742C60.9298 34.0262 60.7098 34.5142 60.6538 35.1382H64.8058ZM66.9672 35.5942C66.9672 34.9222 67.1032 34.3342 67.3752 33.8302C67.6472 33.3182 68.0192 32.9222 68.4912 32.6422C68.9712 32.3622 69.5072 32.2222 70.0992 32.2222C70.6112 32.2222 71.0872 32.3422 71.5272 32.5822C71.9672 32.8142 72.3032 33.1222 72.5352 33.5062V30.0262H73.6392V38.9062H72.5352V37.6702C72.3192 38.0622 71.9992 38.3862 71.5752 38.6422C71.1512 38.8902 70.6552 39.0143 70.0872 39.0143C69.5032 39.0143 68.9712 38.8703 68.4912 38.5822C68.0192 38.2942 67.6472 37.8902 67.3752 37.3702C67.1032 36.8502 66.9672 36.2582 66.9672 35.5942ZM72.5352 35.6062C72.5352 35.1102 72.4352 34.6782 72.2352 34.3102C72.0352 33.9422 71.7632 33.6622 71.4192 33.4702C71.0832 33.2702 70.7112 33.1702 70.3032 33.1702C69.8952 33.1702 69.5232 33.2662 69.1872 33.4582C68.8512 33.6502 68.5832 33.9302 68.3832 34.2982C68.1832 34.6662 68.0832 35.0982 68.0832 35.5942C68.0832 36.0982 68.1832 36.5382 68.3832 36.9142C68.5832 37.2822 68.8512 37.5662 69.1872 37.7662C69.5232 37.9582 69.8952 38.0542 70.3032 38.0542C70.7112 38.0542 71.0832 37.9582 71.4192 37.7662C71.7632 37.5662 72.0352 37.2822 72.2352 36.9142C72.4352 36.5382 72.5352 36.1022 72.5352 35.6062Z" fill="white"/>
<path d="M127.28 98.6062C127.28 98.0569 127.403 97.5662 127.648 97.1342C127.899 96.6969 128.237 96.3582 128.664 96.1182C129.096 95.8729 129.579 95.7502 130.112 95.7502C130.736 95.7502 131.283 95.9102 131.752 96.2302C132.221 96.5502 132.549 96.9929 132.736 97.5582H131.448C131.32 97.2916 131.139 97.0916 130.904 96.9582C130.675 96.8249 130.408 96.7582 130.104 96.7582C129.779 96.7582 129.488 96.8356 129.232 96.9902C128.981 97.1396 128.784 97.3529 128.64 97.6302C128.501 97.9076 128.432 98.2329 128.432 98.6062C128.432 98.9742 128.501 99.2996 128.64 99.5822C128.784 99.8596 128.981 100.076 129.232 100.23C129.488 100.38 129.779 100.454 130.104 100.454C130.408 100.454 130.675 100.388 130.904 100.254C131.139 100.116 131.32 99.9129 131.448 99.6462H132.736C132.549 100.217 132.221 100.662 131.752 100.982C131.288 101.297 130.741 101.454 130.112 101.454C129.579 101.454 129.096 101.334 128.664 101.094C128.237 100.849 127.899 100.51 127.648 100.078C127.403 99.6462 127.28 99.1556 127.28 98.6062ZM135.621 101.462C135.231 101.462 134.879 101.396 134.565 101.262C134.255 101.129 134.01 100.937 133.829 100.686C133.647 100.436 133.554 100.14 133.549 99.7982H134.749C134.765 100.028 134.845 100.209 134.989 100.342C135.138 100.476 135.341 100.542 135.597 100.542C135.858 100.542 136.063 100.481 136.213 100.358C136.362 100.23 136.437 100.065 136.437 99.8622C136.437 99.6969 136.386 99.5609 136.285 99.4542C136.183 99.3476 136.055 99.2649 135.901 99.2062C135.751 99.1422 135.543 99.0729 135.277 98.9982C134.914 98.8916 134.618 98.7876 134.389 98.6862C134.165 98.5796 133.97 98.4222 133.805 98.2142C133.645 98.0009 133.565 97.7182 133.565 97.3663C133.565 97.0356 133.647 96.7476 133.813 96.5022C133.978 96.2569 134.21 96.0702 134.509 95.9422C134.807 95.8089 135.149 95.7422 135.533 95.7422C136.109 95.7422 136.575 95.8836 136.933 96.1662C137.295 96.4436 137.495 96.8329 137.533 97.3342H136.301C136.29 97.1422 136.207 96.9849 136.053 96.8622C135.903 96.7342 135.703 96.6702 135.453 96.6702C135.234 96.6702 135.058 96.7262 134.925 96.8382C134.797 96.9502 134.733 97.1129 134.733 97.3262C134.733 97.4756 134.781 97.6009 134.877 97.7022C134.978 97.7982 135.101 97.8782 135.245 97.9422C135.394 98.0009 135.602 98.0702 135.869 98.1502C136.231 98.2569 136.527 98.3636 136.757 98.4702C136.986 98.5769 137.183 98.7369 137.349 98.9502C137.514 99.1636 137.597 99.4436 137.597 99.7902C137.597 100.089 137.519 100.366 137.365 100.622C137.21 100.878 136.983 101.084 136.685 101.238C136.386 101.388 136.031 101.462 135.621 101.462ZM140.496 101.462C140.106 101.462 139.754 101.396 139.44 101.262C139.13 101.129 138.885 100.937 138.704 100.686C138.522 100.436 138.429 100.14 138.424 99.7982H139.624C139.64 100.028 139.72 100.209 139.864 100.342C140.013 100.476 140.216 100.542 140.472 100.542C140.733 100.542 140.938 100.481 141.088 100.358C141.237 100.23 141.312 100.065 141.312 99.8622C141.312 99.6969 141.261 99.5609 141.16 99.4542C141.058 99.3476 140.93 99.2649 140.776 99.2062C140.626 99.1422 140.418 99.0729 140.152 98.9982C139.789 98.8916 139.493 98.7876 139.264 98.6862C139.04 98.5796 138.845 98.4222 138.68 98.2142C138.52 98.0009 138.44 97.7182 138.44 97.3663C138.44 97.0356 138.522 96.7476 138.688 96.5022C138.853 96.2569 139.085 96.0702 139.384 95.9422C139.682 95.8089 140.024 95.7422 140.408 95.7422C140.984 95.7422 141.45 95.8836 141.808 96.1662C142.17 96.4436 142.37 96.8329 142.408 97.3342H141.176C141.165 97.1422 141.082 96.9849 140.928 96.8622C140.778 96.7342 140.578 96.6702 140.328 96.6702C140.109 96.6702 139.933 96.7262 139.8 96.8382C139.672 96.9502 139.608 97.1129 139.608 97.3262C139.608 97.4756 139.656 97.6009 139.752 97.7022C139.853 97.7982 139.976 97.8782 140.12 97.9422C140.269 98.0009 140.477 98.0702 140.744 98.1502C141.106 98.2569 141.402 98.3636 141.632 98.4702C141.861 98.5769 142.058 98.7369 142.224 98.9502C142.389 99.1636 142.472 99.4436 142.472 99.7902C142.472 100.089 142.394 100.366 142.24 100.622C142.085 100.878 141.858 101.084 141.56 101.238C141.261 101.388 140.906 101.462 140.496 101.462ZM146.469 95.8222V101.406H145.349V95.8222H146.469ZM149.271 101.478C148.909 101.478 148.583 101.414 148.295 101.286C148.007 101.153 147.778 100.974 147.607 100.75C147.442 100.526 147.351 100.278 147.335 100.006H148.463C148.485 100.177 148.567 100.318 148.711 100.43C148.861 100.542 149.045 100.598 149.263 100.598C149.477 100.598 149.642 100.556 149.759 100.47C149.882 100.385 149.943 100.276 149.943 100.142C149.943 99.9982 149.869 99.8916 149.719 99.8222C149.575 99.7476 149.343 99.6676 149.023 99.5822C148.693 99.5022 148.421 99.4196 148.207 99.3342C147.999 99.2489 147.818 99.1182 147.663 98.9422C147.514 98.7662 147.439 98.5289 147.439 98.2302C147.439 97.9849 147.509 97.7609 147.647 97.5582C147.791 97.3556 147.994 97.1956 148.255 97.0782C148.522 96.9609 148.834 96.9022 149.191 96.9022C149.719 96.9022 150.141 97.0356 150.455 97.3022C150.77 97.5636 150.943 97.9182 150.975 98.3662H149.903C149.887 98.1902 149.813 98.0516 149.679 97.9502C149.551 97.8436 149.378 97.7902 149.159 97.7902C148.957 97.7902 148.799 97.8276 148.687 97.9022C148.581 97.9769 148.527 98.0809 148.527 98.2142C148.527 98.3636 148.602 98.4782 148.751 98.5582C148.901 98.6329 149.133 98.7102 149.447 98.7902C149.767 98.8702 150.031 98.9529 150.239 99.0382C150.447 99.1236 150.626 99.2569 150.775 99.4382C150.93 99.6142 151.01 99.8489 151.015 100.142C151.015 100.398 150.943 100.628 150.799 100.83C150.661 101.033 150.458 101.193 150.191 101.31C149.93 101.422 149.623 101.478 149.271 101.478ZM154.945 95.8222V99.2782C154.945 99.6569 155.044 99.9476 155.241 100.15C155.438 100.348 155.716 100.446 156.073 100.446C156.436 100.446 156.716 100.348 156.913 100.15C157.11 99.9476 157.209 99.6569 157.209 99.2782V95.8222H158.337V99.2702C158.337 99.7449 158.233 100.148 158.025 100.478C157.822 100.804 157.548 101.049 157.201 101.214C156.86 101.38 156.478 101.462 156.057 101.462C155.641 101.462 155.262 101.38 154.921 101.214C154.585 101.049 154.318 100.804 154.121 100.478C153.924 100.148 153.825 99.7449 153.825 99.2702V95.8222H154.945ZM161.115 101.478C160.753 101.478 160.427 101.414 160.139 101.286C159.851 101.153 159.622 100.974 159.451 100.75C159.286 100.526 159.195 100.278 159.179 100.006H160.307C160.329 100.177 160.411 100.318 160.555 100.43C160.705 100.542 160.889 100.598 161.107 100.598C161.321 100.598 161.486 100.556 161.603 100.47C161.726 100.385 161.787 100.276 161.787 100.142C161.787 99.9982 161.713 99.8916 161.563 99.8222C161.419 99.7476 161.187 99.6676 160.867 99.5822C160.537 99.5022 160.265 99.4196 160.051 99.3342C159.843 99.2489 159.662 99.1182 159.507 98.9422C159.358 98.7662 159.283 98.5289 159.283 98.2302C159.283 97.9849 159.353 97.7609 159.491 97.5582C159.635 97.3556 159.838 97.1956 160.099 97.0782C160.366 96.9609 160.678 96.9022 161.035 96.9022C161.563 96.9022 161.985 97.0356 162.299 97.3022C162.614 97.5636 162.787 97.9182 162.819 98.3662H161.747C161.731 98.1902 161.657 98.0516 161.523 97.9502C161.395 97.8436 161.222 97.7902 161.003 97.7902C160.801 97.7902 160.643 97.8276 160.531 97.9022C160.425 97.9769 160.371 98.0809 160.371 98.2142C160.371 98.3636 160.446 98.4782 160.595 98.5582C160.745 98.6329 160.977 98.7102 161.291 98.7902C161.611 98.8702 161.875 98.9529 162.083 99.0382C162.291 99.1236 162.47 99.2569 162.619 99.4382C162.774 99.6142 162.854 99.8489 162.859 100.142C162.859 100.398 162.787 100.628 162.643 100.83C162.505 101.033 162.302 101.193 162.035 101.31C161.774 101.422 161.467 101.478 161.115 101.478ZM167.899 99.0942C167.899 99.2542 167.888 99.3982 167.867 99.5262H164.627C164.653 99.8462 164.765 100.097 164.963 100.278C165.16 100.46 165.403 100.55 165.691 100.55C166.107 100.55 166.403 100.372 166.579 100.014H167.787C167.659 100.441 167.413 100.793 167.051 101.07C166.688 101.342 166.243 101.478 165.715 101.478C165.288 101.478 164.904 101.385 164.563 101.198C164.227 101.006 163.963 100.737 163.771 100.39C163.584 100.044 163.491 99.6436 163.491 99.1902C163.491 98.7316 163.584 98.3289 163.771 97.9822C163.957 97.6356 164.219 97.3689 164.555 97.1823C164.891 96.9956 165.277 96.9022 165.715 96.9022C166.136 96.9022 166.512 96.9929 166.843 97.1742C167.179 97.3556 167.437 97.6142 167.619 97.9502C167.805 98.2809 167.899 98.6622 167.899 99.0942ZM166.739 98.7742C166.733 98.4862 166.629 98.2569 166.427 98.0862C166.224 97.9102 165.976 97.8222 165.683 97.8222C165.405 97.8222 165.171 97.9076 164.979 98.0782C164.792 98.2436 164.677 98.4756 164.635 98.7742H166.739ZM168.428 99.1742C168.428 98.7262 168.516 98.3289 168.692 97.9822C168.873 97.6356 169.119 97.3689 169.428 97.1823C169.737 96.9956 170.081 96.9022 170.46 96.9022C170.748 96.9022 171.023 96.9662 171.284 97.0942C171.545 97.2169 171.753 97.3822 171.908 97.5902V95.4862H173.044V101.406H171.908V100.75C171.769 100.969 171.575 101.145 171.324 101.278C171.073 101.412 170.783 101.478 170.452 101.478C170.079 101.478 169.737 101.382 169.428 101.19C169.119 100.998 168.873 100.729 168.692 100.382C168.516 100.03 168.428 99.6276 168.428 99.1742ZM171.916 99.1902C171.916 98.9182 171.863 98.6862 171.756 98.4942C171.649 98.2969 171.505 98.1476 171.324 98.0462C171.143 97.9396 170.948 97.8862 170.74 97.8862C170.532 97.8862 170.34 97.9369 170.164 98.0382C169.988 98.1396 169.844 98.2889 169.732 98.4862C169.625 98.6782 169.572 98.9076 169.572 99.1742C169.572 99.4409 169.625 99.6756 169.732 99.8782C169.844 100.076 169.988 100.228 170.164 100.334C170.345 100.441 170.537 100.494 170.74 100.494C170.948 100.494 171.143 100.444 171.324 100.342C171.505 100.236 171.649 100.086 171.756 99.8942C171.863 99.6969 171.916 99.4622 171.916 99.1902ZM179.492 95.8222V96.7262H177.164V98.1582H178.948V99.0462H177.164V101.406H176.044V95.8222H179.492ZM182.254 101.478C181.828 101.478 181.444 101.385 181.102 101.198C180.761 101.006 180.492 100.737 180.294 100.39C180.102 100.044 180.006 99.6436 180.006 99.1902C180.006 98.7369 180.105 98.3369 180.302 97.9902C180.505 97.6436 180.78 97.3769 181.126 97.1902C181.473 96.9982 181.86 96.9022 182.286 96.9022C182.713 96.9022 183.1 96.9982 183.446 97.1902C183.793 97.3769 184.065 97.6436 184.262 97.9902C184.465 98.3369 184.566 98.7369 184.566 99.1902C184.566 99.6436 184.462 100.044 184.254 100.39C184.052 100.737 183.774 101.006 183.422 101.198C183.076 101.385 182.686 101.478 182.254 101.478ZM182.254 100.502C182.457 100.502 182.646 100.454 182.822 100.358C183.004 100.257 183.148 100.108 183.254 99.9102C183.361 99.7129 183.414 99.4729 183.414 99.1902C183.414 98.7689 183.302 98.4462 183.078 98.2222C182.86 97.9929 182.59 97.8782 182.27 97.8782C181.95 97.8782 181.681 97.9929 181.462 98.2222C181.249 98.4462 181.142 98.7689 181.142 99.1902C181.142 99.6116 181.246 99.9369 181.454 100.166C181.668 100.39 181.934 100.502 182.254 100.502ZM186.508 97.6622C186.652 97.4276 186.839 97.2436 187.068 97.1102C187.303 96.9769 187.569 96.9102 187.868 96.9102V98.0862H187.572C187.22 98.0862 186.953 98.1689 186.772 98.3342C186.596 98.4996 186.508 98.7876 186.508 99.1982V101.406H185.388V96.9742H186.508V97.6622ZM192.481 95.8222C193.067 95.8222 193.582 95.9369 194.025 96.1662C194.473 96.3956 194.817 96.7236 195.057 97.1502C195.302 97.5716 195.425 98.0622 195.425 98.6222C195.425 99.1822 195.302 99.6729 195.057 100.094C194.817 100.51 194.473 100.833 194.025 101.062C193.582 101.292 193.067 101.406 192.481 101.406H190.529V95.8222H192.481ZM192.441 100.454C193.027 100.454 193.481 100.294 193.801 99.9742C194.121 99.6542 194.281 99.2036 194.281 98.6222C194.281 98.0409 194.121 97.5876 193.801 97.2622C193.481 96.9316 193.027 96.7662 192.441 96.7662H191.649V100.454H192.441ZM200.383 99.0942C200.383 99.2542 200.372 99.3982 200.351 99.5262H197.111C197.138 99.8462 197.25 100.097 197.447 100.278C197.644 100.46 197.887 100.55 198.175 100.55C198.591 100.55 198.887 100.372 199.063 100.014H200.271C200.143 100.441 199.898 100.793 199.535 101.07C199.172 101.342 198.727 101.478 198.199 101.478C197.772 101.478 197.388 101.385 197.047 101.198C196.711 101.006 196.447 100.737 196.255 100.39C196.068 100.044 195.975 99.6436 195.975 99.1902C195.975 98.7316 196.068 98.3289 196.255 97.9822C196.442 97.6356 196.703 97.3689 197.039 97.1823C197.375 96.9956 197.762 96.9022 198.199 96.9022C198.62 96.9022 198.996 96.9929 199.327 97.1742C199.663 97.3556 199.922 97.6142 200.103 97.9502C200.29 98.2809 200.383 98.6622 200.383 99.0942ZM199.223 98.7742C199.218 98.4862 199.114 98.2569 198.911 98.0862C198.708 97.9102 198.46 97.8222 198.167 97.8222C197.89 97.8222 197.655 97.9076 197.463 98.0782C197.276 98.2436 197.162 98.4756 197.119 98.7742H199.223ZM202.896 101.478C202.534 101.478 202.208 101.414 201.92 101.286C201.632 101.153 201.403 100.974 201.232 100.75C201.067 100.526 200.976 100.278 200.96 100.006H202.088C202.11 100.177 202.192 100.318 202.336 100.43C202.486 100.542 202.67 100.598 202.888 100.598C203.102 100.598 203.267 100.556 203.384 100.47C203.507 100.385 203.568 100.276 203.568 100.142C203.568 99.9982 203.494 99.8916 203.344 99.8222C203.2 99.7476 202.968 99.6676 202.648 99.5822C202.318 99.5022 202.046 99.4196 201.832 99.3342C201.624 99.2489 201.443 99.1182 201.288 98.9422C201.139 98.7662 201.064 98.5289 201.064 98.2302C201.064 97.9849 201.134 97.7609 201.272 97.5582C201.416 97.3556 201.619 97.1956 201.88 97.0782C202.147 96.9609 202.459 96.9022 202.816 96.9022C203.344 96.9022 203.766 97.0356 204.08 97.3022C204.395 97.5636 204.568 97.9182 204.6 98.3662H203.528C203.512 98.1902 203.438 98.0516 203.304 97.9502C203.176 97.8436 203.003 97.7902 202.784 97.7902C202.582 97.7902 202.424 97.8276 202.312 97.9022C202.206 97.9769 202.152 98.0809 202.152 98.2142C202.152 98.3636 202.227 98.4782 202.376 98.5582C202.526 98.6329 202.758 98.7102 203.072 98.7902C203.392 98.8702 203.656 98.9529 203.864 99.0382C204.072 99.1236 204.251 99.2569 204.4 99.4382C204.555 99.6142 204.635 99.8489 204.64 100.142C204.64 100.398 204.568 100.628 204.424 100.83C204.286 101.033 204.083 101.193 203.816 101.31C203.555 101.422 203.248 101.478 202.896 101.478ZM205.272 99.1902C205.272 98.7316 205.365 98.3316 205.552 97.9902C205.738 97.6436 205.997 97.3769 206.328 97.1902C206.658 96.9982 207.037 96.9022 207.464 96.9022C208.013 96.9022 208.466 97.0409 208.824 97.3182C209.186 97.5902 209.429 97.9742 209.552 98.4702H208.344C208.28 98.2782 208.17 98.1289 208.016 98.0222C207.866 97.9102 207.68 97.8542 207.456 97.8542C207.136 97.8542 206.882 97.9716 206.696 98.2062C206.509 98.4356 206.416 98.7636 206.416 99.1902C206.416 99.6116 206.509 99.9396 206.696 100.174C206.882 100.404 207.136 100.518 207.456 100.518C207.909 100.518 208.205 100.316 208.344 99.9102H209.552C209.429 100.39 209.186 100.772 208.824 101.054C208.461 101.337 208.008 101.478 207.464 101.478C207.037 101.478 206.658 101.385 206.328 101.198C205.997 101.006 205.738 100.74 205.552 100.398C205.365 100.052 205.272 99.6489 205.272 99.1902ZM211.492 97.6622C211.636 97.4276 211.823 97.2436 212.052 97.1102C212.287 96.9769 212.554 96.9102 212.852 96.9102V98.0862H212.556C212.204 98.0862 211.938 98.1689 211.756 98.3342C211.58 98.4996 211.492 98.7876 211.492 99.1982V101.406H210.372V96.9742H211.492V97.6622ZM214.175 96.4462C213.977 96.4462 213.812 96.3849 213.679 96.2622C213.551 96.1342 213.487 95.9769 213.487 95.7902C213.487 95.6036 213.551 95.4489 213.679 95.3262C213.812 95.1982 213.977 95.1342 214.175 95.1342C214.372 95.1342 214.535 95.1982 214.663 95.3262C214.796 95.4489 214.863 95.6036 214.863 95.7902C214.863 95.9769 214.796 96.1342 214.663 96.2622C214.535 96.3849 214.372 96.4462 214.175 96.4462ZM214.727 96.9742V101.406H213.607V96.9742H214.727ZM216.953 97.6222C217.097 97.4089 217.295 97.2356 217.545 97.1022C217.801 96.9689 218.092 96.9022 218.417 96.9022C218.796 96.9022 219.137 96.9956 219.441 97.1823C219.751 97.3689 219.993 97.6356 220.169 97.9822C220.351 98.3236 220.441 98.7209 220.441 99.1742C220.441 99.6276 220.351 100.03 220.169 100.382C219.993 100.729 219.751 100.998 219.441 101.19C219.137 101.382 218.796 101.478 218.417 101.478C218.087 101.478 217.796 101.414 217.545 101.286C217.3 101.153 217.103 100.982 216.953 100.774V101.406H215.833V95.4862H216.953V97.6222ZM219.297 99.1742C219.297 98.9076 219.241 98.6782 219.129 98.4862C219.023 98.2889 218.879 98.1396 218.697 98.0382C218.521 97.9369 218.329 97.8862 218.121 97.8862C217.919 97.8862 217.727 97.9396 217.545 98.0462C217.369 98.1476 217.225 98.2969 217.113 98.4942C217.007 98.6916 216.953 98.9236 216.953 99.1902C216.953 99.4569 217.007 99.6889 217.113 99.8862C217.225 100.084 217.369 100.236 217.545 100.342C217.727 100.444 217.919 100.494 218.121 100.494C218.329 100.494 218.521 100.441 218.697 100.334C218.879 100.228 219.023 100.076 219.129 99.8782C219.241 99.6809 219.297 99.4462 219.297 99.1742ZM221.823 96.4462C221.626 96.4462 221.46 96.3849 221.327 96.2622C221.199 96.1342 221.135 95.9769 221.135 95.7902C221.135 95.6036 221.199 95.4489 221.327 95.3262C221.46 95.1982 221.626 95.1342 221.823 95.1342C222.02 95.1342 222.183 95.1982 222.311 95.3262C222.444 95.4489 222.511 95.6036 222.511 95.7902C222.511 95.9769 222.444 96.1342 222.311 96.2622C222.183 96.3849 222.02 96.4462 221.823 96.4462ZM222.375 96.9742V101.406H221.255V96.9742H222.375ZM225.938 96.9102C226.466 96.9102 226.892 97.0782 227.218 97.4142C227.543 97.7449 227.706 98.2089 227.706 98.8062V101.406H226.586V98.9582C226.586 98.6062 226.498 98.3369 226.322 98.1502C226.146 97.9582 225.906 97.8622 225.602 97.8622C225.292 97.8622 225.047 97.9582 224.866 98.1502C224.69 98.3369 224.602 98.6062 224.602 98.9582V101.406H223.482V96.9742H224.602V97.5262C224.751 97.3342 224.94 97.1849 225.17 97.0782C225.404 96.9662 225.66 96.9102 225.938 96.9102ZM230.507 96.9022C230.837 96.9022 231.128 96.9689 231.379 97.1022C231.629 97.2302 231.827 97.3982 231.971 97.6062V96.9742H233.099V101.438C233.099 101.849 233.016 102.214 232.851 102.534C232.685 102.86 232.437 103.116 232.107 103.302C231.776 103.494 231.376 103.59 230.907 103.59C230.277 103.59 229.76 103.444 229.355 103.15C228.955 102.857 228.728 102.457 228.675 101.95H229.787C229.845 102.153 229.971 102.313 230.163 102.43C230.36 102.553 230.597 102.614 230.875 102.614C231.2 102.614 231.464 102.516 231.667 102.318C231.869 102.126 231.971 101.833 231.971 101.438V100.75C231.827 100.958 231.627 101.132 231.371 101.27C231.12 101.409 230.832 101.478 230.507 101.478C230.133 101.478 229.792 101.382 229.483 101.19C229.173 100.998 228.928 100.729 228.747 100.382C228.571 100.03 228.483 99.6276 228.483 99.1742C228.483 98.7262 228.571 98.3289 228.747 97.9822C228.928 97.6356 229.171 97.3689 229.475 97.1823C229.784 96.9956 230.128 96.9022 230.507 96.9022ZM231.971 99.1902C231.971 98.9182 231.917 98.6862 231.811 98.4942C231.704 98.2969 231.56 98.1476 231.379 98.0462C231.197 97.9396 231.003 97.8862 230.795 97.8862C230.587 97.8862 230.395 97.9369 230.219 98.0382C230.043 98.1396 229.899 98.2889 229.787 98.4862C229.68 98.6782 229.627 98.9076 229.627 99.1742C229.627 99.4409 229.68 99.6756 229.787 99.8782C229.899 100.076 230.043 100.228 230.219 100.334C230.4 100.441 230.592 100.494 230.795 100.494C231.003 100.494 231.197 100.444 231.379 100.342C231.56 100.236 231.704 100.086 231.811 99.8942C231.917 99.6969 231.971 99.4622 231.971 99.1902ZM131.352 107.822V108.726H129.864V113.406H128.744V108.726H127.256V107.822H131.352ZM134.665 108.91C135.001 108.91 135.3 108.985 135.561 109.134C135.823 109.278 136.025 109.494 136.169 109.782C136.319 110.065 136.393 110.406 136.393 110.806V113.406H135.273V110.958C135.273 110.606 135.185 110.337 135.009 110.15C134.833 109.958 134.593 109.862 134.289 109.862C133.98 109.862 133.735 109.958 133.553 110.15C133.377 110.337 133.289 110.606 133.289 110.958V113.406H132.169V107.486H133.289V109.526C133.433 109.334 133.625 109.185 133.865 109.078C134.105 108.966 134.372 108.91 134.665 108.91ZM141.578 111.094C141.578 111.254 141.568 111.398 141.546 111.526H138.306C138.333 111.846 138.445 112.097 138.642 112.278C138.84 112.46 139.082 112.55 139.37 112.55C139.786 112.55 140.082 112.372 140.258 112.014H141.466C141.338 112.441 141.093 112.793 140.73 113.07C140.368 113.342 139.922 113.478 139.394 113.478C138.968 113.478 138.584 113.385 138.242 113.198C137.906 113.006 137.642 112.737 137.45 112.39C137.264 112.044 137.17 111.644 137.17 111.19C137.17 110.732 137.264 110.329 137.45 109.982C137.637 109.636 137.898 109.369 138.234 109.182C138.57 108.996 138.957 108.902 139.394 108.902C139.816 108.902 140.192 108.993 140.522 109.174C140.858 109.356 141.117 109.614 141.298 109.95C141.485 110.281 141.578 110.662 141.578 111.094ZM140.418 110.774C140.413 110.486 140.309 110.257 140.106 110.086C139.904 109.91 139.656 109.822 139.362 109.822C139.085 109.822 138.85 109.908 138.658 110.078C138.472 110.244 138.357 110.476 138.314 110.774H140.418ZM148.374 109.55C148.374 109.849 148.302 110.129 148.158 110.39C148.019 110.652 147.798 110.862 147.494 111.022C147.195 111.182 146.817 111.262 146.358 111.262H145.422V113.406H144.302V107.822H146.358C146.79 107.822 147.158 107.897 147.462 108.046C147.766 108.196 147.993 108.401 148.142 108.662C148.297 108.924 148.374 109.22 148.374 109.55ZM146.31 110.358C146.619 110.358 146.849 110.289 146.998 110.15C147.147 110.006 147.222 109.806 147.222 109.55C147.222 109.006 146.918 108.734 146.31 108.734H145.422V110.358H146.31ZM150.289 109.662C150.433 109.428 150.62 109.244 150.849 109.11C151.084 108.977 151.351 108.91 151.649 108.91V110.086H151.353C151.001 110.086 150.735 110.169 150.553 110.334C150.377 110.5 150.289 110.788 150.289 111.198V113.406H149.169V108.974H150.289V109.662ZM156.524 111.094C156.524 111.254 156.513 111.398 156.492 111.526H153.252C153.278 111.846 153.39 112.097 153.588 112.278C153.785 112.46 154.028 112.55 154.316 112.55C154.732 112.55 155.028 112.372 155.204 112.014H156.412C156.284 112.441 156.038 112.793 155.676 113.07C155.313 113.342 154.868 113.478 154.34 113.478C153.913 113.478 153.529 113.385 153.188 113.198C152.852 113.006 152.588 112.737 152.396 112.39C152.209 112.044 152.116 111.644 152.116 111.19C152.116 110.732 152.209 110.329 152.396 109.982C152.582 109.636 152.844 109.369 153.18 109.182C153.516 108.996 153.902 108.902 154.34 108.902C154.761 108.902 155.137 108.993 155.468 109.174C155.804 109.356 156.062 109.614 156.244 109.95C156.43 110.281 156.524 110.662 156.524 111.094ZM155.364 110.774C155.358 110.486 155.254 110.257 155.052 110.086C154.849 109.91 154.601 109.822 154.308 109.822C154.03 109.822 153.796 109.908 153.604 110.078C153.417 110.244 153.302 110.476 153.26 110.774H155.364ZM159.037 113.478C158.674 113.478 158.349 113.414 158.061 113.286C157.773 113.153 157.544 112.974 157.373 112.75C157.208 112.526 157.117 112.278 157.101 112.006H158.229C158.25 112.177 158.333 112.318 158.477 112.43C158.626 112.542 158.81 112.598 159.029 112.598C159.242 112.598 159.408 112.556 159.525 112.47C159.648 112.385 159.709 112.276 159.709 112.142C159.709 111.998 159.634 111.892 159.485 111.822C159.341 111.748 159.109 111.668 158.789 111.582C158.458 111.502 158.186 111.42 157.973 111.334C157.765 111.249 157.584 111.118 157.429 110.942C157.28 110.766 157.205 110.529 157.205 110.23C157.205 109.985 157.274 109.761 157.413 109.558C157.557 109.356 157.76 109.196 158.021 109.078C158.288 108.961 158.6 108.902 158.957 108.902C159.485 108.902 159.906 109.036 160.221 109.302C160.536 109.564 160.709 109.918 160.741 110.366H159.669C159.653 110.19 159.578 110.052 159.445 109.95C159.317 109.844 159.144 109.79 158.925 109.79C158.722 109.79 158.565 109.828 158.453 109.902C158.346 109.977 158.293 110.081 158.293 110.214C158.293 110.364 158.368 110.478 158.517 110.558C158.666 110.633 158.898 110.71 159.213 110.79C159.533 110.87 159.797 110.953 160.005 111.038C160.213 111.124 160.392 111.257 160.541 111.438C160.696 111.614 160.776 111.849 160.781 112.142C160.781 112.398 160.709 112.628 160.565 112.83C160.426 113.033 160.224 113.193 159.957 113.31C159.696 113.422 159.389 113.478 159.037 113.478ZM165.82 111.094C165.82 111.254 165.81 111.398 165.788 111.526H162.548C162.575 111.846 162.687 112.097 162.884 112.278C163.082 112.46 163.324 112.55 163.612 112.55C164.028 112.55 164.324 112.372 164.5 112.014H165.708C165.58 112.441 165.335 112.793 164.972 113.07C164.61 113.342 164.164 113.478 163.636 113.478C163.21 113.478 162.826 113.385 162.484 113.198C162.148 113.006 161.884 112.737 161.692 112.39C161.506 112.044 161.412 111.644 161.412 111.19C161.412 110.732 161.506 110.329 161.692 109.982C161.879 109.636 162.14 109.369 162.476 109.182C162.812 108.996 163.199 108.902 163.636 108.902C164.058 108.902 164.434 108.993 164.764 109.174C165.1 109.356 165.359 109.614 165.54 109.95C165.727 110.281 165.82 110.662 165.82 111.094ZM164.66 110.774C164.655 110.486 164.551 110.257 164.348 110.086C164.146 109.91 163.898 109.822 163.604 109.822C163.327 109.822 163.092 109.908 162.9 110.078C162.714 110.244 162.599 110.476 162.556 110.774H164.66ZM169.094 108.91C169.622 108.91 170.049 109.078 170.374 109.414C170.699 109.745 170.862 110.209 170.862 110.806V113.406H169.742V110.958C169.742 110.606 169.654 110.337 169.478 110.15C169.302 109.958 169.062 109.862 168.758 109.862C168.449 109.862 168.203 109.958 168.022 110.15C167.846 110.337 167.758 110.606 167.758 110.958V113.406H166.638V108.974H167.758V109.526C167.907 109.334 168.097 109.185 168.326 109.078C168.561 108.966 168.817 108.91 169.094 108.91ZM173.231 109.894V112.038C173.231 112.188 173.266 112.297 173.335 112.366C173.41 112.43 173.532 112.462 173.703 112.462H174.223V113.406H173.519C172.575 113.406 172.103 112.948 172.103 112.03V109.894H171.575V108.974H172.103V107.878H173.231V108.974H174.223V109.894H173.231ZM174.741 111.174C174.741 110.726 174.829 110.329 175.005 109.982C175.186 109.636 175.429 109.369 175.733 109.182C176.042 108.996 176.386 108.902 176.765 108.902C177.095 108.902 177.383 108.969 177.629 109.102C177.879 109.236 178.079 109.404 178.229 109.606V108.974H179.357V113.406H178.229V112.758C178.085 112.966 177.885 113.14 177.629 113.278C177.378 113.412 177.087 113.478 176.757 113.478C176.383 113.478 176.042 113.382 175.733 113.19C175.429 112.998 175.186 112.729 175.005 112.382C174.829 112.03 174.741 111.628 174.741 111.174ZM178.229 111.19C178.229 110.918 178.175 110.686 178.069 110.494C177.962 110.297 177.818 110.148 177.637 110.046C177.455 109.94 177.261 109.886 177.053 109.886C176.845 109.886 176.653 109.937 176.477 110.038C176.301 110.14 176.157 110.289 176.045 110.486C175.938 110.678 175.885 110.908 175.885 111.174C175.885 111.441 175.938 111.676 176.045 111.878C176.157 112.076 176.301 112.228 176.477 112.334C176.658 112.441 176.85 112.494 177.053 112.494C177.261 112.494 177.455 112.444 177.637 112.342C177.818 112.236 177.962 112.086 178.069 111.894C178.175 111.697 178.229 111.462 178.229 111.19ZM181.754 109.894V112.038C181.754 112.188 181.789 112.297 181.858 112.366C181.933 112.43 182.056 112.462 182.226 112.462H182.746V113.406H182.042C181.098 113.406 180.626 112.948 180.626 112.03V109.894H180.098V108.974H180.626V107.878H181.754V108.974H182.746V109.894H181.754ZM184.12 108.446C183.923 108.446 183.757 108.385 183.624 108.262C183.496 108.134 183.432 107.977 183.432 107.79C183.432 107.604 183.496 107.449 183.624 107.326C183.757 107.198 183.923 107.134 184.12 107.134C184.317 107.134 184.48 107.198 184.608 107.326C184.741 107.449 184.808 107.604 184.808 107.79C184.808 107.977 184.741 108.134 184.608 108.262C184.48 108.385 184.317 108.446 184.12 108.446ZM184.672 108.974V113.406H183.552V108.974H184.672ZM187.747 113.478C187.32 113.478 186.936 113.385 186.595 113.198C186.253 113.006 185.984 112.737 185.787 112.39C185.595 112.044 185.499 111.644 185.499 111.19C185.499 110.737 185.597 110.337 185.795 109.99C185.997 109.644 186.272 109.377 186.619 109.19C186.965 108.998 187.352 108.902 187.779 108.902C188.205 108.902 188.592 108.998 188.939 109.19C189.285 109.377 189.557 109.644 189.755 109.99C189.957 110.337 190.059 110.737 190.059 111.19C190.059 111.644 189.955 112.044 189.747 112.39C189.544 112.737 189.267 113.006 188.915 113.198C188.568 113.385 188.179 113.478 187.747 113.478ZM187.747 112.502C187.949 112.502 188.139 112.454 188.315 112.358C188.496 112.257 188.64 112.108 188.747 111.91C188.853 111.713 188.907 111.473 188.907 111.19C188.907 110.769 188.795 110.446 188.571 110.222C188.352 109.993 188.083 109.878 187.763 109.878C187.443 109.878 187.173 109.993 186.955 110.222C186.741 110.446 186.635 110.769 186.635 111.19C186.635 111.612 186.739 111.937 186.947 112.166C187.16 112.39 187.427 112.502 187.747 112.502ZM193.336 108.91C193.864 108.91 194.291 109.078 194.616 109.414C194.941 109.745 195.104 110.209 195.104 110.806V113.406H193.984V110.958C193.984 110.606 193.896 110.337 193.72 110.15C193.544 109.958 193.304 109.862 193 109.862C192.691 109.862 192.445 109.958 192.264 110.15C192.088 110.337 192 110.606 192 110.958V113.406H190.88V108.974H192V109.526C192.149 109.334 192.339 109.185 192.568 109.078C192.803 108.966 193.059 108.91 193.336 108.91ZM200.667 113.462C200.145 113.462 199.665 113.34 199.227 113.094C198.79 112.849 198.443 112.51 198.187 112.078C197.931 111.641 197.803 111.148 197.803 110.598C197.803 110.054 197.931 109.566 198.187 109.134C198.443 108.697 198.79 108.356 199.227 108.11C199.665 107.865 200.145 107.742 200.667 107.742C201.195 107.742 201.675 107.865 202.107 108.11C202.545 108.356 202.889 108.697 203.139 109.134C203.395 109.566 203.523 110.054 203.523 110.598C203.523 111.148 203.395 111.641 203.139 112.078C202.889 112.51 202.545 112.849 202.107 113.094C201.67 113.34 201.19 113.462 200.667 113.462ZM200.667 112.462C201.003 112.462 201.299 112.388 201.555 112.238C201.811 112.084 202.011 111.865 202.155 111.582C202.299 111.3 202.371 110.972 202.371 110.598C202.371 110.225 202.299 109.9 202.155 109.622C202.011 109.34 201.811 109.124 201.555 108.974C201.299 108.825 201.003 108.75 200.667 108.75C200.331 108.75 200.033 108.825 199.771 108.974C199.515 109.124 199.315 109.34 199.171 109.622C199.027 109.9 198.955 110.225 198.955 110.598C198.955 110.972 199.027 111.3 199.171 111.582C199.315 111.865 199.515 112.084 199.771 112.238C200.033 112.388 200.331 112.462 200.667 112.462ZM206.389 109.894H205.613V113.406H204.477V109.894H203.973V108.974H204.477V108.75C204.477 108.206 204.631 107.806 204.941 107.55C205.25 107.294 205.717 107.174 206.341 107.19V108.134C206.069 108.129 205.879 108.174 205.773 108.27C205.666 108.366 205.613 108.54 205.613 108.79V108.974H206.389V109.894ZM212.445 112.342H210.221L209.853 113.406H208.677L210.685 107.814H211.989L213.997 113.406H212.813L212.445 112.342ZM212.141 111.446L211.333 109.11L210.525 111.446H212.141ZM129.504 119.822C130.091 119.822 130.605 119.937 131.048 120.166C131.496 120.396 131.84 120.724 132.08 121.15C132.325 121.572 132.448 122.062 132.448 122.622C132.448 123.182 132.325 123.673 132.08 124.094C131.84 124.51 131.496 124.833 131.048 125.062C130.605 125.292 130.091 125.406 129.504 125.406H127.552V119.822H129.504ZM129.464 124.454C130.051 124.454 130.504 124.294 130.824 123.974C131.144 123.654 131.304 123.204 131.304 122.622C131.304 122.041 131.144 121.588 130.824 121.262C130.504 120.932 130.051 120.766 129.464 120.766H128.672V124.454H129.464ZM135.254 125.478C134.828 125.478 134.444 125.385 134.102 125.198C133.761 125.006 133.492 124.737 133.294 124.39C133.102 124.044 133.006 123.644 133.006 123.19C133.006 122.737 133.105 122.337 133.302 121.99C133.505 121.644 133.78 121.377 134.126 121.19C134.473 120.998 134.86 120.902 135.286 120.902C135.713 120.902 136.1 120.998 136.446 121.19C136.793 121.377 137.065 121.644 137.262 121.99C137.465 122.337 137.566 122.737 137.566 123.19C137.566 123.644 137.462 124.044 137.254 124.39C137.052 124.737 136.774 125.006 136.422 125.198C136.076 125.385 135.686 125.478 135.254 125.478ZM135.254 124.502C135.457 124.502 135.646 124.454 135.822 124.358C136.004 124.257 136.148 124.108 136.254 123.91C136.361 123.713 136.414 123.473 136.414 123.19C136.414 122.769 136.302 122.446 136.078 122.222C135.86 121.993 135.59 121.878 135.27 121.878C134.95 121.878 134.681 121.993 134.462 122.222C134.249 122.446 134.142 122.769 134.142 123.19C134.142 123.612 134.246 123.937 134.454 124.166C134.668 124.39 134.934 124.502 135.254 124.502ZM138.1 123.19C138.1 122.732 138.193 122.332 138.38 121.99C138.567 121.644 138.825 121.377 139.156 121.19C139.487 120.998 139.865 120.902 140.292 120.902C140.841 120.902 141.295 121.041 141.652 121.318C142.015 121.59 142.257 121.974 142.38 122.47H141.172C141.108 122.278 140.999 122.129 140.844 122.022C140.695 121.91 140.508 121.854 140.284 121.854C139.964 121.854 139.711 121.972 139.524 122.206C139.337 122.436 139.244 122.764 139.244 123.19C139.244 123.612 139.337 123.94 139.524 124.174C139.711 124.404 139.964 124.518 140.284 124.518C140.737 124.518 141.033 124.316 141.172 123.91H142.38C142.257 124.39 142.015 124.772 141.652 125.054C141.289 125.337 140.836 125.478 140.292 125.478C139.865 125.478 139.487 125.385 139.156 125.198C138.825 125.006 138.567 124.74 138.38 124.398C138.193 124.052 138.1 123.649 138.1 123.19ZM147.384 120.974V125.406H146.256V124.846C146.112 125.038 145.923 125.19 145.688 125.302C145.459 125.409 145.208 125.462 144.936 125.462C144.59 125.462 144.283 125.39 144.016 125.246C143.75 125.097 143.539 124.881 143.384 124.598C143.235 124.31 143.16 123.969 143.16 123.574V120.974H144.28V123.414C144.28 123.766 144.368 124.038 144.544 124.23C144.72 124.417 144.96 124.51 145.264 124.51C145.574 124.51 145.816 124.417 145.992 124.23C146.168 124.038 146.256 123.766 146.256 123.414V120.974H147.384ZM153.994 120.91C154.538 120.91 154.975 121.078 155.306 121.414C155.642 121.745 155.81 122.209 155.81 122.806V125.406H154.69V122.958C154.69 122.612 154.602 122.348 154.426 122.166C154.25 121.98 154.01 121.886 153.706 121.886C153.402 121.886 153.159 121.98 152.978 122.166C152.802 122.348 152.714 122.612 152.714 122.958V125.406H151.594V122.958C151.594 122.612 151.506 122.348 151.33 122.166C151.154 121.98 150.914 121.886 150.61 121.886C150.3 121.886 150.055 121.98 149.874 122.166C149.698 122.348 149.61 122.612 149.61 122.958V125.406H148.49V120.974H149.61V121.51C149.754 121.324 149.938 121.177 150.162 121.07C150.391 120.964 150.642 120.91 150.914 120.91C151.26 120.91 151.57 120.985 151.842 121.134C152.114 121.278 152.324 121.486 152.474 121.758C152.618 121.502 152.826 121.297 153.098 121.142C153.375 120.988 153.674 120.91 153.994 120.91ZM160.992 123.094C160.992 123.254 160.982 123.398 160.96 123.526H157.72C157.747 123.846 157.859 124.097 158.056 124.278C158.254 124.46 158.496 124.55 158.784 124.55C159.2 124.55 159.496 124.372 159.672 124.014H160.88C160.752 124.441 160.507 124.793 160.144 125.07C159.782 125.342 159.336 125.478 158.808 125.478C158.382 125.478 157.998 125.385 157.656 125.198C157.32 125.006 157.056 124.737 156.864 124.39C156.678 124.044 156.584 123.644 156.584 123.19C156.584 122.732 156.678 122.329 156.864 121.982C157.051 121.636 157.312 121.369 157.648 121.182C157.984 120.996 158.371 120.902 158.808 120.902C159.23 120.902 159.606 120.993 159.936 121.174C160.272 121.356 160.531 121.614 160.712 121.95C160.899 122.281 160.992 122.662 160.992 123.094ZM159.832 122.774C159.827 122.486 159.723 122.257 159.52 122.086C159.318 121.91 159.07 121.822 158.776 121.822C158.499 121.822 158.264 121.908 158.072 122.078C157.886 122.244 157.771 122.476 157.728 122.774H159.832ZM164.266 120.91C164.794 120.91 165.22 121.078 165.546 121.414C165.871 121.745 166.034 122.209 166.034 122.806V125.406H164.914V122.958C164.914 122.606 164.826 122.337 164.65 122.15C164.474 121.958 164.234 121.862 163.93 121.862C163.62 121.862 163.375 121.958 163.194 122.15C163.018 122.337 162.93 122.606 162.93 122.958V125.406H161.81V120.974H162.93V121.526C163.079 121.334 163.268 121.185 163.498 121.078C163.732 120.966 163.988 120.91 164.266 120.91ZM168.403 121.894V124.038C168.403 124.188 168.438 124.297 168.507 124.366C168.582 124.43 168.704 124.462 168.875 124.462H169.395V125.406H168.691C167.747 125.406 167.275 124.948 167.275 124.03V121.894H166.747V120.974H167.275V119.878H168.403V120.974H169.395V121.894H168.403ZM179.571 119.822L178.011 125.406H176.691L175.643 121.43L174.547 125.406L173.235 125.414L171.731 119.822H172.931L173.915 124.158L175.051 119.822H176.299L177.371 124.134L178.363 119.822H179.571ZM181.422 121.662C181.566 121.428 181.753 121.244 181.982 121.11C182.217 120.977 182.483 120.91 182.782 120.91V122.086H182.486C182.134 122.086 181.867 122.169 181.686 122.334C181.51 122.5 181.422 122.788 181.422 123.198V125.406H180.302V120.974H181.422V121.662ZM184.104 120.446C183.907 120.446 183.742 120.385 183.608 120.262C183.48 120.134 183.416 119.977 183.416 119.79C183.416 119.604 183.48 119.449 183.608 119.326C183.742 119.198 183.907 119.134 184.104 119.134C184.302 119.134 184.464 119.198 184.592 119.326C184.726 119.449 184.792 119.604 184.792 119.79C184.792 119.977 184.726 120.134 184.592 120.262C184.464 120.385 184.302 120.446 184.104 120.446ZM184.656 120.974V125.406H183.536V120.974H184.656ZM187.067 121.894V124.038C187.067 124.188 187.102 124.297 187.171 124.366C187.246 124.43 187.368 124.462 187.539 124.462H188.059V125.406H187.355C186.411 125.406 185.939 124.948 185.939 124.03V121.894H185.411V120.974H185.939V119.878H187.067V120.974H188.059V121.894H187.067ZM190.169 121.894V124.038C190.169 124.188 190.203 124.297 190.273 124.366C190.347 124.43 190.47 124.462 190.641 124.462H191.161V125.406H190.457C189.513 125.406 189.041 124.948 189.041 124.03V121.894H188.513V120.974H189.041V119.878H190.169V120.974H191.161V121.894H190.169ZM196.086 123.094C196.086 123.254 196.075 123.398 196.054 123.526H192.814C192.841 123.846 192.953 124.097 193.15 124.278C193.347 124.46 193.59 124.55 193.878 124.55C194.294 124.55 194.59 124.372 194.766 124.014H195.974C195.846 124.441 195.601 124.793 195.238 125.07C194.875 125.342 194.43 125.478 193.902 125.478C193.475 125.478 193.091 125.385 192.75 125.198C192.414 125.006 192.15 124.737 191.958 124.39C191.771 124.044 191.678 123.644 191.678 123.19C191.678 122.732 191.771 122.329 191.958 121.982C192.145 121.636 192.406 121.369 192.742 121.182C193.078 120.996 193.465 120.902 193.902 120.902C194.323 120.902 194.699 120.993 195.03 121.174C195.366 121.356 195.625 121.614 195.806 121.95C195.993 122.281 196.086 122.662 196.086 123.094ZM194.926 122.774C194.921 122.486 194.817 122.257 194.614 122.086C194.411 121.91 194.163 121.822 193.87 121.822C193.593 121.822 193.358 121.908 193.166 122.078C192.979 122.244 192.865 122.476 192.822 122.774H194.926ZM199.36 120.91C199.888 120.91 200.314 121.078 200.64 121.414C200.965 121.745 201.128 122.209 201.128 122.806V125.406H200.008V122.958C200.008 122.606 199.92 122.337 199.744 122.15C199.568 121.958 199.328 121.862 199.024 121.862C198.714 121.862 198.469 121.958 198.288 122.15C198.112 122.337 198.024 122.606 198.024 122.958V125.406H196.904V120.974H198.024V121.526C198.173 121.334 198.362 121.185 198.592 121.078C198.826 120.966 199.082 120.91 199.36 120.91ZM205.219 119.822V125.406H204.099V119.822H205.219ZM208.781 120.91C209.309 120.91 209.736 121.078 210.061 121.414C210.387 121.745 210.549 122.209 210.549 122.806V125.406H209.429V122.958C209.429 122.606 209.341 122.337 209.165 122.15C208.989 121.958 208.749 121.862 208.445 121.862C208.136 121.862 207.891 121.958 207.709 122.15C207.533 122.337 207.445 122.606 207.445 122.958V125.406H206.325V120.974H207.445V121.526C207.595 121.334 207.784 121.185 208.013 121.078C208.248 120.966 208.504 120.91 208.781 120.91ZM216.945 124.342H214.721L214.353 125.406H213.177L215.185 119.814H216.489L218.497 125.406H217.313L216.945 124.342ZM216.641 123.446L215.833 121.11L215.025 123.446H216.641ZM133.64 131.822V137.406H132.52V133.774L131.024 137.406H130.176L128.672 133.774V137.406H127.552V131.822H128.824L130.6 135.974L132.376 131.822H133.64ZM134.459 135.174C134.459 134.726 134.547 134.329 134.723 133.982C134.905 133.636 135.147 133.369 135.451 133.182C135.761 132.996 136.105 132.902 136.483 132.902C136.814 132.902 137.102 132.969 137.347 133.102C137.598 133.236 137.798 133.404 137.947 133.606V132.974H139.075V137.406H137.947V136.758C137.803 136.966 137.603 137.14 137.347 137.278C137.097 137.412 136.806 137.478 136.475 137.478C136.102 137.478 135.761 137.382 135.451 137.19C135.147 136.998 134.905 136.729 134.723 136.382C134.547 136.03 134.459 135.628 134.459 135.174ZM137.947 135.19C137.947 134.918 137.894 134.686 137.787 134.494C137.681 134.297 137.537 134.148 137.355 134.046C137.174 133.94 136.979 133.886 136.771 133.886C136.563 133.886 136.371 133.937 136.195 134.038C136.019 134.14 135.875 134.289 135.763 134.486C135.657 134.678 135.603 134.908 135.603 135.174C135.603 135.441 135.657 135.676 135.763 135.878C135.875 136.076 136.019 136.228 136.195 136.334C136.377 136.441 136.569 136.494 136.771 136.494C136.979 136.494 137.174 136.444 137.355 136.342C137.537 136.236 137.681 136.086 137.787 135.894C137.894 135.697 137.947 135.462 137.947 135.19ZM141.289 133.662C141.433 133.428 141.62 133.244 141.849 133.11C142.084 132.977 142.351 132.91 142.649 132.91V134.086H142.353C142.001 134.086 141.735 134.169 141.553 134.334C141.377 134.5 141.289 134.788 141.289 135.198V137.406H140.169V132.974H141.289V133.662ZM146.028 137.406L144.524 135.518V137.406H143.404V131.486H144.524V134.854L146.012 132.974H147.468L145.516 135.198L147.484 137.406H146.028ZM152.259 132.974V137.406H151.131V136.846C150.987 137.038 150.798 137.19 150.563 137.302C150.334 137.409 150.083 137.462 149.811 137.462C149.465 137.462 149.158 137.39 148.891 137.246C148.625 137.097 148.414 136.881 148.259 136.598C148.11 136.31 148.035 135.969 148.035 135.574V132.974H149.155V135.414C149.155 135.766 149.243 136.038 149.419 136.23C149.595 136.417 149.835 136.51 150.139 136.51C150.449 136.51 150.691 136.417 150.867 136.23C151.043 136.038 151.131 135.766 151.131 135.414V132.974H152.259ZM154.485 133.614C154.629 133.412 154.826 133.244 155.077 133.11C155.333 132.972 155.623 132.902 155.949 132.902C156.327 132.902 156.669 132.996 156.973 133.182C157.282 133.369 157.525 133.636 157.701 133.982C157.882 134.324 157.973 134.721 157.973 135.174C157.973 135.628 157.882 136.03 157.701 136.382C157.525 136.729 157.282 136.998 156.973 137.19C156.669 137.382 156.327 137.478 155.949 137.478C155.623 137.478 155.335 137.412 155.085 137.278C154.839 137.145 154.639 136.977 154.485 136.774V139.518H153.365V132.974H154.485V133.614ZM156.829 135.174C156.829 134.908 156.773 134.678 156.661 134.486C156.554 134.289 156.41 134.14 156.229 134.038C156.053 133.937 155.861 133.886 155.653 133.886C155.45 133.886 155.258 133.94 155.077 134.046C154.901 134.148 154.757 134.297 154.645 134.494C154.538 134.692 154.485 134.924 154.485 135.19C154.485 135.457 154.538 135.689 154.645 135.886C154.757 136.084 154.901 136.236 155.077 136.342C155.258 136.444 155.45 136.494 155.653 136.494C155.861 136.494 156.053 136.441 156.229 136.334C156.41 136.228 156.554 136.076 156.661 135.878C156.773 135.681 156.829 135.446 156.829 135.174ZM161.813 136.518H163.653V137.406H160.693V131.822H161.813V136.518ZM164.076 135.174C164.076 134.726 164.164 134.329 164.34 133.982C164.522 133.636 164.765 133.369 165.069 133.182C165.378 132.996 165.722 132.902 166.101 132.902C166.431 132.902 166.719 132.969 166.965 133.102C167.215 133.236 167.415 133.404 167.565 133.606V132.974H168.693V137.406H167.565V136.758C167.421 136.966 167.221 137.14 166.965 137.278C166.714 137.412 166.423 137.478 166.093 137.478C165.719 137.478 165.378 137.382 165.069 137.19C164.765 136.998 164.522 136.729 164.34 136.382C164.164 136.03 164.076 135.628 164.076 135.174ZM167.565 135.19C167.565 134.918 167.511 134.686 167.405 134.494C167.298 134.297 167.154 134.148 166.973 134.046C166.791 133.94 166.597 133.886 166.389 133.886C166.181 133.886 165.989 133.937 165.812 134.038C165.637 134.14 165.493 134.289 165.381 134.486C165.274 134.678 165.221 134.908 165.221 135.174C165.221 135.441 165.274 135.676 165.381 135.878C165.493 136.076 165.637 136.228 165.812 136.334C165.994 136.441 166.186 136.494 166.389 136.494C166.597 136.494 166.791 136.444 166.973 136.342C167.154 136.236 167.298 136.086 167.405 135.894C167.511 135.697 167.565 135.462 167.565 135.19ZM172.242 132.91C172.77 132.91 173.197 133.078 173.522 133.414C173.848 133.745 174.01 134.209 174.01 134.806V137.406H172.89V134.958C172.89 134.606 172.802 134.337 172.626 134.15C172.45 133.958 172.21 133.862 171.906 133.862C171.597 133.862 171.352 133.958 171.17 134.15C170.994 134.337 170.906 134.606 170.906 134.958V137.406H169.786V132.974H170.906V133.526C171.056 133.334 171.245 133.185 171.474 133.078C171.709 132.966 171.965 132.91 172.242 132.91ZM176.811 132.902C177.142 132.902 177.433 132.969 177.683 133.102C177.934 133.23 178.131 133.398 178.275 133.606V132.974H179.403V137.438C179.403 137.849 179.321 138.214 179.155 138.534C178.99 138.86 178.742 139.116 178.411 139.302C178.081 139.494 177.681 139.59 177.211 139.59C176.582 139.59 176.065 139.444 175.659 139.15C175.259 138.857 175.033 138.457 174.979 137.95H176.091C176.15 138.153 176.275 138.313 176.467 138.43C176.665 138.553 176.902 138.614 177.179 138.614C177.505 138.614 177.769 138.516 177.971 138.318C178.174 138.126 178.275 137.833 178.275 137.438V136.75C178.131 136.958 177.931 137.132 177.675 137.27C177.425 137.409 177.137 137.478 176.811 137.478C176.438 137.478 176.097 137.382 175.787 137.19C175.478 136.998 175.233 136.729 175.051 136.382C174.875 136.03 174.787 135.628 174.787 135.174C174.787 134.726 174.875 134.329 175.051 133.982C175.233 133.636 175.475 133.369 175.779 133.182C176.089 132.996 176.433 132.902 176.811 132.902ZM178.275 135.19C178.275 134.918 178.222 134.686 178.115 134.494C178.009 134.297 177.865 134.148 177.683 134.046C177.502 133.94 177.307 133.886 177.099 133.886C176.891 133.886 176.699 133.937 176.523 134.038C176.347 134.14 176.203 134.289 176.091 134.486C175.985 134.678 175.931 134.908 175.931 135.174C175.931 135.441 175.985 135.676 176.091 135.878C176.203 136.076 176.347 136.228 176.523 136.334C176.705 136.441 176.897 136.494 177.099 136.494C177.307 136.494 177.502 136.444 177.683 136.342C177.865 136.236 178.009 136.086 178.115 135.894C178.222 135.697 178.275 135.462 178.275 135.19ZM184.681 132.974V137.406H183.553V136.846C183.409 137.038 183.22 137.19 182.985 137.302C182.756 137.409 182.505 137.462 182.233 137.462C181.887 137.462 181.58 137.39 181.313 137.246C181.047 137.097 180.836 136.881 180.681 136.598C180.532 136.31 180.457 135.969 180.457 135.574V132.974H181.577V135.414C181.577 135.766 181.665 136.038 181.841 136.23C182.017 136.417 182.257 136.51 182.561 136.51C182.871 136.51 183.113 136.417 183.289 136.23C183.465 136.038 183.553 135.766 183.553 135.414V132.974H184.681ZM185.498 135.174C185.498 134.726 185.586 134.329 185.762 133.982C185.944 133.636 186.186 133.369 186.49 133.182C186.8 132.996 187.144 132.902 187.522 132.902C187.853 132.902 188.141 132.969 188.386 133.102C188.637 133.236 188.837 133.404 188.986 133.606V132.974H190.114V137.406H188.986V136.758C188.842 136.966 188.642 137.14 188.386 137.278C188.136 137.412 187.845 137.478 187.514 137.478C187.141 137.478 186.8 137.382 186.49 137.19C186.186 136.998 185.944 136.729 185.762 136.382C185.586 136.03 185.498 135.628 185.498 135.174ZM188.986 135.19C188.986 134.918 188.933 134.686 188.826 134.494C188.72 134.297 188.576 134.148 188.394 134.046C188.213 133.94 188.018 133.886 187.81 133.886C187.602 133.886 187.41 133.937 187.234 134.038C187.058 134.14 186.914 134.289 186.802 134.486C186.696 134.678 186.642 134.908 186.642 135.174C186.642 135.441 186.696 135.676 186.802 135.878C186.914 136.076 187.058 136.228 187.234 136.334C187.416 136.441 187.608 136.494 187.81 136.494C188.018 136.494 188.213 136.444 188.394 136.342C188.576 136.236 188.72 136.086 188.826 135.894C188.933 135.697 188.986 135.462 188.986 135.19ZM192.944 132.902C193.275 132.902 193.566 132.969 193.816 133.102C194.067 133.23 194.264 133.398 194.408 133.606V132.974H195.536V137.438C195.536 137.849 195.454 138.214 195.288 138.534C195.123 138.86 194.875 139.116 194.544 139.302C194.214 139.494 193.814 139.59 193.344 139.59C192.715 139.59 192.198 139.444 191.792 139.15C191.392 138.857 191.166 138.457 191.112 137.95H192.224C192.283 138.153 192.408 138.313 192.6 138.43C192.798 138.553 193.035 138.614 193.312 138.614C193.638 138.614 193.902 138.516 194.104 138.318C194.307 138.126 194.408 137.833 194.408 137.438V136.75C194.264 136.958 194.064 137.132 193.808 137.27C193.558 137.409 193.27 137.478 192.944 137.478C192.571 137.478 192.23 137.382 191.92 137.19C191.611 136.998 191.366 136.729 191.184 136.382C191.008 136.03 190.92 135.628 190.92 135.174C190.92 134.726 191.008 134.329 191.184 133.982C191.366 133.636 191.608 133.369 191.912 133.182C192.222 132.996 192.566 132.902 192.944 132.902ZM194.408 135.19C194.408 134.918 194.355 134.686 194.248 134.494C194.142 134.297 193.998 134.148 193.816 134.046C193.635 133.94 193.44 133.886 193.232 133.886C193.024 133.886 192.832 133.937 192.656 134.038C192.48 134.14 192.336 134.289 192.224 134.486C192.118 134.678 192.064 134.908 192.064 135.174C192.064 135.441 192.118 135.676 192.224 135.878C192.336 136.076 192.48 136.228 192.656 136.334C192.838 136.441 193.03 136.494 193.232 136.494C193.44 136.494 193.635 136.444 193.816 136.342C193.998 136.236 194.142 136.086 194.248 135.894C194.355 135.697 194.408 135.462 194.408 135.19ZM200.75 135.094C200.75 135.254 200.739 135.398 200.718 135.526H197.478C197.505 135.846 197.617 136.097 197.814 136.278C198.011 136.46 198.254 136.55 198.542 136.55C198.958 136.55 199.254 136.372 199.43 136.014H200.638C200.51 136.441 200.265 136.793 199.902 137.07C199.539 137.342 199.094 137.478 198.566 137.478C198.139 137.478 197.755 137.385 197.414 137.198C197.078 137.006 196.814 136.737 196.622 136.39C196.435 136.044 196.342 135.644 196.342 135.19C196.342 134.732 196.435 134.329 196.622 133.982C196.809 133.636 197.07 133.369 197.406 133.182C197.742 132.996 198.129 132.902 198.566 132.902C198.987 132.902 199.363 132.993 199.694 133.174C200.03 133.356 200.289 133.614 200.47 133.95C200.657 134.281 200.75 134.662 200.75 135.094ZM199.59 134.774C199.585 134.486 199.481 134.257 199.278 134.086C199.075 133.91 198.827 133.822 198.534 133.822C198.257 133.822 198.022 133.908 197.83 134.078C197.643 134.244 197.529 134.476 197.486 134.774H199.59ZM205.402 137.462C205.013 137.462 204.661 137.396 204.346 137.262C204.037 137.129 203.791 136.937 203.61 136.686C203.429 136.436 203.335 136.14 203.33 135.798H204.53C204.546 136.028 204.626 136.209 204.77 136.342C204.919 136.476 205.122 136.542 205.378 136.542C205.639 136.542 205.845 136.481 205.994 136.358C206.143 136.23 206.218 136.065 206.218 135.862C206.218 135.697 206.167 135.561 206.066 135.454C205.965 135.348 205.837 135.265 205.682 135.206C205.533 135.142 205.325 135.073 205.058 134.998C204.695 134.892 204.399 134.788 204.17 134.686C203.946 134.58 203.751 134.422 203.586 134.214C203.426 134.001 203.346 133.718 203.346 133.366C203.346 133.036 203.429 132.748 203.594 132.502C203.759 132.257 203.991 132.07 204.29 131.942C204.589 131.809 204.93 131.742 205.314 131.742C205.89 131.742 206.357 131.884 206.714 132.166C207.077 132.444 207.277 132.833 207.314 133.334H206.082C206.071 133.142 205.989 132.985 205.834 132.862C205.685 132.734 205.485 132.67 205.234 132.67C205.015 132.67 204.839 132.726 204.706 132.838C204.578 132.95 204.514 133.113 204.514 133.326C204.514 133.476 204.562 133.601 204.658 133.702C204.759 133.798 204.882 133.878 205.026 133.942C205.175 134.001 205.383 134.07 205.65 134.15C206.013 134.257 206.309 134.364 206.538 134.47C206.767 134.577 206.965 134.737 207.13 134.95C207.295 135.164 207.378 135.444 207.378 135.79C207.378 136.089 207.301 136.366 207.146 136.622C206.991 136.878 206.765 137.084 206.466 137.238C206.167 137.388 205.813 137.462 205.402 137.462ZM212.533 132.974V137.406H211.405V136.846C211.261 137.038 211.072 137.19 210.837 137.302C210.608 137.409 210.357 137.462 210.085 137.462C209.738 137.462 209.432 137.39 209.165 137.246C208.898 137.097 208.688 136.881 208.533 136.598C208.384 136.31 208.309 135.969 208.309 135.574V132.974H209.429V135.414C209.429 135.766 209.517 136.038 209.693 136.23C209.869 136.417 210.109 136.51 210.413 136.51C210.722 136.51 210.965 136.417 211.141 136.23C211.317 136.038 211.405 135.766 211.405 135.414V132.974H212.533ZM213.35 135.19C213.35 134.732 213.443 134.332 213.63 133.99C213.817 133.644 214.075 133.377 214.406 133.19C214.737 132.998 215.115 132.902 215.542 132.902C216.091 132.902 216.545 133.041 216.902 133.318C217.265 133.59 217.507 133.974 217.63 134.47H216.422C216.358 134.278 216.249 134.129 216.094 134.022C215.945 133.91 215.758 133.854 215.534 133.854C215.214 133.854 214.961 133.972 214.774 134.206C214.587 134.436 214.494 134.764 214.494 135.19C214.494 135.612 214.587 135.94 214.774 136.174C214.961 136.404 215.214 136.518 215.534 136.518C215.987 136.518 216.283 136.316 216.422 135.91H217.63C217.507 136.39 217.265 136.772 216.902 137.054C216.539 137.337 216.086 137.478 215.542 137.478C215.115 137.478 214.737 137.385 214.406 137.198C214.075 137.006 213.817 136.74 213.63 136.398C213.443 136.052 213.35 135.649 213.35 135.19ZM220.946 132.91C221.282 132.91 221.581 132.985 221.842 133.134C222.104 133.278 222.306 133.494 222.45 133.782C222.6 134.065 222.674 134.406 222.674 134.806V137.406H221.554V134.958C221.554 134.606 221.466 134.337 221.29 134.15C221.114 133.958 220.874 133.862 220.57 133.862C220.261 133.862 220.016 133.958 219.834 134.15C219.658 134.337 219.57 134.606 219.57 134.958V137.406H218.45V131.486H219.57V133.526C219.714 133.334 219.906 133.185 220.146 133.078C220.386 132.966 220.653 132.91 220.946 132.91ZM229.07 136.342H226.846L226.478 137.406H225.302L227.31 131.814H228.614L230.622 137.406H229.438L229.07 136.342ZM228.766 135.446L227.958 133.11L227.15 135.446H228.766ZM233.068 137.478C232.706 137.478 232.38 137.414 232.092 137.286C231.804 137.153 231.575 136.974 231.404 136.75C231.239 136.526 231.148 136.278 231.132 136.006H232.26C232.282 136.177 232.364 136.318 232.508 136.43C232.658 136.542 232.842 136.598 233.06 136.598C233.274 136.598 233.439 136.556 233.556 136.47C233.679 136.385 233.74 136.276 233.74 136.142C233.74 135.998 233.666 135.892 233.516 135.822C233.372 135.748 233.14 135.668 232.82 135.582C232.49 135.502 232.218 135.42 232.004 135.334C231.796 135.249 231.615 135.118 231.46 134.942C231.311 134.766 231.236 134.529 231.236 134.23C231.236 133.985 231.306 133.761 231.444 133.558C231.588 133.356 231.791 133.196 232.052 133.078C232.319 132.961 232.631 132.902 232.988 132.902C233.516 132.902 233.938 133.036 234.252 133.302C234.567 133.564 234.74 133.918 234.772 134.366H233.7C233.684 134.19 233.61 134.052 233.476 133.95C233.348 133.844 233.175 133.79 232.956 133.79C232.754 133.79 232.596 133.828 232.484 133.902C232.378 133.977 232.324 134.081 232.324 134.214C232.324 134.364 232.399 134.478 232.548 134.558C232.698 134.633 232.93 134.71 233.244 134.79C233.564 134.87 233.828 134.953 234.036 135.038C234.244 135.124 234.423 135.257 234.572 135.438C234.727 135.614 234.807 135.849 234.812 136.142C234.812 136.398 234.74 136.628 234.596 136.83C234.458 137.033 234.255 137.193 233.988 137.31C233.727 137.422 233.42 137.478 233.068 137.478ZM132.184 143.822V149.406H131.064V147.03H128.672V149.406H127.552V143.822H128.672V146.118H131.064V143.822H132.184ZM137.086 143.822V144.726H135.598V149.406H134.478V144.726H132.99V143.822H137.086ZM143.992 143.822V149.406H142.872V145.774L141.376 149.406H140.528L139.024 145.774V149.406H137.904V143.822H139.176L140.952 147.974L142.728 143.822H143.992ZM146.219 148.518H148.059V149.406H145.099V143.822H146.219V148.518ZM149.267 149.462C149.064 149.462 148.896 149.401 148.763 149.278C148.635 149.15 148.571 148.993 148.571 148.806C148.571 148.62 148.635 148.465 148.763 148.342C148.896 148.214 149.064 148.15 149.267 148.15C149.464 148.15 149.627 148.214 149.755 148.342C149.883 148.465 149.947 148.62 149.947 148.806C149.947 148.993 149.883 149.15 149.755 149.278C149.627 149.401 149.464 149.462 149.267 149.462Z" fill="white"/>
<defs>
<linearGradient id="paint0_linear_2_831" x1="137.5" y1="0.90625" x2="137.5" y2="199.906" gradientUnits="userSpaceOnUse">
<stop stop-color="#70F7E8"/>
<stop offset="1" stop-color="#207EA1"/>
</linearGradient>
</defs>
</svg>
