<svg width="28" height="29" viewBox="0 0 28 29" fill="none" xmlns="http://www.w3.org/2000/svg">
<path d="M10.4887 8.86579C6.99556 8.86579 5.83118 12.2756 5.83118 15.1171C5.83118 18.5269 8.15994 23.6415 10.4887 23.6415C11.7556 23.5893 12.4437 23.0732 13.9819 23.0732C15.5095 23.0732 15.7284 23.6415 17.475 23.6415C19.2216 23.6415 22.1325 20.2318 22.1325 17.9586C22.0999 17.9472 19.2542 17.5005 19.2216 14.5488C19.1995 12.0824 22.0347 11.1913 22.1325 11.139C20.9414 9.44319 18.6965 8.90785 18.0572 8.86579C16.3886 8.73963 14.762 10.0024 13.9819 10.0024C13.1901 10.0024 11.7695 8.86579 10.4887 8.86579Z" stroke="white" stroke-width="1.25" stroke-linecap="round" stroke-linejoin="round"/>
<path d="M13.9796 7.10795C14.9903 7.10795 15.9595 6.71605 16.6742 6.01846C17.3888 5.32086 17.7903 4.37473 17.7903 3.38818C16.7797 3.38818 15.8104 3.78009 15.0957 4.47768C14.3811 5.17527 13.9796 6.12141 13.9796 7.10795" stroke="white" stroke-width="1.25" stroke-linecap="round" stroke-linejoin="round"/>
</svg>
