<svg width="54" height="55" viewBox="0 0 54 55" fill="none" xmlns="http://www.w3.org/2000/svg">
<circle cx="27" cy="27.9062" r="26" stroke="#3577F5" stroke-width="2"/>
<path fill-rule="evenodd" clip-rule="evenodd" d="M27 17.4062C27.1989 17.4062 27.3896 17.4853 27.5303 17.6259C27.671 17.7666 27.75 17.9573 27.75 18.1562V35.8458L32.469 31.1252C32.6098 30.9844 32.8008 30.9053 33 30.9053C33.1991 30.9053 33.3901 30.9844 33.531 31.1252C33.6718 31.2661 33.7509 31.4571 33.7509 31.6562C33.7509 31.8554 33.6718 32.0464 33.531 32.1873L27.531 38.1873C27.4613 38.2571 27.3785 38.3125 27.2874 38.3503C27.1963 38.3881 27.0986 38.4076 27 38.4076C26.9013 38.4076 26.8036 38.3881 26.7125 38.3503C26.6214 38.3125 26.5386 38.2571 26.469 38.1873L20.469 32.1873C20.3281 32.0464 20.249 31.8554 20.249 31.6562C20.249 31.4571 20.3281 31.2661 20.469 31.1252C20.6098 30.9844 20.8008 30.9053 21 30.9053C21.1991 30.9053 21.3901 30.9844 21.531 31.1252L26.25 35.8458V18.1562C26.25 17.9573 26.329 17.7666 26.4696 17.6259C26.6103 17.4853 26.8011 17.4062 27 17.4062V17.4062Z" fill="#3577F5"/>
</svg>
