<svg width="23" height="24" viewBox="0 0 23 24" fill="none" xmlns="http://www.w3.org/2000/svg">
<path d="M19.3255 1.69629H3.82552C2.39879 1.69629 1.24219 2.85289 1.24219 4.27962V19.7796C1.24219 21.2064 2.39879 22.363 3.82552 22.363H19.3255C20.7523 22.363 21.9089 21.2064 21.9089 19.7796V4.27962C21.9089 2.85289 20.7523 1.69629 19.3255 1.69629Z" stroke="white" stroke-width="1.75" stroke-linecap="round" stroke-linejoin="round"/>
<path d="M7.50777 10.488V13.7171H9.92965V19.3682H13.1588V13.7171H15.5807L16.388 10.488H13.1588V8.87337C13.1588 8.65927 13.2439 8.45393 13.3953 8.30253C13.5467 8.15113 13.752 8.06608 13.9661 8.06608H16.388V4.83691H13.9661C12.8956 4.83691 11.8689 5.26218 11.1119 6.01917C10.3549 6.77615 9.92965 7.80284 9.92965 8.87337V10.488H7.50777Z" stroke="white" stroke-linecap="round" stroke-linejoin="round"/>
</svg>
