<svg width="100" height="101" viewBox="0 0 100 101" fill="none" xmlns="http://www.w3.org/2000/svg">
<rect opacity="0.2" y="0.90625" width="100" height="100" rx="15" fill="#407BFF"/>
<path d="M56.6752 62.3137L54.1215 62.499L54.1389 62.7379L56.6926 62.5526L56.6752 62.3137Z" fill="#407BFF"/>
<path d="M58.9699 62.1482L57.7158 62.2391L57.7331 62.478L58.9873 62.3871L58.9699 62.1482Z" fill="#407BFF"/>
<path d="M70.0281 33.9137L28.0683 36.9529C27.1951 37.0214 26.3839 37.433 25.8108 38.0986C25.2377 38.7641 24.9491 39.6299 25.0074 40.5079L26.4333 60.3765C26.5008 61.2551 26.911 62.0714 27.5746 62.6478C28.2382 63.2241 29.1015 63.5139 29.9767 63.454L32.3532 63.2821C32.5259 63.2696 32.6964 63.3264 32.8274 63.4401C32.9584 63.5538 33.0391 63.7151 33.0519 63.8885L33.3181 67.57C33.3224 67.6413 33.3479 67.7097 33.3912 67.7663C33.4345 67.8229 33.4937 67.8653 33.5611 67.8879C33.6286 67.9105 33.7012 67.9123 33.7697 67.8931C33.8382 67.8739 33.8994 67.8345 33.9455 67.7801L37.9237 63.1603C38.091 62.9668 38.3276 62.8475 38.582 62.8285L71.9293 60.4147C72.803 60.3469 73.6148 59.9355 74.1884 59.2698C74.7619 58.6042 75.0509 57.7382 74.9926 56.8598L73.5667 36.9911C73.4992 36.1134 73.0897 35.2978 72.4271 34.7216C71.7646 34.1454 70.9025 33.8551 70.0281 33.9137Z" fill="#407BFF"/>
<path d="M33.8773 46.2312L36.1623 46.0659L36.3491 48.6527L38.8449 48.4731L38.658 45.8863L40.9526 45.7186L41.4867 53.1101L39.1922 53.2753L38.9766 50.2862L36.4809 50.4682L36.6964 53.4574L34.4138 53.6226L33.8773 46.2312Z" fill="white"/>
<path d="M48.6554 50.413L44.5405 50.71C44.5721 50.9766 44.6841 51.2272 44.8615 51.4286C44.9633 51.5357 45.0885 51.6178 45.2272 51.6685C45.366 51.7192 45.5146 51.7371 45.6615 51.7208C45.8632 51.7064 46.0578 51.6404 46.2267 51.5292C46.3589 51.4291 46.4718 51.3057 46.5597 51.1651L48.5955 51.2058C48.374 51.7078 48.0143 52.1364 47.5584 52.4417C47.1401 52.7068 46.5221 52.8665 45.7046 52.9208C45.133 52.9873 44.5538 52.9259 44.0088 52.7411C43.5719 52.5577 43.197 52.2526 42.9286 51.8621C42.6209 51.4176 42.4442 50.8956 42.4184 50.3556C42.3757 49.9805 42.412 49.6007 42.525 49.2405C42.6381 48.8804 42.8253 48.5479 43.0747 48.2646C43.5729 47.7089 44.2915 47.3967 45.2304 47.3281C45.8519 47.2542 46.4822 47.3281 47.0698 47.5436C47.5198 47.7359 47.8989 48.0631 48.1548 48.4802C48.4478 48.9981 48.6121 49.5789 48.6339 50.1735L48.6554 50.413ZM46.4998 49.5795C46.4706 49.2681 46.3363 48.9758 46.119 48.7508C46.0095 48.6665 45.8838 48.6057 45.7498 48.572C45.6158 48.5383 45.4764 48.5325 45.34 48.555C45.2037 48.5774 45.0735 48.6276 44.9573 48.7025C44.8412 48.7774 44.7418 48.8754 44.6651 48.9903C44.5372 49.2157 44.4727 49.4714 44.4783 49.7304L46.4998 49.5795Z" fill="white"/>
<path d="M49.2901 45.1174L51.3475 44.9689L51.8817 52.3579L49.8242 52.5064L49.2901 45.1174Z" fill="white"/>
<path d="M52.7272 44.8682L54.7846 44.7197L55.3187 52.1088L53.2637 52.2573L52.7272 44.8682Z" fill="white"/>
<path d="M56.1858 49.3711C56.1469 48.9963 56.1874 48.6174 56.3046 48.2592C56.4218 47.901 56.6131 47.5715 56.866 47.2921C57.3786 46.7221 58.1043 46.4027 59.0432 46.3341C60.113 46.2574 60.9449 46.5097 61.5389 47.0909C62.0323 47.6112 62.3173 48.2947 62.3399 49.0114C62.3624 49.728 62.1208 50.428 61.6611 50.9783C61.1533 51.5435 60.4172 51.8629 59.4528 51.9363C58.7036 52.0262 57.9467 51.848 57.3163 51.4334C56.981 51.2007 56.7043 50.8933 56.5082 50.5354C56.312 50.1775 56.2016 49.7789 56.1858 49.3711ZM58.2432 49.2178C58.2394 49.5959 58.3692 49.9632 58.6097 50.2549C58.7067 50.3543 58.8241 50.4313 58.9539 50.4807C59.0836 50.5302 59.2225 50.5508 59.361 50.5413C59.4996 50.5317 59.6343 50.4921 59.756 50.4253C59.8778 50.3585 59.9835 50.2661 60.0659 50.1543C60.2595 49.8209 60.3322 49.431 60.2719 49.0502C60.2743 48.6797 60.1462 48.3202 59.9102 48.0346C59.818 47.9334 59.7037 47.8549 59.5762 47.805C59.4486 47.7552 59.3113 47.7354 59.1749 47.7472C59.0327 47.7538 58.8938 47.7931 58.7692 47.8621C58.6446 47.931 58.5376 48.0278 58.4564 48.1448C58.2634 48.467 58.1912 48.8473 58.2528 49.2178H58.2432Z" fill="white"/>
<path d="M62.988 44.1257L65.1796 43.9677L65.3018 45.6443L65.1221 49.0574L63.7665 49.1556L63.1078 45.8023L62.988 44.1257ZM63.4671 49.7017L65.5125 49.5532L65.6443 51.3639L63.5964 51.51L63.4671 49.7017Z" fill="white"/>
</svg>
