<svg width="100" height="101" viewBox="0 0 100 101" fill="none" xmlns="http://www.w3.org/2000/svg">
<rect opacity="0.2" y="0.90625" width="100" height="100" rx="15" fill="#AE4FFF"/>
<path d="M32 24.9498V76.4281H69V36.1577L58.0192 24.9498H32Z" fill="#AE4FFF"/>
<path opacity="0.6" d="M32 24.9498V76.4281H69V36.1577L58.0192 24.9498H32Z" fill="white"/>
<path opacity="0.4" d="M57.7391 36.2107V24.9498L69 36.2107H57.7391Z" fill="#AE4FFF"/>
<path d="M58.1734 55.7238C58.0739 55.7244 57.9765 55.6952 57.8936 55.6402C57.8106 55.5851 57.746 55.5067 57.7078 55.4148C57.6697 55.3228 57.6598 55.2216 57.6793 55.1241C57.6989 55.0265 57.747 54.9369 57.8177 54.8668C59.1712 53.5086 60.0919 51.7798 60.4635 49.8986C60.8351 48.0175 60.641 46.0684 59.9057 44.2975C59.1704 42.5267 57.9268 41.0134 56.332 39.9488C54.7372 38.8842 52.8627 38.316 50.9452 38.316C49.0277 38.316 47.1533 38.8842 45.5585 39.9488C43.9637 41.0134 42.7201 42.5267 41.9848 44.2975C41.2494 46.0684 41.0553 48.0175 41.427 49.8986C41.7986 51.7798 42.7193 53.5086 44.0728 54.8668C44.1197 54.9134 44.157 54.9688 44.1824 55.0299C44.2078 55.0909 44.2209 55.1564 44.2209 55.2226C44.2209 55.2887 44.2078 55.3542 44.1824 55.4152C44.157 55.4763 44.1197 55.5317 44.0728 55.5783C43.9777 55.6712 43.85 55.7231 43.7171 55.7231C43.5841 55.7231 43.4565 55.6712 43.3613 55.5783C41.8625 54.0795 40.8417 52.17 40.4282 50.0911C40.0146 48.0122 40.2268 45.8573 41.038 43.899C41.8491 41.9408 43.2227 40.267 44.9851 39.0894C46.7475 37.9118 48.8195 37.2832 50.9392 37.2832C53.0588 37.2832 55.1308 37.9118 56.8932 39.0894C58.6556 40.267 60.0292 41.9408 60.8404 43.899C61.6515 45.8573 61.8637 48.0122 61.4501 50.0911C61.0366 52.17 60.0159 54.0795 58.517 55.5783C58.4255 55.6692 58.3024 55.7214 58.1734 55.7238Z" fill="#AD4EFF"/>
<path d="M53.2465 58.7278V47.542C53.2465 47.0584 53.0544 46.5947 52.7125 46.2528C52.3706 45.9108 51.9068 45.7187 51.4233 45.7188H50.4752C49.9916 45.7187 49.5279 45.9108 49.1859 46.2528C48.844 46.5947 48.6519 47.0584 48.6519 47.542V58.7278H44.7883L50.9492 64.0358L57.1061 58.7278H53.2465Z" fill="#AD4EFF"/>
</svg>
