<svg width="28" height="28" viewBox="0 0 28 28" fill="none" xmlns="http://www.w3.org/2000/svg">
<path fill-rule="evenodd" clip-rule="evenodd" d="M7 13.9992C7 13.7671 7.09219 13.5445 7.25628 13.3804C7.42038 13.2163 7.64294 13.1242 7.875 13.1242H18.0128L14.2555 9.36865C14.0912 9.20435 13.9989 8.98151 13.9989 8.74915C13.9989 8.51679 14.0912 8.29395 14.2555 8.12965C14.4198 7.96535 14.6426 7.87305 14.875 7.87305C15.1074 7.87305 15.3302 7.96535 15.4945 8.12965L20.7445 13.3797C20.826 13.4609 20.8906 13.5575 20.9347 13.6638C20.9789 13.7701 21.0016 13.8841 21.0016 13.9992C21.0016 14.1142 20.9789 14.2282 20.9347 14.3345C20.8906 14.4408 20.826 14.5374 20.7445 14.6187L15.4945 19.8687C15.3302 20.033 15.1074 20.1253 14.875 20.1253C14.6426 20.1253 14.4198 20.033 14.2555 19.8687C14.0912 19.7044 13.9989 19.4815 13.9989 19.2492C13.9989 19.0168 14.0912 18.794 14.2555 18.6297L18.0128 14.8742H7.875C7.64294 14.8742 7.42038 14.782 7.25628 14.6179C7.09219 14.4538 7 14.2312 7 13.9992Z" fill="white"/>
</svg>
