<svg width="448" height="449" viewBox="0 0 448 449" fill="none" xmlns="http://www.w3.org/2000/svg">
<g style="mix-blend-mode:multiply" opacity="0.7">
<path d="M91.9744 333.439H92.9958V294.445H91.9744V333.439Z" fill="#333333"/>
</g>
<g style="mix-blend-mode:multiply" opacity="0.7">
<path d="M91.9744 287.931H92.9958V267.69H91.9744V287.931Z" fill="#333333"/>
</g>
<path d="M224 384C319.946 384 397.725 379.459 397.725 373.857C397.725 368.256 319.946 363.715 224 363.715C128.054 363.715 50.2745 368.256 50.2745 373.857C50.2745 379.459 128.054 384 224 384Z" fill="#070707"/>
<path d="M331.807 136.113C334.02 128.945 311.378 127.314 305.921 140.189C298.278 158.226 309.425 168.369 309.425 168.369C315.921 164.883 328.626 164.363 335.57 166.666L331.807 136.113Z" fill="#383838"/>
<path d="M333.554 366.456L326.565 366.725L326.529 359.172L333.509 358.903L333.554 366.456Z" fill="#FFC58F"/>
<path d="M326.287 365.283H334.208C334.349 365.283 334.485 365.33 334.597 365.416C334.709 365.502 334.789 365.622 334.826 365.757L336.547 372.029C336.59 372.177 336.599 372.333 336.571 372.484C336.543 372.636 336.48 372.778 336.386 372.901C336.293 373.023 336.172 373.121 336.033 373.188C335.894 373.255 335.742 373.287 335.588 373.284C332.819 373.23 331.475 373.069 327.999 373.069C325.857 373.069 320.338 373.293 317.381 373.293C314.424 373.293 313.887 370.372 315.087 370.112C320.463 368.92 323.528 367.29 325.185 365.731C325.481 365.445 325.876 365.284 326.287 365.283Z" fill="#171717"/>
<path opacity="0.2" d="M326.529 359.181L326.547 363.069L333.536 363.105L333.518 358.903L326.529 359.181Z" fill="black"/>
<path d="M310.563 219.369C309.425 227.971 313.304 268.774 316.575 286.569C320.92 310.214 325.033 361.484 325.033 361.484L334.45 360.919C334.45 360.919 335.588 304.713 332.703 285.655C332.515 260.648 332.963 216.851 332.963 216.851L310.563 219.369Z" fill="#171717"/>
<path opacity="0.2" d="M332.748 244.108C332.748 237.764 328.053 232.755 326.879 244.869C326.135 252.584 329.137 265.522 332.658 274.482C332.649 264.724 332.694 253.793 332.748 244.108Z" fill="black"/>
<path d="M375.128 367.236L368.722 367.406L365.702 358.67L372.118 358.5L375.128 367.236Z" fill="#FFC58F"/>
<path d="M374.976 365.282H367.073C367.011 365.278 366.948 365.287 366.89 365.31C366.832 365.333 366.779 365.368 366.737 365.414C366.694 365.459 366.661 365.513 366.642 365.573C366.623 365.632 366.617 365.695 366.625 365.757L367.208 372.029C367.268 372.369 367.442 372.678 367.701 372.906C367.96 373.134 368.288 373.267 368.632 373.284C371.374 373.23 372.664 373.069 376.141 373.069C378.282 373.069 381.096 373.293 384.053 373.293C387.009 373.293 386.472 370.372 385.181 370.112C379.384 368.92 378.479 367.29 376.221 365.73C375.861 365.459 375.427 365.303 374.976 365.282Z" fill="#171717"/>
<path opacity="0.2" d="M365.711 358.679L367.262 363.177L373.802 363.365L372.127 358.5L365.711 358.679Z" fill="black"/>
<path d="M321.315 218.159C321.315 218.159 335.839 271.337 343.132 287.026C347.872 311.263 364.833 362.057 364.833 362.057L374.689 361.376C374.689 361.376 363.937 309.981 357.325 286.112C353.741 263.936 351.402 226.976 341.197 215.919L321.315 218.159Z" fill="#171717"/>
<path d="M307.238 179.819C307.05 184.299 306.665 188.645 306.136 193.044C305.608 197.444 304.963 201.798 304.111 206.162L303.78 207.802L303.601 208.698C303.489 209.226 303.318 209.74 303.09 210.23C302.744 211 302.212 211.672 301.54 212.183C300.705 212.795 299.689 213.11 298.655 213.079C297.983 213.053 297.322 212.907 296.701 212.649C296.274 212.471 295.863 212.255 295.474 212.004C294.349 211.237 293.322 210.334 292.419 209.316C291.603 208.42 290.859 207.524 290.152 206.628C287.452 203.049 285.054 199.252 282.984 195.275C282.766 194.856 282.711 194.371 282.827 193.914C282.944 193.456 283.225 193.057 283.616 192.792C284.008 192.528 284.483 192.417 284.951 192.48C285.419 192.543 285.848 192.776 286.155 193.134C288.915 196.395 291.702 199.738 294.623 202.676C295.34 203.411 296.074 204.119 296.809 204.746C297.419 205.31 298.092 205.8 298.816 206.207C298.932 206.251 299.04 206.305 299.049 206.287C299.058 206.269 298.995 206.225 298.682 206.198C298.196 206.189 297.72 206.34 297.329 206.628C297.08 206.799 296.874 207.026 296.728 207.291C296.675 207.407 296.728 207.291 296.728 207.291L296.836 206.547L297.06 204.961C297.624 200.741 298.072 196.476 298.484 192.211C298.897 187.946 299.21 183.627 299.497 179.416V179.363C299.554 178.337 300.016 177.376 300.781 176.692C301.547 176.007 302.553 175.654 303.578 175.711C304.604 175.768 305.564 176.23 306.249 176.996C306.934 177.761 307.286 178.767 307.229 179.793L307.238 179.819Z" fill="#FFC58F"/>
<path d="M303.95 173.834C297.302 177.087 298.341 185.706 298.341 185.706L308.977 193.197C308.977 193.197 312.865 183.834 312.059 179.345C311.226 174.73 308.878 171.46 303.95 173.834Z" fill="white"/>
<path opacity="0.2" d="M302.848 181.056C304.407 178.601 307.086 179.192 310.204 181.146C310.929 181.774 311.536 182.526 311.996 183.368C311.328 186.74 310.337 190.04 309.039 193.224L301.54 187.946C301.241 185.569 301.699 183.158 302.848 181.056Z" fill="black"/>
<path d="M286.657 194.353L285.071 188.287L279.695 193.125C279.695 193.125 281.64 196.369 284.767 196.808L286.657 194.353Z" fill="#FFC58F"/>
<path d="M280.95 185.814L279.857 186.898C279.026 187.711 278.544 188.815 278.512 189.977C278.48 191.139 278.901 192.268 279.686 193.125L285.062 188.287L283.557 186.074C283.416 185.867 283.232 185.695 283.017 185.567C282.802 185.44 282.562 185.361 282.314 185.336C282.065 185.312 281.815 185.341 281.579 185.424C281.343 185.506 281.129 185.639 280.95 185.814Z" fill="#FFC58F"/>
<path d="M283.674 186.226C282.316 184.404 281.085 182.491 279.991 180.501C279.651 179.82 278.548 180.769 279.095 181.764C279.642 182.758 280.654 186.002 281.729 187.185C282.804 188.367 283.674 186.226 283.674 186.226Z" fill="#FFC58F"/>
<path d="M301.458 178.767C303.348 196.077 308.993 208.147 310.534 219.382L341.124 215.96C339.394 204.715 338.516 197.359 340.667 176.536C340.761 175.63 340.666 174.715 340.388 173.848C340.109 172.981 339.653 172.182 339.049 171.501C338.445 170.82 337.705 170.272 336.878 169.892C336.05 169.513 335.153 169.31 334.242 169.296C332.379 169.296 330.318 169.296 328.239 169.43C323.578 169.614 318.937 170.135 314.351 170.989C311.125 171.653 307.694 172.584 305.239 173.301C304.071 173.63 303.055 174.356 302.365 175.354C301.675 176.351 301.354 177.558 301.458 178.767Z" fill="white"/>
<path d="M314.38 170.958C314.38 170.958 309.469 176.271 316.79 183.502C319.515 177.995 323.436 173.168 328.267 169.372L314.38 170.958Z" fill="#CCCCCC"/>
<path d="M325.141 153.907C324.764 158.477 324.809 166.765 328.268 169.399C328.268 169.399 320.625 173.557 316.503 180.868C311.127 175.492 314.38 170.958 314.38 170.958C319.227 169.166 318.689 165.519 317.426 162.15L325.141 153.907Z" fill="#FFC58F"/>
<path opacity="0.2" d="M324.298 154.812C324.531 157.478 324.192 160.163 323.304 162.688C322.685 164.426 320.553 165.421 318.295 165.842C318.187 164.573 317.885 163.328 317.399 162.15L324.298 154.812Z" fill="black"/>
<path d="M331.628 147.519C330.302 154.92 329.889 158.083 325.678 161.469C319.334 166.559 310.536 163.306 309.631 155.654C308.815 148.764 311.136 137.815 318.779 135.7C320.463 135.227 322.24 135.193 323.941 135.6C325.643 136.007 327.212 136.842 328.499 138.027C329.787 139.211 330.75 140.705 331.297 142.366C331.845 144.027 331.959 145.801 331.628 147.519Z" fill="#FFC58F"/>
<path d="M325.92 141.578C324.128 145.539 325.696 152.259 331.377 151.846C326.78 157.088 327.873 168.584 327.873 168.584C330.747 168.789 333.62 168.167 336.152 166.792C336.152 166.792 334.36 155.923 336.251 148.298C337.792 142.098 337.568 130.065 324.128 132.681C322.56 132.986 312.346 135.665 311.315 141.032C311.234 141.515 322.219 144.696 325.92 141.578Z" fill="#383838"/>
<path d="M333.312 151.721C333.153 152.423 332.856 153.087 332.44 153.675C332.023 154.262 331.494 154.761 330.884 155.144C329.244 156.156 327.891 154.821 327.9 152.993C327.9 151.345 328.796 148.836 330.633 148.567C331.041 148.514 331.456 148.563 331.84 148.711C332.224 148.859 332.564 149.101 332.831 149.415C333.097 149.729 333.281 150.104 333.365 150.507C333.449 150.909 333.431 151.327 333.312 151.721Z" fill="#FFC58F"/>
<path opacity="0.2" d="M335.883 181.486C335.765 183.015 336.051 184.548 336.711 185.931C337.372 187.315 338.384 188.501 339.647 189.371C339.808 186.271 340.077 182.794 340.471 178.798C338.912 177.122 336.251 178.583 335.883 181.486Z" fill="black"/>
<path d="M341.376 214.092L343.06 216.672C343.195 216.878 342.971 217.12 342.612 217.156L310.536 220.74C310.258 220.74 310.016 220.659 309.98 220.489L309.389 217.801C309.389 217.613 309.577 217.425 309.873 217.389L340.856 213.912C340.951 213.895 341.049 213.902 341.14 213.933C341.231 213.965 341.312 214.019 341.376 214.092Z" fill="#171717"/>
<path d="M337.64 218.025L338.473 217.926C338.634 217.926 338.751 217.81 338.733 217.711L337.944 214.19C337.944 214.091 337.765 214.02 337.595 214.038L336.771 214.136C336.6 214.136 336.484 214.253 336.511 214.351L337.299 217.864C337.317 217.971 337.478 218.043 337.64 218.025Z" fill="#3577F5"/>
<path d="M312.937 220.794L313.761 220.704C313.932 220.704 314.048 220.578 314.021 220.48L313.233 216.968C313.233 216.86 313.053 216.797 312.892 216.815L312.059 216.905C311.898 216.905 311.781 217.021 311.799 217.129L312.588 220.641C312.614 220.74 312.767 220.811 312.937 220.794Z" fill="black"/>
<path d="M325.248 219.405L326.081 219.315C326.243 219.315 326.359 219.199 326.341 219.091L325.553 215.579C325.553 215.48 325.373 215.409 325.212 215.427L324.379 215.516C324.218 215.516 324.101 215.633 324.119 215.74L324.907 219.252C324.97 219.36 325.123 219.423 325.248 219.405Z" fill="black"/>
<path d="M318.976 148.271C318.904 148.881 318.528 149.338 318.134 149.293C317.739 149.248 317.471 148.71 317.542 148.11C317.614 147.51 317.99 147.044 318.394 147.089C318.797 147.133 319.075 147.671 318.976 148.271Z" fill="#263238"/>
<path d="M312.14 147.465C312.068 148.074 311.692 148.531 311.297 148.486C310.903 148.442 310.634 147.904 310.706 147.304C310.778 146.703 311.154 146.237 311.602 146.282C312.05 146.327 312.211 146.865 312.14 147.465Z" fill="#263238"/>
<path d="M311.727 146.336L310.312 145.745C310.312 145.745 310.912 146.954 311.727 146.336Z" fill="#263238"/>
<path d="M313.833 148.746C313.128 150.054 312.248 151.26 311.217 152.33C311.499 152.588 311.836 152.78 312.201 152.893C312.566 153.006 312.952 153.037 313.331 152.984L313.833 148.746Z" fill="#FFAB5E"/>
<path d="M315.034 155.126C315.005 155.106 314.982 155.079 314.968 155.048C314.954 155.016 314.949 154.981 314.953 154.947C314.956 154.923 314.964 154.9 314.976 154.88C314.989 154.859 315.005 154.841 315.024 154.827C315.043 154.813 315.065 154.803 315.088 154.797C315.111 154.791 315.135 154.79 315.159 154.794C315.908 154.925 316.678 154.877 317.405 154.655C318.132 154.432 318.796 154.041 319.343 153.513C319.359 153.495 319.378 153.481 319.4 153.471C319.421 153.461 319.445 153.455 319.468 153.453C319.492 153.452 319.516 153.456 319.538 153.463C319.56 153.471 319.581 153.484 319.599 153.5C319.616 153.515 319.631 153.535 319.641 153.556C319.651 153.577 319.657 153.601 319.658 153.624C319.66 153.648 319.656 153.672 319.648 153.694C319.64 153.717 319.628 153.737 319.612 153.755C319.031 154.328 318.321 154.754 317.541 154.997C316.762 155.24 315.936 155.293 315.132 155.153L315.034 155.126Z" fill="#263238"/>
<path d="M322.264 145.082C322.21 145.054 322.166 145.01 322.139 144.956C321.92 144.561 321.612 144.223 321.238 143.969C320.865 143.715 320.436 143.553 319.989 143.496C319.893 143.496 319.802 143.458 319.735 143.391C319.668 143.323 319.63 143.232 319.63 143.137C319.63 143.042 319.668 142.951 319.735 142.884C319.802 142.817 319.893 142.779 319.989 142.779C320.553 142.839 321.096 143.034 321.571 143.345C322.046 143.657 322.44 144.077 322.721 144.571C322.746 144.611 322.762 144.656 322.768 144.703C322.775 144.75 322.773 144.798 322.761 144.843C322.75 144.889 322.729 144.932 322.701 144.97C322.672 145.008 322.637 145.04 322.596 145.064C322.545 145.091 322.49 145.107 322.432 145.11C322.375 145.113 322.317 145.103 322.264 145.082Z" fill="#263238"/>
<path d="M310.33 143.899L310.276 143.854C310.242 143.822 310.216 143.783 310.197 143.739C310.179 143.696 310.17 143.65 310.17 143.603C310.17 143.556 310.179 143.51 310.197 143.467C310.216 143.424 310.242 143.385 310.276 143.352C310.635 142.91 311.095 142.56 311.617 142.331C312.139 142.101 312.708 142 313.278 142.035C313.373 142.047 313.459 142.096 313.518 142.172C313.577 142.247 313.603 142.343 313.591 142.438C313.579 142.533 313.53 142.62 313.454 142.679C313.379 142.738 313.283 142.764 313.188 142.752C312.737 142.727 312.287 142.811 311.875 142.996C311.463 143.182 311.102 143.464 310.822 143.818C310.766 143.891 310.683 143.94 310.592 143.955C310.5 143.97 310.407 143.95 310.33 143.899Z" fill="#263238"/>
<path d="M340.346 174.005C342.98 176.693 345.48 179.381 347.917 182.221C349.135 183.637 350.363 185.061 351.501 186.566C352.74 188.116 353.886 189.737 354.932 191.423C355.265 191.947 355.564 192.492 355.828 193.053C356.019 193.487 356.169 193.937 356.276 194.397C356.317 194.584 356.347 194.772 356.366 194.962V195.311C356.375 195.467 356.375 195.622 356.366 195.777V196.019V196.127V196.216L356.321 196.396C356.088 197.363 355.918 198.34 355.613 199.29C355.077 201.226 354.372 203.112 353.508 204.925C352.621 206.767 351.524 208.498 350.237 210.086C349.577 210.891 348.852 211.641 348.069 212.326C347.675 212.676 347.272 213.007 346.833 213.33C346.618 213.482 346.385 213.635 346.152 213.778C345.919 213.921 345.704 214.047 345.327 214.244L343.383 210.938C343.383 210.893 343.58 210.732 343.679 210.606L344.055 210.185C344.306 209.889 344.548 209.576 344.781 209.289C345.242 208.627 345.663 207.939 346.044 207.228C346.808 205.794 347.444 204.295 347.944 202.748C348.168 201.942 348.419 201.162 348.589 200.329C348.759 199.496 348.947 198.698 349.082 197.874C349.216 197.05 349.315 196.198 349.44 195.365V195.204V195.132V195.293C349.44 195.392 349.44 195.526 349.44 195.589C349.435 195.646 349.435 195.703 349.44 195.759V195.983C349.44 196.163 349.44 196.109 349.44 196.037C349.44 195.965 349.153 195.571 348.947 195.276C348.051 194.048 346.922 192.659 345.775 191.342C344.628 190.025 343.428 188.654 342.191 187.337L334.799 179.398L340.346 174.005Z" fill="#FFC58F"/>
<path d="M347.263 213.043L341.887 218.034L338.401 212.362C338.401 212.362 341.752 209.952 344.763 210.857L347.263 213.043Z" fill="#FFC58F"/>
<path d="M337.792 219.082L336 217.21C335.66 216.85 335.474 216.372 335.485 215.877C335.495 215.382 335.699 214.911 336.054 214.566L338.348 212.317L341.824 218.034L340.328 219.261C339.958 219.552 339.494 219.695 339.025 219.662C338.556 219.628 338.117 219.422 337.792 219.082Z" fill="#FFC58F"/>
<path d="M328.223 173.754C327.811 176.952 336.332 186.298 336.332 186.298L344.306 176.316C344.306 176.316 340.588 171.101 337.747 169.919C333.187 167.992 328.689 170.107 328.223 173.754Z" fill="white"/>
<path d="M318.591 147.142L317.175 146.551C317.175 146.551 317.793 147.779 318.591 147.142Z" fill="#263238"/>
<path d="M115.244 140.87C111.937 144.535 107.825 155.52 120.566 153.316C133.307 151.112 115.244 140.87 115.244 140.87Z" fill="#383838"/>
<path d="M119.302 130.772C120.082 125.898 111.167 114.707 107.654 121.615C103.345 129.93 119.302 130.772 119.302 130.772Z" fill="#383838"/>
<path d="M119.329 133.729C123.37 130.898 125.18 116.705 117.752 118.981C108.801 121.714 119.329 133.729 119.329 133.729Z" fill="#383838"/>
<path d="M139.776 177.203C139.695 177.956 139.624 178.897 139.561 179.757C139.498 180.617 139.462 181.549 139.436 182.445C139.436 184.237 139.328 186.029 139.382 187.776C139.457 191.315 139.777 194.845 140.341 198.34C140.466 199.236 140.663 200.06 140.824 200.92L140.878 201.216C140.876 201.249 140.876 201.282 140.878 201.315C140.878 201.315 140.878 201.315 140.878 201.395C140.878 201.476 141.308 201.691 141.917 201.754C142.629 201.837 143.348 201.837 144.059 201.754C147.502 201.197 150.87 200.244 154.094 198.913L155.832 202.004C154.999 202.605 154.202 203.107 153.359 203.608C152.517 204.11 151.684 204.594 150.797 205.024C148.99 205.96 147.089 206.702 145.125 207.237C144.013 207.534 142.871 207.699 141.72 207.73C140.217 207.773 138.733 207.391 137.437 206.628C136.658 206.144 135.995 205.496 135.493 204.728C135.255 204.367 135.054 203.983 134.893 203.581C134.811 203.394 134.739 203.203 134.678 203.008L134.588 202.721L134.543 202.542C134.301 201.592 134.015 200.634 133.809 199.675C132.95 195.846 132.437 191.948 132.277 188.027C132.178 186.083 132.142 184.147 132.214 182.203C132.214 181.226 132.294 180.259 132.366 179.282C132.438 178.305 132.527 177.373 132.671 176.28L139.776 177.203Z" fill="#FFB573"/>
<path d="M138.88 168.754C141.568 169.972 141.568 182.024 141.568 182.024L129.4 187.543C129.4 187.543 127.322 172.893 130.054 170.143C132.787 167.392 134.947 166.98 138.88 168.754Z" fill="white"/>
<path opacity="0.2" d="M138.208 171.325L140.036 182.749L133.432 185.733L138.208 171.325Z" fill="black"/>
<path d="M152.535 200.419L157.615 194.854L159.21 200.983C159.21 200.983 155.958 204.092 153.189 203.196L152.535 200.419Z" fill="#FFB573"/>
<path d="M160.886 194.675L161.638 197.713C161.695 197.952 161.688 198.201 161.619 198.437C161.55 198.672 161.421 198.886 161.244 199.057L159.21 200.983L157.615 194.854L158.601 193.958C158.78 193.796 158.999 193.683 159.235 193.632C159.472 193.58 159.718 193.591 159.948 193.663C160.179 193.735 160.387 193.867 160.552 194.044C160.716 194.222 160.831 194.439 160.886 194.675Z" fill="#FFB573"/>
<path d="M140.412 171.531C140.072 175.626 138.02 185.608 129.66 209.8L101.615 204.952C103.936 194.2 105.155 187.337 104.079 165.905C104.053 165.421 104.127 164.937 104.297 164.483C104.466 164.029 104.727 163.615 105.063 163.266C105.399 162.917 105.803 162.641 106.251 162.456C106.698 162.27 107.179 162.178 107.663 162.186C110.475 162.212 113.284 162.388 116.077 162.715C120.366 163.134 124.621 163.856 128.809 164.874C132.232 165.77 135.896 167.078 138.109 167.885C138.843 168.151 139.468 168.654 139.884 169.314C140.301 169.974 140.487 170.754 140.412 171.531Z" fill="white"/>
<path opacity="0.2" d="M104.608 171.899C107.036 172.974 108.909 176.146 107.744 181.199C107.187 183.492 105.991 185.58 104.294 187.22C104.527 183.215 104.563 178.529 104.375 172.49L104.608 171.899Z" fill="black"/>
<path d="M119.804 148.594C119.903 152.832 119.41 160.475 116.068 162.715C116.068 162.715 118.496 165.752 125.279 170.985C131.748 167.401 128.809 164.91 128.809 164.91C124.428 163.037 125.126 159.668 126.47 156.622L119.804 148.594Z" fill="#FFB573"/>
<path opacity="0.2" d="M122.528 151.873L126.47 156.613C126.146 157.32 125.885 158.055 125.691 158.808C123.988 158.253 121.498 156.291 121.453 154.328C121.426 153.405 122.304 152.268 122.528 151.873Z" fill="black"/>
<path d="M116.48 140.79C116.865 147.734 116.874 150.646 120.36 154.23C125.601 159.606 134.042 157.634 135.744 150.717C137.276 144.445 136.389 134.177 129.615 131.373C128.121 130.746 126.491 130.512 124.881 130.694C123.27 130.876 121.734 131.467 120.417 132.411C119.1 133.355 118.046 134.621 117.357 136.088C116.668 137.554 116.366 139.173 116.48 140.79Z" fill="#FFB573"/>
<path d="M116.417 145.44C119.41 145.592 122.842 139.822 121.453 137.215C123.021 136.865 129.705 137.618 129.678 135.154C132.698 137.259 139.328 137.367 140.43 134.509C141.532 131.651 139.023 128.989 135.762 130.029C133.405 123.954 122.071 122.699 117.842 128.47C112.484 128.335 100.845 137.098 116.417 145.44Z" fill="#383838"/>
<path d="M128.486 142.707C128.486 143.272 128.773 143.729 129.149 143.729C129.526 143.729 129.813 143.281 129.821 142.716C129.83 142.152 129.526 141.686 129.158 141.686C128.791 141.686 128.486 142.143 128.486 142.707Z" fill="#263238"/>
<path d="M134.866 142.743C134.866 143.307 135.162 143.764 135.529 143.773C135.896 143.782 136.201 143.316 136.21 142.752C136.219 142.187 135.914 141.731 135.547 141.722C135.18 141.713 134.875 142.179 134.866 142.743Z" fill="#263238"/>
<path d="M135.386 141.757L136.739 141.372C136.739 141.372 136.04 142.474 135.386 141.757Z" fill="#263238"/>
<path d="M132.895 143.746C133.39 145.027 134.059 146.233 134.884 147.33C134.595 147.534 134.264 147.673 133.916 147.736C133.568 147.8 133.21 147.787 132.868 147.698L132.895 143.746Z" fill="#DF9049"/>
<path d="M129.58 149.929C129.855 149.973 130.134 149.994 130.413 149.992C130.435 149.993 130.457 149.99 130.477 149.982C130.498 149.974 130.517 149.963 130.533 149.948C130.549 149.933 130.561 149.914 130.57 149.894C130.579 149.874 130.583 149.852 130.583 149.83C130.581 149.786 130.562 149.744 130.531 149.712C130.499 149.681 130.457 149.662 130.413 149.66C129.708 149.668 129.012 149.511 128.38 149.199C127.748 148.888 127.198 148.432 126.775 147.868C126.764 147.848 126.749 147.831 126.731 147.818C126.713 147.804 126.692 147.795 126.671 147.79C126.649 147.784 126.626 147.784 126.604 147.788C126.582 147.793 126.561 147.801 126.542 147.814C126.513 147.846 126.496 147.888 126.496 147.931C126.496 147.974 126.513 148.016 126.542 148.047C126.9 148.545 127.353 148.967 127.874 149.29C128.395 149.613 128.975 149.83 129.58 149.929Z" fill="#263238"/>
<path d="M128.639 150.879C128.877 151.021 129.125 151.143 129.382 151.246C129.402 151.255 129.424 151.259 129.446 151.26C129.467 151.26 129.489 151.255 129.509 151.247C129.529 151.239 129.547 151.226 129.563 151.211C129.578 151.195 129.59 151.177 129.597 151.156C129.606 151.136 129.611 151.115 129.611 151.093C129.611 151.071 129.607 151.05 129.599 151.03C129.59 151.01 129.578 150.991 129.562 150.976C129.547 150.961 129.528 150.949 129.508 150.941C128.857 150.686 128.274 150.281 127.807 149.76C127.341 149.239 127.002 148.615 126.82 147.94C126.816 147.918 126.807 147.898 126.795 147.88C126.783 147.862 126.767 147.847 126.748 147.835C126.73 147.823 126.709 147.815 126.688 147.812C126.666 147.808 126.644 147.809 126.623 147.814C126.581 147.823 126.544 147.847 126.519 147.882C126.494 147.917 126.483 147.96 126.488 148.002C126.639 148.6 126.907 149.162 127.276 149.656C127.645 150.149 128.108 150.565 128.639 150.879Z" fill="#263238"/>
<path d="M114.356 146.202C114.743 147.488 115.618 148.572 116.794 149.221C118.362 150.063 119.535 148.746 119.428 147.062C119.329 145.547 118.388 143.281 116.65 143.137C116.271 143.113 115.892 143.183 115.546 143.342C115.201 143.501 114.901 143.744 114.673 144.048C114.446 144.352 114.297 144.709 114.242 145.085C114.187 145.461 114.226 145.845 114.356 146.202Z" fill="#FFB573"/>
<path d="M125.583 139.553C125.647 139.584 125.718 139.593 125.788 139.58C125.857 139.568 125.92 139.533 125.969 139.482C127.053 138.397 129.006 138.711 129.024 138.711C129.11 138.724 129.199 138.704 129.27 138.654C129.342 138.604 129.392 138.528 129.409 138.442C129.417 138.399 129.416 138.354 129.406 138.311C129.396 138.268 129.378 138.227 129.352 138.191C129.326 138.155 129.293 138.125 129.255 138.102C129.217 138.079 129.175 138.063 129.132 138.057C129.042 138.057 126.82 137.69 125.503 139.016C125.471 139.047 125.446 139.083 125.429 139.124C125.411 139.165 125.403 139.209 125.403 139.253C125.403 139.297 125.411 139.341 125.429 139.382C125.446 139.423 125.471 139.46 125.503 139.491L125.583 139.553Z" fill="#263238"/>
<path d="M137.025 139.679C137.082 139.686 137.139 139.68 137.193 139.659C137.246 139.639 137.293 139.606 137.33 139.562C137.386 139.494 137.412 139.407 137.404 139.32C137.395 139.233 137.353 139.152 137.285 139.096C136.888 138.75 136.415 138.504 135.904 138.377C135.392 138.251 134.859 138.249 134.346 138.371C134.264 138.397 134.195 138.456 134.154 138.533C134.114 138.61 134.106 138.7 134.131 138.783C134.142 138.825 134.162 138.865 134.189 138.899C134.217 138.934 134.25 138.963 134.289 138.984C134.328 139.005 134.37 139.017 134.414 139.021C134.458 139.025 134.502 139.02 134.543 139.007C134.95 138.914 135.373 138.92 135.777 139.024C136.181 139.129 136.553 139.329 136.864 139.607C136.91 139.645 136.966 139.67 137.025 139.679Z" fill="#263238"/>
<path d="M126.981 365.005H133.988L133.54 348.778H126.533L126.981 365.005Z" fill="#FFB573"/>
<path d="M134.4 364.189H126.524C126.39 364.185 126.26 364.233 126.161 364.323C126.062 364.414 126.002 364.539 125.996 364.673L125.413 370.9C125.407 371.061 125.433 371.221 125.491 371.372C125.548 371.522 125.634 371.659 125.745 371.775C125.857 371.891 125.99 371.984 126.138 372.048C126.285 372.111 126.444 372.145 126.605 372.146C129.347 372.101 130.655 371.94 134.122 371.94C136.246 371.94 140.663 372.155 143.602 372.155C146.541 372.155 146.559 369.252 145.313 368.983C139.767 367.8 137.518 366.179 135.592 364.619C135.254 364.346 134.834 364.194 134.4 364.189Z" fill="#171717"/>
<g opacity="0.2">
<path opacity="0.2" d="M133.54 348.778L133.773 357.147H126.766L126.533 348.778H133.54Z" fill="black"/>
</g>
<path d="M129.678 209.8C129.678 209.8 134.051 253.551 135.413 274.894C136.828 297.088 134.973 355.534 134.973 355.534H125.503C125.503 355.534 119.652 289.696 119.652 276.561C115.924 252.754 105.647 228.096 109.142 206.26L129.678 209.8Z" fill="#171717"/>
<path opacity="0.2" d="M114.796 227.119C112.803 227.655 111.027 228.798 109.715 230.39C111.158 239.466 113.595 248.776 115.835 258.094C117.439 247.969 116.48 230.909 114.796 227.119Z" fill="black"/>
<path d="M124.678 355.866H135.798L136.613 352.317L124.159 351.887L124.678 355.866Z" fill="black"/>
<path d="M137.088 365.417C137.688 365.468 138.287 365.317 138.79 364.987C138.903 364.888 138.99 364.762 139.041 364.621C139.093 364.48 139.108 364.329 139.086 364.18C139.081 364.088 139.053 363.999 139.005 363.921C138.956 363.842 138.889 363.778 138.808 363.732C137.912 363.266 135.153 364.691 134.839 364.852C134.809 364.868 134.784 364.893 134.769 364.923C134.755 364.954 134.751 364.989 134.758 365.023C134.763 365.056 134.777 365.088 134.799 365.113C134.822 365.139 134.851 365.157 134.884 365.166C135.609 365.317 136.347 365.401 137.088 365.417ZM138.342 363.965C138.448 363.959 138.553 363.98 138.647 364.028C138.682 364.044 138.711 364.069 138.732 364.1C138.752 364.132 138.763 364.169 138.764 364.207C138.777 364.305 138.767 364.404 138.732 364.497C138.698 364.589 138.641 364.671 138.566 364.736C138.145 365.121 136.989 365.184 135.439 364.933C136.336 364.449 137.309 364.122 138.316 363.965H138.342Z" fill="black"/>
<path d="M134.893 365.166H134.956C135.798 364.79 137.446 363.276 137.321 362.478C137.321 362.29 137.151 362.057 136.694 362.012C136.533 361.998 136.371 362.016 136.217 362.066C136.063 362.115 135.921 362.194 135.798 362.299C134.902 363.034 134.758 364.915 134.749 364.987C134.749 365.016 134.755 365.045 134.767 365.071C134.78 365.098 134.798 365.121 134.821 365.139C134.843 365.153 134.867 365.162 134.893 365.166ZM136.559 362.326H136.658C136.963 362.326 136.98 362.478 136.989 362.514C137.07 362.998 135.95 364.18 135.099 364.7C135.166 363.902 135.479 363.144 135.995 362.532C136.154 362.4 136.353 362.327 136.559 362.326Z" fill="black"/>
<path d="M68.9114 354.002L75.3895 356.672L82.0109 341.852L75.5418 339.182L68.9114 354.002Z" fill="#FFB573"/>
<path d="M75.9002 356.618L69.0548 352.729C68.9387 352.661 68.8012 352.637 68.6689 352.664C68.5365 352.69 68.4186 352.765 68.3379 352.873L64.512 357.81C64.4201 357.939 64.3563 358.086 64.325 358.241C64.2936 358.397 64.2953 358.557 64.3299 358.712C64.3646 358.866 64.4314 359.012 64.5261 359.139C64.6208 359.266 64.7411 359.372 64.8794 359.45C67.2896 360.758 68.5172 361.242 71.5277 362.98C73.3735 364.037 77.1008 366.402 79.6544 367.854C82.208 369.306 83.785 366.859 82.8532 366.062C78.6599 362.317 77.5847 359.835 76.7424 357.577C76.5888 357.165 76.2891 356.824 75.9002 356.618Z" fill="#171717"/>
<g opacity="0.2">
<path opacity="0.2" d="M82.0109 341.861L78.5972 349.495L72.1191 346.825L75.5328 339.182L82.0109 341.861Z" fill="black"/>
</g>
<path d="M121.802 208.438C121.802 208.438 110.351 258.721 108.416 280.01C103.551 299.785 80.64 348.554 80.64 348.554L71.8771 344.97C71.8771 344.97 85.6128 292.868 93.1571 278.514C93.8739 254.716 93.7485 226.044 101.311 204.907L121.802 208.438Z" fill="#171717"/>
<path d="M70.9453 344.952L81.2224 349.19L83.328 346.225L71.9847 341.073L70.9453 344.952Z" fill="black"/>
<path d="M77.5846 358.948C78.081 359.288 78.6774 359.452 79.2781 359.414C79.4249 359.383 79.5617 359.316 79.676 359.219C79.7902 359.122 79.8783 358.998 79.9322 358.858C79.9761 358.779 79.9991 358.689 79.9991 358.598C79.9991 358.507 79.9761 358.418 79.9322 358.339C79.4214 357.496 76.2854 357.362 75.936 357.353C75.902 357.349 75.8675 357.356 75.8382 357.374C75.809 357.392 75.7866 357.419 75.7747 357.451C75.755 357.479 75.7444 357.512 75.7444 357.546C75.7444 357.579 75.755 357.612 75.7747 357.64C76.3369 358.13 76.9427 358.568 77.5846 358.948ZM79.3766 358.303C79.4719 358.352 79.5546 358.423 79.6186 358.509C79.6384 358.541 79.6488 358.578 79.6488 358.616C79.6488 358.654 79.6384 358.691 79.6186 358.724C79.5828 358.814 79.5259 358.895 79.4526 358.959C79.3794 359.023 79.2919 359.068 79.1974 359.091C78.633 359.208 77.6026 358.697 76.375 357.711C77.4048 357.737 78.4228 357.937 79.3856 358.303H79.3766Z" fill="#171717"/>
<path d="M75.8195 357.658C75.8195 357.658 75.8195 357.658 75.8823 357.658C76.7783 357.738 78.9824 357.236 79.2602 356.484C79.3229 356.305 79.3229 356.036 78.9466 355.767C78.8177 355.677 78.6721 355.613 78.5183 355.579C78.3645 355.545 78.2055 355.542 78.0506 355.57C76.9216 355.767 75.8554 357.362 75.8106 357.362C75.7955 357.386 75.7875 357.414 75.7875 357.442C75.7875 357.471 75.7955 357.499 75.8106 357.523C75.8009 357.545 75.7967 357.568 75.7983 357.591C75.7998 357.615 75.8071 357.638 75.8195 357.658ZM78.6688 356.018C78.7022 356.029 78.7328 356.047 78.7584 356.072C79.0003 356.242 78.9645 356.358 78.9466 356.394C78.7763 356.851 77.2173 357.29 76.2586 357.362C76.7083 356.7 77.3537 356.196 78.1043 355.919C78.2982 355.889 78.4965 355.924 78.6688 356.018Z" fill="#171717"/>
<path d="M129.024 141.713L130.377 141.336C130.377 141.336 129.651 142.385 129.024 141.713Z" fill="#263238"/>
<path d="M101.499 203.241L100.352 205.624C100.218 205.803 100.415 206.036 100.737 206.099L129.597 211.081C129.848 211.126 130.081 211.081 130.126 210.875L130.816 208.411C130.861 208.241 130.664 208.052 130.386 208.008L101.992 203.107C101.905 203.085 101.814 203.085 101.728 203.109C101.641 203.133 101.563 203.178 101.499 203.241Z" fill="#171717"/>
<path d="M104.832 207.085L104.07 206.959C103.918 206.959 103.82 206.834 103.846 206.735L104.742 203.537C104.742 203.447 104.913 203.393 105.065 203.42L105.827 203.545C105.979 203.545 106.078 203.671 106.051 203.769L105.155 206.968C105.155 207.058 105.011 207.112 104.832 207.085Z" fill="#121212"/>
<path d="M127.411 210.982L126.659 210.848C126.506 210.848 126.399 210.723 126.426 210.633L127.322 207.434C127.322 207.336 127.492 207.282 127.644 207.309L128.406 207.443C128.558 207.443 128.657 207.569 128.63 207.658L127.734 210.857C127.716 210.956 127.564 211.009 127.411 210.982Z" fill="#121212"/>
<path d="M116.184 209.047L115.423 208.913C115.27 208.913 115.172 208.787 115.199 208.698L116.095 205.49C116.095 205.4 116.265 205.347 116.417 205.373L117.179 205.499C117.322 205.499 117.43 205.624 117.403 205.723L116.507 208.922C116.48 209.011 116.337 209.065 116.184 209.047Z" fill="#121212"/>
<path d="M98.4346 208.706L103.685 214.154L96.5799 214.629C96.5799 214.629 94.1517 210.839 95.5674 208.294L98.4346 208.706Z" fill="#FFB573"/>
<path d="M105.961 171.666C103.936 174.891 101.839 178.099 99.7428 181.28C97.6461 184.461 95.5047 187.686 93.5872 190.769L93.2826 191.252C93.2826 191.252 93.2826 191.306 93.2109 191.369C93.1373 191.574 93.0921 191.788 93.0765 192.005C93.0198 192.714 93.0529 193.428 93.1751 194.129C93.4756 195.841 93.9192 197.526 94.5012 199.164C95.0746 200.884 95.7466 202.614 96.4903 204.325C97.234 206.036 98.0045 207.775 98.7841 209.45L95.7735 211.332C93.369 208.174 91.269 204.796 89.5015 201.243C88.5603 199.354 87.8099 197.376 87.2615 195.338C86.9519 194.168 86.7894 192.964 86.7776 191.754C86.7805 191.014 86.8737 190.277 87.0554 189.559C87.1718 189.141 87.3216 188.734 87.5034 188.34L87.7185 187.91L87.8976 187.561C88.8474 185.769 89.7972 184.102 90.7828 182.418C91.7684 180.733 92.754 179.103 93.7575 177.463C95.7645 174.175 97.8074 170.94 99.9489 167.741L105.961 171.666Z" fill="#FFB573"/>
<path d="M107.861 162.347C100.979 161.165 95.8093 171.782 95.8093 171.782L103.873 181.71C103.873 181.71 109.043 175.931 110.19 172.23C111.409 168.378 111.212 162.93 107.861 162.347Z" fill="white"/>
<path d="M104.294 220.014L98.3181 220.086L96.5799 214.629L103.685 214.154L104.294 220.014Z" fill="#FFB573"/>
<path d="M337.088 88.499L340.591 88.5026C343.323 88.5054 346.027 89.0464 348.549 90.0946C351.071 91.1429 353.362 92.6778 355.291 94.6117C357.22 96.5457 358.749 98.8407 359.791 101.366C360.833 103.891 361.367 106.596 361.362 109.328V240.891V240.895C361.357 246.402 359.167 251.682 355.272 255.576C351.378 259.47 346.098 261.66 340.591 261.666H340.588H296.773C294.137 261.666 291.609 262.713 289.745 264.577C287.88 266.441 286.833 268.97 286.833 271.606V284.347V291.953L281.056 287.005L254.259 264.051L337.088 88.499ZM337.088 88.499V88.5474M337.088 88.499V88.5474M337.088 88.5474L107.413 88.5474L107.409 88.5474C101.902 88.5531 96.6218 90.7433 92.7277 94.6375C88.8336 98.5316 86.6433 103.812 86.6376 109.319V109.322L86.6376 240.891L86.6376 240.895C86.6433 246.402 88.8336 251.682 92.7277 255.576L95.2026 253.101L92.7277 255.576C96.6218 259.47 101.902 261.66 107.409 261.666H107.413H247.789H247.791C250.162 261.664 252.455 262.51 254.257 264.05L337.088 88.5474ZM250.065 268.947L249.083 268.106H247.789L107.423 268.106C107.421 268.106 107.419 268.106 107.418 268.106C100.205 268.084 93.2948 265.209 88.1948 260.109C83.0948 255.009 80.2199 248.098 80.1976 240.886V109.328C80.2199 102.115 83.0948 95.2046 88.1948 90.1046C93.2948 85.0046 100.205 82.1297 107.418 82.1074H340.582C347.795 82.1297 354.705 85.0046 359.805 90.1046C364.906 95.2057 367.781 102.118 367.802 109.332V240.881C367.781 248.095 364.906 255.008 359.805 260.109C354.705 265.209 347.795 268.084 340.582 268.106C340.581 268.106 340.579 268.106 340.577 268.106L296.773 268.106H293.273V271.606V305.951L250.065 268.947Z" stroke="#3577F5" stroke-width="7"/>
<path d="M214.019 367.675C214.843 367.675 215.622 367.567 215.873 367.2C215.942 367.103 215.979 366.987 215.979 366.869C215.979 366.75 215.942 366.634 215.873 366.537C215.818 366.449 215.747 366.373 215.662 366.313C215.577 366.253 215.482 366.21 215.38 366.188C214.314 365.901 212.137 367.164 212.038 367.218C212.012 367.234 211.991 367.259 211.98 367.288C211.969 367.317 211.967 367.349 211.976 367.379C211.981 367.41 211.997 367.437 212.019 367.458C212.042 367.479 212.07 367.492 212.101 367.496C212.733 367.615 213.375 367.675 214.019 367.675ZM214.986 366.447C215.085 366.438 215.184 366.438 215.282 366.447C215.404 366.479 215.51 366.555 215.578 366.662C215.694 366.851 215.658 366.94 215.622 366.994C215.345 367.406 213.732 367.415 212.54 367.254C213.297 366.836 214.128 366.572 214.986 366.474V366.447Z" fill="black"/>
<path d="M212.092 367.505H212.155C212.908 367.164 214.377 365.784 214.234 365.067C214.234 364.897 214.072 364.682 213.66 364.646C213.512 364.628 213.361 364.641 213.217 364.684C213.074 364.728 212.941 364.8 212.827 364.897C212.047 365.569 211.931 367.281 211.931 367.352C211.932 367.38 211.938 367.407 211.951 367.432C211.963 367.457 211.981 367.478 212.003 367.496C212.031 367.508 212.062 367.511 212.092 367.505ZM213.544 364.924H213.642C213.911 364.924 213.929 365.058 213.938 365.094C214.028 365.524 213.042 366.609 212.262 367.083C212.302 366.364 212.572 365.676 213.033 365.121C213.172 364.993 213.355 364.922 213.544 364.924Z" fill="black"/>
<path d="M205.076 367.352H211.447L211.528 352.604H205.157L205.076 367.352Z" fill="#CE7A63"/>
<path d="M211.384 366.618H204.422C204.299 366.616 204.179 366.658 204.083 366.737C203.988 366.816 203.924 366.926 203.903 367.048L202.854 372.746C202.829 372.886 202.836 373.03 202.872 373.167C202.909 373.304 202.976 373.431 203.067 373.54C203.159 373.649 203.273 373.736 203.402 373.795C203.531 373.855 203.671 373.885 203.813 373.884C206.322 373.839 209.942 373.687 213.096 373.687C216.778 373.687 217.235 373.893 221.563 373.893C224.179 373.893 224.797 371.25 223.695 371.008C218.678 369.915 217.343 369.798 212.943 367.146C212.481 366.832 211.942 366.649 211.384 366.618Z" fill="#171717"/>
<path opacity="0.2" d="M211.528 352.604L211.492 360.211H205.112L205.157 352.604H211.528Z" fill="black"/>
<path d="M162.911 365.48C162.959 364.804 162.751 364.136 162.328 363.607C162.232 363.537 162.116 363.5 161.997 363.5C161.878 363.5 161.762 363.537 161.665 363.607C161.58 363.658 161.507 363.727 161.452 363.809C161.396 363.891 161.359 363.984 161.343 364.082C161.11 365.139 162.499 367.37 162.561 367.469C162.578 367.495 162.603 367.516 162.631 367.529C162.66 367.541 162.692 367.546 162.723 367.541C162.752 367.537 162.78 367.523 162.801 367.502C162.822 367.481 162.835 367.454 162.839 367.424C162.915 366.779 162.939 366.129 162.911 365.48ZM161.62 364.458C161.607 364.363 161.607 364.267 161.62 364.172C161.628 364.112 161.649 364.054 161.682 364.003C161.714 363.952 161.757 363.908 161.809 363.876C161.997 363.768 162.086 363.813 162.14 363.876C162.57 364.172 162.669 365.784 162.57 366.967C162.096 366.2 161.773 365.348 161.62 364.458Z" fill="black"/>
<path d="M162.839 367.37C162.844 367.35 162.844 367.328 162.839 367.308C162.454 366.537 160.993 365.005 160.277 365.112C160.106 365.112 159.9 365.256 159.882 365.677C159.873 365.983 159.982 366.282 160.187 366.51C160.903 367.089 161.778 367.439 162.696 367.514C162.722 367.517 162.748 367.514 162.772 367.502C162.796 367.491 162.816 367.473 162.83 367.451C162.842 367.426 162.845 367.397 162.839 367.37ZM160.151 365.793V365.704C160.151 365.435 160.268 365.417 160.303 365.417C160.733 365.345 161.871 366.385 162.391 367.209C161.649 367.134 160.946 366.837 160.375 366.358C160.251 366.209 160.179 366.023 160.169 365.829L160.151 365.793Z" fill="black"/>
<path d="M162.74 367.442L168.986 367.881L171.557 353.016L165.321 352.577L162.74 367.442Z" fill="#CE7A63"/>
<path d="M162.678 366.017L169.568 365.408C169.697 365.397 169.825 365.428 169.934 365.498C170.043 365.568 170.125 365.672 170.168 365.793L172.265 371.322C172.314 371.449 172.333 371.586 172.32 371.722C172.308 371.858 172.265 371.99 172.194 372.106C172.123 372.223 172.026 372.322 171.911 372.396C171.796 372.469 171.666 372.516 171.53 372.531C169.039 372.71 165.42 372.881 162.293 373.158C158.646 373.481 161.02 373.472 156.737 373.857C154.148 374.09 153.037 371.519 154.049 371.169C158.816 369.646 159.631 368.598 161.217 366.636C161.407 366.44 161.634 366.284 161.885 366.178C162.136 366.072 162.405 366.017 162.678 366.017Z" fill="#171717"/>
<path opacity="0.2" d="M171.557 353.025L170.231 360.686L163.986 360.247L165.312 352.577L171.557 353.025Z" fill="black"/>
<path d="M213.821 205.329C213.821 205.329 202.173 254.259 197.765 272.421C192.9 292.303 173.824 358.285 173.824 358.285L162.445 355.821C162.445 355.821 174.81 299.131 179.675 271.391C183.411 250.093 191.852 205.329 191.852 205.329H213.821Z" fill="#171717"/>
<path d="M175.616 354.826L174.774 359.208L161.181 357.756L160.993 353.742L175.616 354.826Z" fill="black"/>
<path opacity="0.3" d="M207.11 228.006C199.046 229.073 197.586 257.332 197.398 273.908L197.765 272.412C200.184 262.502 204.745 243.391 208.401 228.096C207.983 227.97 207.542 227.94 207.11 228.006Z" fill="black"/>
<path d="M225.908 205.329C225.908 205.329 222.799 252.978 221.428 272.376C219.986 292.554 214.26 358.733 214.26 358.733H203.392C203.392 358.733 202.254 293.764 201.94 273.917C201.591 252.288 203.5 205.329 203.5 205.329H225.908Z" fill="#171717"/>
<path d="M215.721 354.441C215.766 354.441 215.282 358.921 215.282 358.921H202.156L201.645 354.916L215.721 354.441Z" fill="black"/>
<path d="M195.776 159.498C194.038 163.02 192.273 166.72 190.642 170.358C189.011 173.996 187.407 177.678 186.162 181.352L185.678 182.723L185.248 184.084L185.051 184.703C185.067 184.557 185.067 184.41 185.051 184.264C184.99 183.66 184.702 183.103 184.245 182.705C183.895 182.472 183.886 182.57 184.021 182.642C184.27 182.757 184.531 182.844 184.8 182.902C185.603 183.071 186.418 183.182 187.237 183.233C191.159 183.354 195.085 183.237 198.993 182.884H199.1C199.679 182.84 200.253 183.007 200.719 183.352C201.185 183.698 201.51 184.2 201.635 184.767C201.76 185.333 201.677 185.926 201.401 186.436C201.124 186.946 200.673 187.339 200.131 187.543C196.062 189.184 191.797 190.286 187.443 190.822C186.193 190.951 184.933 190.963 183.68 190.858C182.923 190.797 182.173 190.665 181.44 190.464C180.364 190.184 179.365 189.663 178.519 188.941C177.907 188.417 177.405 187.777 177.041 187.059C176.674 186.314 176.455 185.504 176.396 184.676C176.358 184.015 176.41 183.352 176.548 182.705L176.745 181.809L177.121 180.187L177.551 178.601C178.729 174.479 180.15 170.431 181.807 166.478C183.456 162.554 185.203 158.781 187.237 154.964C187.834 153.848 188.847 153.01 190.056 152.632C191.264 152.255 192.573 152.367 193.7 152.945C194.827 153.523 195.682 154.521 196.08 155.723C196.479 156.926 196.389 158.236 195.83 159.373L195.776 159.498Z" fill="#CF7A64"/>
<path d="M199.172 183.126L203.132 181.567L202.935 188.932C201.337 188.82 199.794 188.298 198.455 187.418C198.127 187.18 197.879 186.847 197.746 186.464C197.613 186.081 197.601 185.666 197.711 185.276L197.935 184.47C198.02 184.164 198.176 183.882 198.391 183.648C198.606 183.414 198.874 183.235 199.172 183.126Z" fill="#CE7A63"/>
<path d="M209.655 180.733L208.23 187.113L202.935 188.923L203.132 181.567L209.655 180.733Z" fill="#CE7A63"/>
<path d="M217.029 126.543C217.137 127.045 217.486 127.395 217.809 127.332C218.131 127.269 218.328 126.803 218.221 126.301C218.113 125.8 217.773 125.405 217.441 125.504C217.11 125.603 216.931 126.033 217.029 126.543Z" fill="#263238"/>
<path d="M217.432 127.403C218.346 128.822 219.453 130.107 220.721 131.22C220.426 131.536 220.065 131.784 219.664 131.947C219.263 132.109 218.832 132.183 218.4 132.161L217.432 127.403Z" fill="#BA4D3C"/>
<path d="M214.619 124.115C214.543 124.114 214.469 124.086 214.413 124.035C214.385 124.007 214.363 123.974 214.348 123.938C214.332 123.902 214.325 123.863 214.325 123.824C214.325 123.785 214.332 123.746 214.348 123.71C214.363 123.674 214.385 123.641 214.413 123.613C214.73 123.253 215.129 122.974 215.577 122.8C216.024 122.625 216.507 122.56 216.984 122.61C217.062 122.625 217.131 122.67 217.176 122.736C217.221 122.801 217.239 122.881 217.226 122.959C217.221 122.998 217.208 123.036 217.187 123.07C217.167 123.104 217.141 123.133 217.109 123.156C217.077 123.18 217.041 123.197 217.003 123.206C216.964 123.215 216.925 123.217 216.886 123.21C216.508 123.174 216.126 123.228 215.774 123.37C215.421 123.512 215.108 123.737 214.861 124.026C214.829 124.057 214.791 124.081 214.749 124.096C214.708 124.112 214.663 124.118 214.619 124.115Z" fill="#263238"/>
<path d="M203.052 135.7C203.948 140.36 204.512 146.82 201.26 149.929C201.26 149.929 202.541 154.651 211.196 154.651C220.712 154.651 215.775 150.502 215.775 150.502C211.814 149.275 211.85 144.768 212.755 141.148L203.052 135.7Z" fill="#CE7A63"/>
<path d="M189.853 149.947C183.877 151.318 179.944 167.428 179.944 167.428L189.952 174.918C193.657 172.259 196.283 168.357 197.353 163.924C199.36 155.914 195.955 148.549 189.853 149.947Z" fill="white"/>
<path opacity="0.2" d="M194.97 161.156C191.559 164.787 189.573 169.528 189.379 174.506L189.907 174.918C193.609 172.256 196.234 168.356 197.308 163.925C197.425 163.45 197.532 162.966 197.622 162.5L194.97 161.156Z" fill="black"/>
<path d="M227.584 156.335C228.874 163.154 230.819 179.336 227.181 206.843C227.147 207.068 227.042 207.277 226.88 207.438C226.719 207.6 226.51 207.705 226.285 207.739C223.163 208.108 220.006 208.065 216.895 207.613C210.623 206.717 205.417 207.103 199.333 207.613C196.65 207.822 193.957 207.861 191.269 207.73C191.125 207.723 190.983 207.685 190.854 207.621C190.725 207.556 190.61 207.465 190.518 207.354C190.425 207.243 190.357 207.114 190.316 206.975C190.276 206.836 190.265 206.691 190.284 206.547C191.224 199.469 194.638 173.153 189.898 149.974C193.663 149.252 197.47 148.773 201.295 148.54C206.121 148.258 210.958 148.258 215.784 148.54C217.379 148.684 218.947 148.917 220.344 149.158C222.133 149.487 223.782 150.347 225.074 151.628C226.365 152.908 227.24 154.549 227.584 156.335Z" fill="white"/>
<path d="M200.023 128.882C201.654 134.993 202.308 138.648 206.071 141.184C211.743 145.01 218.794 140.619 219.018 134.15C219.215 128.326 216.509 119.322 209.96 118.085C208.516 117.805 207.024 117.9 205.627 118.359C204.23 118.819 202.974 119.628 201.978 120.71C200.982 121.792 200.28 123.111 199.937 124.542C199.595 125.972 199.625 127.466 200.023 128.882Z" fill="#CE7A63"/>
<path d="M214.314 130.755C216.223 134.966 215.622 138.819 213.248 140.611C210.56 142.653 203.025 142.967 200.166 140.073C201.251 138.989 201.851 137.636 200.462 135.709C199.073 133.783 193.975 130.79 193.877 126.678C193.778 122.565 196.502 122.099 196.341 122.099C193.93 121.024 194.083 117.153 196.735 115.021C199.548 112.754 204.118 112.127 209.557 113.229C212.988 113.91 216.357 113.847 215.766 111.679C219.807 113.999 217.8 122.592 213.893 123.721C214.511 125.271 217.217 127.735 217.217 127.735C217.217 127.735 216.554 130.298 214.314 130.755Z" fill="#383838"/>
<path d="M196.735 121.266C196.735 121.266 195.265 122.162 191.404 121.033C192.443 122.959 196.305 123.031 197.236 122.592C198.168 122.153 196.735 121.266 196.735 121.266Z" fill="#383838"/>
<path d="M211.859 129.213C212.211 130.653 213.03 131.936 214.189 132.86C215.721 134.07 216.877 132.959 216.877 131.185C216.814 129.59 215.981 127.045 214.243 126.525C212.504 126.006 211.456 127.475 211.859 129.213Z" fill="#CE7A63"/>
<path d="M227.826 155.403C228.623 157.258 229.376 159.131 230.147 160.994C230.917 162.858 231.67 164.731 232.413 166.603L236.84 177.794C237.583 179.64 238.327 181.477 239.08 183.242L239.653 184.514L239.796 184.828V184.9C239.796 184.9 239.796 184.9 239.743 184.81C239.615 184.586 239.468 184.373 239.304 184.174C238.97 183.807 238.572 183.503 238.13 183.278C237.806 183.096 237.455 182.966 237.091 182.893C236.867 182.843 236.639 182.813 236.41 182.803C236.269 182.794 236.129 182.794 235.988 182.803C235.849 182.812 235.711 182.836 235.576 182.875C235.501 182.889 235.428 182.916 235.361 182.955C235.63 182.904 235.89 182.814 236.132 182.687C236.49 182.525 236.893 182.328 237.288 182.113C238.918 181.217 240.639 180.241 242.35 179.246C244.061 178.251 245.836 177.248 247.61 176.298H247.663C248.161 176.03 248.736 175.944 249.29 176.054C249.845 176.164 250.343 176.465 250.7 176.903C251.056 177.341 251.249 177.89 251.244 178.455C251.239 179.02 251.038 179.566 250.674 179.999C247.994 183.25 244.992 186.222 241.714 188.869C241.275 189.21 240.818 189.55 240.307 189.899C239.699 190.326 239.051 190.692 238.372 190.993C238.081 191.117 237.782 191.218 237.476 191.297C237.22 191.364 236.96 191.409 236.696 191.432C236.49 191.445 236.284 191.445 236.078 191.432C235.777 191.426 235.476 191.39 235.182 191.324C234.76 191.23 234.354 191.08 233.972 190.876C233.47 190.608 233.023 190.246 232.655 189.81C232.469 189.588 232.302 189.351 232.154 189.102L232.073 188.95L232.019 188.86L231.822 188.493C231.544 188 231.311 187.534 231.052 187.05C230.075 185.169 229.188 183.314 228.364 181.45C226.634 177.732 225.012 174.022 223.427 170.295C222.638 168.431 221.862 166.562 221.097 164.686C220.335 162.813 219.574 160.941 218.848 159.059C218.364 157.871 218.373 156.539 218.871 155.357C219.369 154.175 220.316 153.239 221.505 152.756C222.693 152.272 224.024 152.28 225.207 152.779C226.389 153.277 227.324 154.224 227.808 155.412L227.826 155.403Z" fill="#CF7A64"/>
<path d="M251.211 172.589C250.067 173.244 249.064 174.119 248.258 175.163C247.452 176.207 246.861 177.4 246.516 178.673L248.73 181.513L253.568 180.017C253.951 179.896 254.282 179.65 254.509 179.318L256.991 175.653C257.184 175.296 257.271 174.892 257.243 174.487C257.214 174.083 257.071 173.694 256.829 173.368L254.204 169.838L251.211 172.589Z" fill="#CE7A63"/>
<path d="M214.673 159.875C215.228 166.98 223.05 176.262 223.05 176.262L234.08 167.992C234.08 167.992 232.404 158.002 226.688 152.581C219.619 145.888 214.144 153.226 214.673 159.875Z" fill="white"/>
<path d="M217.352 148.513C216.33 145.521 204.584 145.001 197.505 145.718C190.427 146.434 193.993 151.945 195.185 152.715C191.977 153.907 193.688 159.57 199.665 162.347C205.641 165.125 218.624 152.124 217.352 148.513Z" fill="#383838"/>
</svg>
