<svg width="24" height="25" viewBox="0 0 24 25" fill="none" xmlns="http://www.w3.org/2000/svg">
<path d="M19.9661 1.7666H4.46615C3.03941 1.7666 1.88281 2.9232 1.88281 4.34994V19.8499C1.88281 21.2767 3.03941 22.4333 4.46615 22.4333H19.9661C21.3929 22.4333 22.5495 21.2767 22.5495 19.8499V4.34994C22.5495 2.9232 21.3929 1.7666 19.9661 1.7666Z" stroke="white" stroke-width="1.75" stroke-linecap="round" stroke-linejoin="round"/>
<path d="M18.8182 6.8709C18.1577 7.19451 17.5105 7.32594 16.8368 7.52473C16.0965 6.68927 14.9988 6.64304 13.9441 7.03799C12.8894 7.43293 12.1986 8.39849 12.2138 9.50605V10.1665C10.0706 10.2213 8.16197 9.24518 6.93025 7.52473C6.93025 7.52473 4.1683 12.4338 9.57201 14.7896C8.33567 15.6131 7.10263 16.1686 5.60938 16.1104C7.79411 17.3012 10.175 17.7107 12.2362 17.1123C14.6006 16.4255 16.5436 14.6535 17.2892 11.9992C17.5117 11.1919 17.6221 10.3579 17.6175 9.52058C17.6162 9.35613 18.6148 7.68984 18.8182 6.87024V6.8709Z" stroke="white" stroke-linecap="round" stroke-linejoin="round"/>
</svg>
