<svg width="100" height="100" viewBox="0 0 100 100" fill="none" xmlns="http://www.w3.org/2000/svg">
<rect width="100" height="100" rx="10" fill="#48C153" fill-opacity="0.2"/>
<path d="M71.3929 81.2604H28.9613C28.7063 81.2604 28.4618 81.1592 28.2816 80.9789C28.1013 80.7986 28 80.5541 28 80.2991V51.2079L48.329 35.8272C48.6921 35.5514 49.1341 35.3993 49.59 35.3933C50.0459 35.3872 50.4917 35.5275 50.862 35.7935L72.3542 51.2079V80.3064C72.3523 80.5601 72.2502 80.8027 72.0701 80.9814C71.8901 81.1602 71.6466 81.2604 71.3929 81.2604Z" fill="#48C153"/>
<path opacity="0.2" d="M71.3929 81.2604H28.9613C28.7063 81.2604 28.4618 81.1592 28.2816 80.9789C28.1013 80.7986 28 80.5541 28 80.2991V51.2079L48.329 35.8272C48.6921 35.5514 49.1341 35.3993 49.59 35.3933C50.0459 35.3872 50.4917 35.5275 50.862 35.7935L72.3542 51.2079V80.3064C72.3523 80.5601 72.2502 80.8027 72.0701 80.9814C71.8901 81.1602 71.6466 81.2604 71.3929 81.2604Z" fill="black"/>
<path d="M63.8804 67.5621H33.8399C34.2092 67.3217 34.5125 66.9929 34.7224 66.6055C34.9322 66.2181 35.0419 65.7844 35.0415 65.3439V20.247C35.042 19.7738 35.178 19.3107 35.4336 18.9124C35.6891 18.5142 36.0535 18.1975 36.4835 18H66.524C66.094 18.1975 65.7297 18.5142 65.4741 18.9124C65.2185 19.3107 65.0825 19.7738 65.082 20.247V65.3439C65.0825 65.7844 64.9728 66.2181 64.7629 66.6055C64.553 66.9929 64.2497 67.3217 63.8804 67.5621Z" fill="#48C153"/>
<path opacity="0.7" d="M63.8804 67.5621H33.8399C34.2092 67.3217 34.5125 66.9929 34.7224 66.6055C34.9322 66.2181 35.0419 65.7844 35.0415 65.3439V20.247C35.042 19.7738 35.178 19.3107 35.4336 18.9124C35.6891 18.5142 36.0535 18.1975 36.4835 18H66.524C66.094 18.1975 65.7297 18.5142 65.4741 18.9124C65.2185 19.3107 65.0825 19.7738 65.082 20.247V65.3439C65.0825 65.7844 64.9728 66.2181 64.7629 66.6055C64.553 66.9929 64.2497 67.3217 63.8804 67.5621Z" fill="white"/>
<path d="M63.0008 31.4941C62.5754 31.2826 61.2993 31.5133 60.9653 31.5518C60.6312 31.5902 60.4726 31.571 60.1674 31.607C59.8622 31.6431 59.8309 31.607 59.7781 31.4941C59.7252 31.3811 59.1917 31.4556 59.0571 31.4052C58.9225 31.3547 57.7233 31.6094 56.44 31.607C55.1566 31.6046 56.017 31.6287 55.8319 31.4052C55.6469 31.1817 55.0293 31.571 54.8947 31.595C54.7601 31.6191 54.4429 31.6287 54.3948 31.398C54.3467 31.1672 54.0151 31.6383 53.6906 31.5902C53.3662 31.5421 54.068 31.0351 53.6234 31.2634C53.1788 31.4917 52.155 31.5902 52.155 31.5902L52.4794 31.8305C51.2538 31.8498 50.1867 31.869 49.9728 31.8882C49.7589 31.9074 49.6268 31.9074 49.3864 31.5205C49.1461 31.1336 49.1726 31.619 48.2665 31.8498C47.3605 32.0805 47.1466 32.0228 46.7188 31.8113C46.2911 31.5998 46.0796 31.8305 45.7575 31.869C45.4355 31.9074 45.2649 31.8882 44.9597 31.9243C44.6545 31.9603 44.6256 31.9243 44.5704 31.8113C44.5151 31.6984 43.984 31.7729 43.8494 31.7224C43.7148 31.6719 42.5156 31.9267 41.2322 31.9243C39.9489 31.9219 40.8093 31.9459 40.6242 31.7224C40.4392 31.4989 39.8215 31.8882 39.6894 31.9122C39.5572 31.9363 39.2352 31.9459 39.1895 31.7152C39.1438 31.4845 38.8074 31.9555 38.4853 31.9074C38.1633 31.8594 38.8626 31.3523 38.4156 31.5806C37.9686 31.8089 36.9473 31.9074 36.9473 31.9074" stroke="#263238" stroke-width="0.2" stroke-linecap="round" stroke-linejoin="round"/>
<path d="M44.8779 22.5035C44.7434 22.453 43.5441 22.7077 42.2608 22.7053C40.9775 22.7029 41.8378 22.727 41.6552 22.5035C41.4725 22.28 40.8501 22.6693 40.7179 22.6933C40.5857 22.7173 40.2637 22.727 40.2181 22.4962C40.1724 22.2655 39.8383 22.7366 39.5139 22.6885C39.1895 22.6404 39.8912 22.1334 39.4466 22.3641C39.002 22.5948 37.9758 22.6885 37.9758 22.6885" stroke="#263238" stroke-width="0.2" stroke-linecap="round" stroke-linejoin="round"/>
<path d="M63.0008 56.2836C62.8686 56.2331 61.6694 56.4879 60.3861 56.4855C59.1028 56.4831 59.9607 56.5071 59.7781 56.2836C59.5954 56.0601 58.9754 56.4494 58.8408 56.4734C58.7062 56.4975 58.389 56.5071 58.3409 56.2764C58.2929 56.0457 57.9612 56.5167 57.6368 56.4686C57.3123 56.4206 58.0141 55.9135 57.5695 56.1418C57.1249 56.3701 56.0987 56.4686 56.0987 56.4686" stroke="#263238" stroke-width="0.2" stroke-linecap="round" stroke-linejoin="round"/>
<path d="M36.9208 34.2437C37.0064 34.2074 37.0983 34.1887 37.1912 34.1887C37.2841 34.1887 37.376 34.2074 37.4616 34.2437L37.6779 34.0899C37.8028 34.2413 38.0407 34.2004 38.2138 34.1139C38.3708 33.999 38.5578 33.9323 38.7521 33.9217C38.7401 34.0034 38.7257 34.0875 38.7137 34.162C38.9697 34.1282 39.2196 34.0587 39.4563 33.9553C39.4384 33.9901 39.435 34.0305 39.4467 34.0678C39.4583 34.1051 39.4842 34.1364 39.5187 34.1548C39.5883 34.1878 39.6661 34.1995 39.7422 34.1884L41.9628 34.1091L42.3546 34.0947C42.3764 34.1024 42.3945 34.1181 42.4052 34.1386C42.4159 34.1591 42.4184 34.1829 42.4122 34.2052C42.6978 34.1556 42.959 34.0128 43.1548 33.7991C43.143 33.8812 43.1624 33.9647 43.2091 34.0332C43.2558 34.1017 43.3265 34.1502 43.4072 34.1692C43.5726 34.2008 43.7439 34.17 43.8878 34.0827C43.9512 34.0437 44.0213 34.0168 44.0945 34.0034C44.1317 33.999 44.1692 34.008 44.2005 34.0286C44.2317 34.0493 44.2546 34.0804 44.2651 34.1163C44.4021 34.0538 44.5487 34.162 44.6953 34.2004C44.7862 34.2193 44.8792 34.225 44.9717 34.2173L47.9709 34.0947L48.7039 34.2365C48.7039 34.2365 49.7301 34.1403 50.1747 33.912C50.6193 33.6837 49.92 34.1788 50.242 34.2365C50.564 34.2942 50.9005 33.8135 50.9462 34.0442C50.9918 34.2749 51.3139 34.2653 51.446 34.2413C51.5782 34.2173 52.2006 33.8303 52.3833 34.0538C52.5659 34.2773 51.708 34.2509 52.9913 34.2533C54.2746 34.2557 55.4739 34.013 55.606 34.0538C55.7382 34.0947 56.2741 34.0274 56.327 34.1403C56.3799 34.2533 56.4087 34.2893 56.7163 34.2533C57.024 34.2173 57.1802 34.2365 57.5142 34.198C57.8483 34.1596 58.0597 33.9313 58.4875 34.1403C58.9153 34.3494 59.1268 34.4095 60.0352 34.1788C60.9436 33.9481 60.9148 33.4578 61.1551 33.852C61.3954 34.2461 62.7989 34.2365 63.0104 34.2173" stroke="#263238" stroke-width="0.2" stroke-linecap="round" stroke-linejoin="round"/>
<path d="M62.9624 29.528C62.871 29.528 63.0537 29.528 62.9624 29.5112C62.8182 29.4728 63.0993 29.3646 62.9624 29.4271C62.9503 29.3526 61.6069 29.3093 61.5324 29.3165C61.4592 29.3285 61.389 29.3546 61.3257 29.3934C61.1818 29.4808 61.0105 29.5116 60.8451 29.48C60.7666 29.4585 60.6988 29.4089 60.6545 29.3407C60.6101 29.2724 60.5925 29.1903 60.6048 29.1099C60.4085 29.3234 60.1477 29.4669 59.8622 29.5184C59.8685 29.4958 59.866 29.4716 59.8553 29.4507C59.8447 29.4298 59.8265 29.4136 59.8045 29.4055L59.4128 29.4199L57.1922 29.5016C57.1158 29.5106 57.0384 29.4981 56.9687 29.4655C56.9342 29.4471 56.9083 29.4159 56.8966 29.3786C56.8849 29.3413 56.8883 29.3009 56.9062 29.2661C56.6696 29.3694 56.4196 29.439 56.1636 29.4728C56.178 29.3886 56.19 29.3045 56.202 29.2324C56.008 29.2442 55.8213 29.3109 55.6637 29.4247C55.4907 29.5112 55.2528 29.5521 55.1278 29.4007L54.9115 29.5569C54.8261 29.52 54.7341 29.501 54.6411 29.501C54.5482 29.501 54.4562 29.52 54.3708 29.5569L52.2079 29.3454C52.2079 29.3454 51.2081 29.367 51.0495 29.2781C50.8909 29.1892 50.3285 29.5016 50.3285 29.5016H49.6075L48.6871 29.5352V29.3598C48.3316 29.4346 47.9708 29.482 47.608 29.5016C47.0889 29.5208 46.9688 29.5953 46.9448 29.3598C46.9207 29.1243 46.2478 29.4247 45.7143 29.5352C45.1808 29.6458 45.2889 29.6242 45.1279 29.3598C44.9669 29.0954 44.7674 29.3959 44.4886 29.504C44.3437 29.5682 44.1869 29.6013 44.0284 29.6013C43.8699 29.6013 43.7131 29.5682 43.5682 29.504C43.3279 29.3574 42.2873 29.5953 41.8643 29.6001C41.4413 29.6049 41.8475 29.4824 41.7586 29.2781C41.6696 29.0738 41.3668 29.6242 41.0808 29.6001C40.7949 29.5761 41.3212 29.0498 40.9198 29.0906C40.5397 29.1788 40.1768 29.329 39.8456 29.5352" stroke="#263238" stroke-width="0.2" stroke-linecap="round" stroke-linejoin="round"/>
<path d="M61.1624 36.3802C61.0037 36.3802 60.7875 36.2576 60.7995 35.9115C60.6913 35.8058 60.5736 35.9956 60.4702 36.1278C60.3669 36.26 60.1939 36.2744 60.165 36.0197C60.1325 36.0551 60.0924 36.0826 60.0477 36.1002C60.003 36.1178 59.9548 36.1251 59.9069 36.1214C59.859 36.1177 59.8126 36.1031 59.7711 36.0789C59.7296 36.0546 59.6942 36.0212 59.6675 35.9812C59.6409 36.0792 59.5785 36.1637 59.4926 36.218C59.4068 36.2723 59.3037 36.2924 59.2037 36.2744L54.9596 36.0966C54.8537 36.1022 54.7489 36.0726 54.6616 36.0125C54.5991 35.9644 54.5438 35.8875 54.4789 35.8611C54.3059 35.7842 54.1497 36.0822 53.9983 36.26C53.8469 36.4378 53.5849 36.4018 53.5585 36.0197C53.3783 36.3681 53.1067 36.4691 52.8832 36.26C52.7823 36.3441 52.6741 36.4282 52.5684 36.3898C52.4972 36.3337 52.4425 36.2594 52.4099 36.1748C52.3774 36.0903 52.3682 35.9985 52.3833 35.9091C52.3652 36.0478 52.3114 36.1794 52.2272 36.2911C52.1429 36.4027 52.0311 36.4905 51.9027 36.546C51.7011 36.5755 51.4955 36.5365 51.3187 36.4354L49.6148 36.5027C49.0503 36.5486 48.4821 36.5023 47.9325 36.3657C47.9469 36.4835 47.7667 36.5292 47.6345 36.5316L46.5146 36.5508C46.4332 36.5567 46.3515 36.546 46.2743 36.5195C46.237 36.5074 46.2053 36.4823 46.1851 36.4488C46.1648 36.4152 46.1572 36.3755 46.1637 36.3369C45.9334 36.3969 45.6922 36.4018 45.4596 36.3513C45.3274 36.2816 45.1832 36.4138 45.0462 36.4739C44.9208 36.5188 44.7872 36.536 44.6545 36.5244L42.7199 36.4931C42.5468 36.4931 42.3426 36.4739 42.2512 36.3417C41.9667 36.4488 41.7067 36.6122 41.487 36.8224C41.5255 36.6848 41.5255 36.5393 41.487 36.4018C41.2851 36.4748 41.0973 36.5821 40.9319 36.719C40.9102 36.4571 40.8862 36.1951 40.8622 35.9356C40.4777 35.9788 40.2109 36.3441 39.824 36.3826C39.6066 36.3634 39.3883 36.3586 39.1703 36.3681C38.9997 36.4066 38.793 36.5268 38.6728 36.409C38.6392 36.3778 38.6224 36.3297 38.5791 36.3081C38.5506 36.299 38.5206 36.2959 38.4909 36.2988C38.4611 36.3016 38.4323 36.3105 38.4061 36.3249C37.9103 36.5062 37.3708 36.5305 36.8608 36.3946" stroke="#263238" stroke-width="0.2" stroke-linecap="round" stroke-linejoin="round"/>
<path d="M36.6661 41.3069C36.6661 41.3069 37.4856 41.2108 37.8413 40.9801C38.1969 40.7494 37.637 41.2493 37.8965 41.3069C38.1561 41.3646 38.4228 40.8816 38.4613 41.1123C38.4998 41.343 38.7545 41.3358 38.8602 41.3117C38.966 41.2877 39.4634 40.8984 39.61 41.1219C39.7566 41.3454 39.0693 41.3214 40.0907 41.3238C41.1121 41.3262 42.0782 41.0834 42.1839 41.1219C42.2897 41.1603 42.7174 41.0955 42.7607 41.2108C42.804 41.3262 42.8256 41.3574 43.0707 41.3238C43.3158 41.2901 43.4432 41.3069 43.71 41.2685C43.9767 41.23 44.1474 40.9993 44.491 41.2108C44.8347 41.4223 45.0029 41.4776 45.7287 41.2493C46.4545 41.021 46.4329 40.5283 46.6251 40.92C46.8174 41.3118 46.9231 41.3069 47.0937 41.2877C47.2644 41.2685 48.1199 41.2493 49.1004 41.23L50.874 41.17C51.383 41.3068 51.9218 41.2833 52.4169 41.1027C52.4431 41.0883 52.472 41.0794 52.5017 41.0765C52.5315 41.0736 52.5615 41.0768 52.59 41.0858C52.6332 41.1075 52.6524 41.1531 52.6861 41.1868C52.8038 41.3021 53.0105 41.1868 53.1836 41.1435C53.4016 41.136 53.6199 41.1416 53.8372 41.1603C54.2218 41.1219 54.4885 40.7566 54.8754 40.7109C54.8971 40.9729 54.9211 41.2348 54.9451 41.4944C55.1098 41.3583 55.2968 41.2517 55.4979 41.1796C55.5375 41.317 55.5375 41.4627 55.4979 41.6001C55.7166 41.3887 55.9768 41.2251 56.2621 41.1195C56.3534 41.2517 56.5553 41.2685 56.7283 41.2709L58.6654 41.3021C58.798 41.3135 58.9316 41.2963 59.0571 41.2517C59.1941 41.1916 59.3383 41.0594 59.4704 41.1267C59.7027 41.1792 59.9442 41.1751 60.1746 41.1147C60.1681 41.1533 60.1756 41.193 60.1959 41.2266C60.2162 41.2601 60.2479 41.2852 60.2851 41.2973C60.3625 41.323 60.4442 41.3328 60.5255 41.3262L61.6454 41.3069C61.7775 41.3069 61.9554 41.2613 61.9434 41.1435C62.4889 41.2781 62.424 41.3262 62.9768 41.2805" stroke="#263238" stroke-width="0.2" stroke-linecap="round" stroke-linejoin="round"/>
<path d="M63.0008 38.699C62.2799 38.9273 62.5803 38.8696 62.239 38.6606C61.8977 38.4515 61.7271 38.6798 61.4604 38.7182C61.1936 38.7567 61.0638 38.7375 60.8187 38.7735C60.5736 38.8096 60.5519 38.7735 60.5087 38.6606C60.4654 38.5476 60.04 38.6221 59.9319 38.5716C59.8237 38.5212 58.8649 38.7759 57.8387 38.7735C56.8125 38.7711 57.4998 38.7951 57.358 38.5716C57.2162 38.3481 56.7164 38.7375 56.6082 38.7615C56.5001 38.7855 56.2453 38.7951 56.2093 38.562C56.1732 38.3289 55.9041 38.8024 55.6445 38.7567C55.385 38.711 55.9473 38.2015 55.5916 38.4298C55.236 38.6582 54.4141 38.7567 54.4141 38.7567L52.3833 38.6942L50.8573 38.711C50.6986 38.711 50.4847 38.5885 50.4968 38.2304C50.3862 38.1246 50.2709 38.3145 50.1651 38.4467C50.0594 38.5788 49.8887 38.5933 49.8623 38.3385C49.8296 38.3739 49.7892 38.4015 49.7444 38.4191C49.6995 38.4367 49.6512 38.444 49.6031 38.4403C49.555 38.4366 49.5084 38.422 49.4667 38.3978C49.425 38.3735 49.3894 38.3401 49.3624 38.3001C49.3358 38.3976 49.2738 38.4817 49.1884 38.5359C49.1031 38.5902 49.0006 38.6106 48.901 38.5933L44.6569 38.4154C44.5502 38.4216 44.4445 38.392 44.3565 38.3313C44.3024 38.2741 44.242 38.2233 44.1762 38.1799C44.0008 38.103 43.8446 38.401 43.6956 38.5788C43.5466 38.7567 43.2798 38.723 43.2558 38.3385C43.0732 38.687 42.8016 38.7879 42.5781 38.5788C42.4772 38.663 42.3714 38.7495 42.2657 38.7086C42.1945 38.6524 42.1396 38.5783 42.1066 38.4938C42.0737 38.4093 42.0638 38.3175 42.0782 38.228C42.0597 38.3665 42.0057 38.4979 41.9215 38.6095C41.8373 38.7211 41.7257 38.809 41.5976 38.8648C41.3952 38.8941 41.1889 38.8552 41.0112 38.7543" stroke="#263238" stroke-width="0.2" stroke-linecap="round" stroke-linejoin="round"/>
<path d="M63.0008 22.9315L58.7567 22.7512C58.6506 22.7581 58.5454 22.7285 58.4587 22.6671C58.4037 22.6099 58.3424 22.5591 58.276 22.5157C58.103 22.4412 57.9468 22.7368 57.7954 22.917C57.644 23.0973 57.3796 23.0588 57.3556 22.6767C57.1729 23.0252 56.9014 23.1261 56.6779 22.917C56.5769 23.0012 56.4712 23.0877 56.363 23.0492C56.2925 22.9926 56.2382 22.9183 56.2057 22.8339C56.1732 22.7494 56.1636 22.6579 56.178 22.5686C56.1594 22.7071 56.1055 22.8385 56.0213 22.9501C55.9371 23.0617 55.8255 23.1496 55.6974 23.2054C55.4951 23.2327 55.2894 23.194 55.111 23.0949" stroke="#263238" stroke-width="0.2" stroke-linecap="round" stroke-linejoin="round"/>
<path d="M63.0008 58.3171L58.7567 58.1393C58.6508 58.1449 58.546 58.1153 58.4587 58.0552C58.4037 57.9973 58.3425 57.9457 58.276 57.9014C58.103 57.8269 57.9468 58.1249 57.7954 58.3027C57.644 58.4806 57.3796 58.4445 57.3556 58.0624C57.1729 58.4109 56.9014 58.5118 56.6779 58.3027C56.5769 58.3868 56.4712 58.4709 56.363 58.4325C56.2925 58.3759 56.2382 58.3016 56.2057 58.2171C56.1732 58.1327 56.1636 58.0412 56.178 57.9518C56.1594 58.0904 56.1055 58.2218 56.0213 58.3334C55.9371 58.4449 55.8255 58.5329 55.6974 58.5887C55.495 58.6184 55.2886 58.5794 55.111 58.4781" stroke="#263238" stroke-width="0.2" stroke-linecap="round" stroke-linejoin="round"/>
<path d="M36.6661 45.8052C37.3029 45.9411 37.9634 45.9172 38.5887 45.7355C38.657 45.7063 38.733 45.7004 38.805 45.7187C38.8578 45.7403 38.8795 45.7859 38.9227 45.8196C39.0717 45.935 39.3265 45.8196 39.5404 45.7763C39.8023 45.7283 40.0811 45.8148 40.3502 45.7932C40.8309 45.7547 41.1601 45.3894 41.6408 45.3438L41.7273 46.1272C41.9396 45.989 42.1713 45.8829 42.4146 45.8124C42.4638 45.9483 42.4638 46.0971 42.4146 46.233C42.6987 46.0156 43.0206 45.8527 43.3639 45.7523C43.5316 45.8746 43.7395 45.9287 43.9455 45.9037L46.3487 45.9349C46.5107 45.946 46.6733 45.929 46.8294 45.8845C47 45.8244 47.1779 45.6922 47.3437 45.7619C47.6336 45.8124 47.9304 45.8075 48.2185 45.7475C48.1872 45.8196 48.2593 45.8965 48.353 45.9301C48.4533 45.9564 48.5571 45.967 48.6607 45.9614L50.0521 45.9398C50.2156 45.9398 50.4391 45.8941 50.4222 45.7763C51.1103 45.9123 51.8131 45.9584 52.5131 45.9133L54.229 46.0046C54.4791 45.9302 54.7455 45.9302 54.9956 46.0046L55.3008 45.8484C55.4787 45.9998 55.8175 45.9614 56.0626 45.8725C56.3014 45.7563 56.5616 45.6908 56.8269 45.6802C56.81 45.7643 56.7908 45.846 56.774 45.9205C57.131 45.8876 57.4837 45.8184 57.8266 45.7139C57.7617 45.7787 57.8266 45.8749 57.9131 45.9133C58.0163 45.9461 58.1249 45.9583 58.2328 45.9494L61.381 45.8677L61.9386 45.8532C62.001 45.8653 62.0419 45.9205 62.0203 45.9662C62.3762 45.9242 62.7133 45.7835 62.9936 45.56C62.9359 45.7211 62.7701 45.8869 62.9936 45.9277" stroke="#263238" stroke-width="0.2" stroke-linecap="round" stroke-linejoin="round"/>
<path d="M62.9527 43.4051C62.7869 43.3378 63.1234 43.4675 62.9527 43.53C62.7821 43.5925 63.1162 43.5805 62.9527 43.5805L60.2707 43.5469C60.0651 43.5713 59.8577 43.5182 59.6891 43.3978C59.3462 43.4991 59.0245 43.662 58.7399 43.8785C58.7891 43.7435 58.7891 43.5954 58.7399 43.4603C58.4957 43.5288 58.2638 43.635 58.0525 43.7752L57.966 42.9917C57.4854 43.0374 57.1561 43.4027 56.6755 43.4411C56.4063 43.4627 56.1275 43.3738 55.8656 43.4243C55.6517 43.4651 55.3849 43.5829 55.248 43.4651C55.2047 43.4339 55.1831 43.3858 55.1302 43.3642C55.0581 43.3472 54.9825 43.353 54.9139 43.381C54.289 43.5651 53.6279 43.5891 52.9913 43.4507L52.2872 43.5132L48.031 43.6358C47.8994 43.6435 47.7674 43.6378 47.6369 43.6189C47.4302 43.5805 47.2211 43.4723 47.0265 43.5348C47.0072 43.4603 46.8895 43.4171 46.7861 43.4219C46.6858 43.4335 46.5877 43.4603 46.4953 43.5012C46.283 43.5872 46.0521 43.617 45.8248 43.5877C45.5989 43.5469 45.4091 43.3786 45.4668 43.2176C45.158 43.4437 44.7948 43.5839 44.4141 43.6238C44.4334 43.5805 44.3949 43.5252 44.33 43.5108L43.7749 43.5276L40.6266 43.6069C40.5189 43.6169 40.4103 43.6055 40.307 43.5733C40.2133 43.5324 40.1556 43.4363 40.2181 43.3738C39.8753 43.4788 39.5225 43.5481 39.1655 43.5805C39.1847 43.4964 39.2015 43.4123 39.2207 43.3282C38.9551 43.3381 38.6946 43.4045 38.4565 43.5228C38.2162 43.6093 37.8701 43.6502 37.6947 43.4988L37.3871 43.6526C37.1368 43.5792 36.8707 43.5792 36.6204 43.6526" stroke="#263238" stroke-width="0.2" stroke-linecap="round" stroke-linejoin="round"/>
<path d="M36.6156 48.2738C36.8142 48.3237 37.0194 48.3416 37.2236 48.3267C37.3275 48.3186 37.4279 48.2858 37.5165 48.2311C37.6052 48.1763 37.6794 48.1012 37.7331 48.0119C37.732 48.0681 37.7506 48.123 37.7857 48.1669C37.8209 48.2108 37.8703 48.241 37.9254 48.2522C38.0382 48.2603 38.1511 48.2379 38.2522 48.1873C38.3694 48.2351 38.4977 48.2487 38.6223 48.2266C38.7469 48.2044 38.8627 48.1475 38.9564 48.0624C38.9828 48.2546 39.2496 48.2738 39.413 48.1849C39.5764 48.096 39.7398 47.9446 39.9201 47.9855C39.9851 48.0057 40.0485 48.0306 40.1099 48.06C40.21 48.0923 40.3149 48.1069 40.4199 48.1032L44.8347 48.1921C44.9207 48.2063 45.0088 48.2004 45.0921 48.175C45.1755 48.1495 45.2519 48.1053 45.3153 48.0455C45.3946 48.0882 45.4827 48.1122 45.5727 48.1155C45.6626 48.1188 45.7522 48.1015 45.8344 48.0648C45.8633 48.1921 46.0435 48.1825 46.1517 48.1176C46.2598 48.0527 46.38 47.959 46.4929 48.0119C46.4809 48.1825 46.7044 48.2522 46.8702 48.2522H48.4564L49.0187 48.2234C49.2689 48.1489 49.5352 48.1489 49.7854 48.2234L50.093 48.0672C50.2708 48.2186 50.6097 48.1777 50.8548 48.0912C51.093 47.9735 51.3535 47.908 51.619 47.8989C51.5998 47.983 51.583 48.0648 51.5638 48.1393C51.9216 48.1066 52.2751 48.0374 52.6188 47.9326C52.5539 47.9975 52.6188 48.0936 52.7053 48.132C52.8084 48.1651 52.9171 48.1773 53.0249 48.1681L56.1732 48.0864L56.7283 48.072C56.7932 48.084 56.8317 48.1393 56.8124 48.1849C57.1929 48.1429 57.5558 48.002 57.8651 47.7764C57.8074 47.9398 57.9996 48.1056 58.2232 48.1465C58.4504 48.1773 58.6817 48.1474 58.8937 48.06C58.9869 48.0195 59.0858 47.9936 59.1868 47.983C59.2902 47.983 59.4079 48.0191 59.4272 48.0936C59.6344 48.0737 59.8435 48.1025 60.0376 48.1777C60.168 48.1978 60.3001 48.2034 60.4317 48.1945" stroke="#263238" stroke-width="0.2" stroke-linecap="round" stroke-linejoin="round"/>
<path d="M72.3542 51.208V80.3089C72.352 80.5444 72.2635 80.7709 72.1053 80.9455C71.9471 81.12 71.7304 81.2304 71.4962 81.2557H71.4001H28.9613H28.8627C28.6294 81.2293 28.4138 81.1185 28.2567 80.944C28.0995 80.7696 28.0116 80.5437 28.0096 80.3089V51.208L46.9015 64.248L47.9349 64.969L49.5931 66.1153L51.3451 64.969L52.4361 64.248L72.3542 51.208Z" fill="#48C153"/>
<path opacity="0.2" d="M72.3542 79.9292V80.2151C72.3625 80.4631 72.2799 80.7055 72.1219 80.8967C71.9638 81.0879 71.7413 81.2148 71.4963 81.2534H71.4002H28.9613H28.8628C28.6186 81.2137 28.3973 81.0864 28.2402 80.8953C28.0831 80.7042 28.0012 80.4624 28.0096 80.2151V79.9268L46.9015 64.2456L47.9349 64.9666L49.5931 66.1129L51.3451 64.9666L52.4362 64.2456L72.3542 79.9292Z" fill="black"/>
<path d="M72.3542 80.047V80.309C72.3542 80.5639 72.2529 80.8084 72.0727 80.9887C71.8924 81.169 71.6479 81.2703 71.3929 81.2703H28.9613C28.7063 81.2703 28.4618 81.169 28.2816 80.9887C28.1013 80.8084 28 80.5639 28 80.309V80.047L47.9253 64.9619L48.329 64.6567C48.6923 64.3812 49.1342 64.2294 49.59 64.2233C50.0458 64.2173 50.4916 64.3573 50.862 64.623L51.3427 64.9619L72.3542 80.047Z" fill="#48C153"/>
</svg>
