<svg width="100" height="100" viewBox="0 0 100 100" fill="none" xmlns="http://www.w3.org/2000/svg">
<rect width="100" height="100" rx="10" fill="#AE4FFF" fill-opacity="0.2"/>
<path d="M64.8588 76.8811H37.2157C36.7711 76.8748 36.3454 76.7007 36.0239 76.3937C35.7024 76.0866 35.5089 75.6694 35.4821 75.2256L33.0032 27.2179C32.9895 27.0044 33.02 26.7903 33.0928 26.5891C33.1657 26.3879 33.2793 26.2039 33.4266 26.0487C33.5739 25.8935 33.7517 25.7703 33.9488 25.687C34.1459 25.6037 34.3581 25.562 34.572 25.5646H62.2152C62.6595 25.5703 63.0852 25.744 63.4068 26.0507C63.7283 26.3574 63.922 26.7744 63.9487 27.2179L66.4233 75.2256C66.437 75.4389 66.4067 75.6527 66.3341 75.8537C66.2615 76.0547 66.1483 76.2386 66.0015 76.394C65.8547 76.5493 65.6775 76.6727 65.4809 76.7565C65.2843 76.8403 65.0725 76.8828 64.8588 76.8811Z" fill="#AE4FFF"/>
<path opacity="0.8" d="M64.8588 76.8811H37.2157C36.7711 76.8748 36.3454 76.7007 36.0239 76.3937C35.7024 76.0866 35.5089 75.6694 35.4821 75.2256L33.0032 27.2179C32.9895 27.0044 33.02 26.7903 33.0928 26.5891C33.1657 26.3879 33.2793 26.2039 33.4266 26.0487C33.5739 25.8935 33.7517 25.7703 33.9488 25.687C34.1459 25.6037 34.3581 25.562 34.572 25.5646H62.2152C62.6595 25.5703 63.0852 25.744 63.4068 26.0507C63.7283 26.3574 63.922 26.7744 63.9487 27.2179L66.4233 75.2256C66.437 75.4389 66.4067 75.6527 66.3341 75.8537C66.2615 76.0547 66.1483 76.2386 66.0015 76.394C65.8547 76.5493 65.6775 76.6727 65.4809 76.7565C65.2843 76.8403 65.0725 76.8828 64.8588 76.8811Z" fill="#B160F5"/>
<path d="M59.4871 24H56.4296V24.2167H59.4871V24Z" fill="#AE4FFF"/>
<path d="M55.37 24H54.2497V24.2167H55.37V24Z" fill="#AE4FFF"/>
<path d="M66.0484 73.8341C55.7245 73.8341 49.9362 73.8341 39.6122 73.8341C39.1865 73.83 38.7782 73.6648 38.4694 73.3717C38.1606 73.0786 37.9743 72.6794 37.9481 72.2545L35.5818 26.3378C35.5687 26.1334 35.5979 25.9286 35.6676 25.736C35.7374 25.5435 35.8462 25.3674 35.9872 25.2189C36.1281 25.0704 36.2983 24.9526 36.487 24.8729C36.6756 24.7933 36.8787 24.7535 37.0835 24.756H63.5197C63.9454 24.7607 64.3535 24.9265 64.6618 25.22C64.9702 25.5135 65.156 25.9129 65.1817 26.3378L67.5479 72.2545C67.5611 72.4585 67.5319 72.6631 67.4623 72.8554C67.3926 73.0477 67.284 73.2235 67.1432 73.3718C67.0024 73.5201 66.8325 73.6378 66.6441 73.7173C66.4557 73.7969 66.2529 73.8366 66.0484 73.8341Z" fill="#D29DFF"/>
<path d="M66.0485 72.7792H39.6123C39.4572 72.7739 39.3095 72.7118 39.1973 72.6047C39.085 72.4976 39.016 72.3531 39.0034 72.1985L36.6349 26.284C36.6296 26.2229 36.6372 26.1614 36.6574 26.1035C36.6776 26.0456 36.7098 25.9926 36.7519 25.9481C36.7942 25.9037 36.8454 25.8687 36.9022 25.8456C36.959 25.8224 37.02 25.8116 37.0813 25.8138H63.5175C63.6722 25.8196 63.8193 25.8819 63.9311 25.9889C64.0429 26.0959 64.1116 26.2402 64.1242 26.3945L66.5035 72.309C66.5087 72.3698 66.501 72.4311 66.4809 72.4888C66.4608 72.5464 66.4287 72.5992 66.3867 72.6436C66.3448 72.688 66.2939 72.723 66.2375 72.7464C66.1811 72.7698 66.1203 72.7809 66.0593 72.7792H66.0485ZM37.0813 25.8679C37.0274 25.8662 36.9738 25.8757 36.9238 25.8958C36.8738 25.916 36.8286 25.9463 36.7909 25.9849C36.7548 26.025 36.7271 26.0719 36.7096 26.1229C36.6921 26.174 36.6851 26.228 36.6891 26.2818L39.0554 72.1963C39.0674 72.3369 39.1305 72.4683 39.2326 72.5657C39.3348 72.663 39.469 72.7197 39.6101 72.725H66.0463C66.0999 72.7271 66.1533 72.7178 66.203 72.6976C66.2527 72.6774 66.2975 72.6469 66.3345 72.608C66.3716 72.5686 66.3998 72.5217 66.4174 72.4705C66.4349 72.4193 66.4414 72.365 66.4363 72.3111L64.0722 26.3966C64.0607 26.2562 63.9981 26.1249 63.8963 26.0274C63.7945 25.93 63.6605 25.8733 63.5197 25.8679H37.0813Z" fill="white"/>
<path opacity="0.3" d="M56.8015 42.5479C59.8083 39.4624 59.6125 34.3949 56.3641 31.2294C53.1158 28.0639 48.045 27.999 45.0382 31.0845C42.0314 34.1701 42.2272 39.2376 45.4755 42.4031C48.7239 45.5686 53.7947 45.6335 56.8015 42.5479Z" fill="white"/>
<path d="M57.4025 36.8174C57.4632 37.8822 57.249 38.9448 56.7806 39.903C56.2736 40.9308 55.4865 41.7945 54.5101 42.3944C53.5336 42.9944 52.4075 43.3063 51.2615 43.2942C50.0739 43.2835 48.9093 42.9656 47.881 42.3713C46.8527 41.777 45.9958 40.9267 45.3936 39.903C44.8323 38.9669 44.5094 37.9074 44.4531 36.8174C44.3997 35.9814 44.5194 35.1435 44.8047 34.3559C45.09 33.5683 45.5348 32.8481 46.1112 32.2404C46.6877 31.6326 47.3833 31.1504 48.1547 30.8239C48.9261 30.4973 49.7565 30.3335 50.5941 30.3426C52.3374 30.3608 54.0091 31.0389 55.2724 32.2403C56.5357 33.4417 57.2969 35.0772 57.4025 36.8174Z" fill="white"/>
<path d="M56.7741 39.903C56.2671 40.9308 55.48 41.7945 54.5036 42.3945C53.5271 42.9944 52.401 43.3064 51.255 43.2942C50.0674 43.2836 48.9028 42.9656 47.8745 42.3713C46.8462 41.7771 45.9893 40.9267 45.3871 39.903C47.0337 38.7658 48.9895 38.1608 50.9907 38.1695C53.0454 38.1773 55.0539 38.7793 56.7741 39.903Z" fill="#AE4FFF"/>
<path d="M52.9273 36.6662C54.0106 35.5546 53.9397 33.7285 52.7689 32.5876C51.5981 31.4467 49.7708 31.4229 48.6875 32.5346C47.6042 33.6462 47.6752 35.4723 48.8459 36.6132C50.0167 37.7541 51.844 37.7778 52.9273 36.6662Z" fill="#AE4FFF"/>
<path d="M62.2585 55.9703H41.5581C41.3778 55.9684 41.2049 55.8983 41.0743 55.7741C40.9436 55.6498 40.8648 55.4807 40.8539 55.3007L40.6979 52.2671C40.6925 52.1808 40.705 52.0943 40.7346 52.013C40.7641 51.9318 40.8102 51.8575 40.8698 51.7949C40.9294 51.7322 41.0012 51.6826 41.0809 51.649C41.1606 51.6154 41.2463 51.5986 41.3328 51.5997H62.0332C62.2131 51.6015 62.3857 51.6713 62.5164 51.7951C62.647 51.9189 62.7259 52.0875 62.7374 52.2671L62.8934 55.3007C62.8991 55.3872 62.8869 55.4739 62.8574 55.5554C62.828 55.6369 62.782 55.7115 62.7224 55.7743C62.6628 55.8372 62.5908 55.8871 62.511 55.9208C62.4311 55.9545 62.3452 55.9714 62.2585 55.9703Z" fill="white"/>
<path opacity="0.3" d="M55.9204 49.925H47.2744C47.0934 49.9237 46.9197 49.8535 46.7885 49.7288C46.6573 49.604 46.5785 49.434 46.568 49.2533L46.5355 48.6032C46.5298 48.5167 46.5421 48.43 46.5715 48.3485C46.601 48.267 46.6469 48.1925 46.7066 48.1296C46.7662 48.0667 46.8382 48.0169 46.918 47.9831C46.9978 47.9494 47.0838 47.9326 47.1704 47.9336H55.8142C55.9945 47.9355 56.1674 48.0056 56.298 48.1299C56.4287 48.2541 56.5075 48.4232 56.5184 48.6032L56.5531 49.2533C56.5584 49.3396 56.546 49.4261 56.5166 49.5074C56.4872 49.5887 56.4414 49.6632 56.3821 49.7261C56.3228 49.7891 56.2513 49.8392 56.1719 49.8734C56.0924 49.9076 56.0068 49.9252 55.9204 49.925Z" fill="black"/>
<path opacity="0.3" d="M59.136 70.556H46.1845C45.8778 70.5522 45.5839 70.4326 45.3616 70.2213C45.1394 70.0099 45.0053 69.7223 44.9862 69.4162L44.9103 67.921C44.9027 67.7741 44.9251 67.6271 44.9761 67.4891C45.0271 67.3511 45.1057 67.2249 45.207 67.1182C45.3084 67.0116 45.4305 66.9267 45.5657 66.8688C45.701 66.8108 45.8466 66.7811 45.9938 66.7813H58.941C59.2477 66.785 59.5416 66.9046 59.7639 67.116C59.9861 67.3274 60.1202 67.6149 60.1393 67.921L60.2152 69.4162C60.2228 69.5628 60.2006 69.7094 60.1498 69.8471C60.0991 69.9849 60.0209 70.1108 59.92 70.2174C59.819 70.324 59.6975 70.409 59.5628 70.4672C59.428 70.5254 59.2828 70.5556 59.136 70.556Z" fill="black"/>
<path d="M62.6378 63.3074H41.9352C41.755 63.305 41.5824 63.2348 41.4518 63.1106C41.3213 62.9865 41.2424 62.8176 41.2309 62.6378L41.0749 59.6042C41.0696 59.5178 41.082 59.4312 41.1116 59.3498C41.1412 59.2685 41.1871 59.1941 41.2467 59.1313C41.3063 59.0685 41.3781 59.0186 41.4578 58.9847C41.5375 58.9509 41.6233 58.9338 41.7098 58.9346H62.4102C62.5905 58.9365 62.7634 59.0066 62.8941 59.1308C63.0248 59.255 63.1035 59.4242 63.1145 59.6042L63.2727 62.6378C63.2777 62.7241 63.265 62.8106 63.2353 62.8918C63.2056 62.973 63.1596 63.0473 63.1001 63.11C63.0406 63.1728 62.9689 63.2227 62.8894 63.2566C62.8099 63.2906 62.7242 63.3078 62.6378 63.3074Z" fill="white"/>
<path d="M44.1844 53.7841C44.1904 53.8799 44.1765 53.9758 44.1437 54.066C44.111 54.1561 44.0599 54.2386 43.9938 54.3081C43.9277 54.3777 43.848 54.4328 43.7596 54.4702C43.6713 54.5075 43.5761 54.5263 43.4802 54.5252C43.2809 54.5228 43.0899 54.4451 42.9455 54.3076C42.8012 54.1701 42.7143 53.9831 42.7023 53.7841C42.696 53.6884 42.7096 53.5925 42.7421 53.5024C42.7746 53.4122 42.8255 53.3298 42.8914 53.2602C42.9573 53.1906 43.0369 53.1354 43.1252 53.098C43.2135 53.0606 43.3085 53.0419 43.4043 53.043C43.6039 53.0454 43.7952 53.123 43.9398 53.2605C44.0845 53.3979 44.1719 53.5849 44.1844 53.7841Z" fill="#263238"/>
<path d="M46.4662 53.7841C46.4724 53.8797 46.4589 53.9757 46.4263 54.0658C46.3938 54.156 46.343 54.2384 46.277 54.308C46.2111 54.3776 46.1315 54.4328 46.0433 54.4702C45.955 54.5076 45.8599 54.5263 45.7641 54.5252C45.5646 54.5233 45.3733 54.4457 45.2289 54.3081C45.0845 54.1706 44.9977 53.9832 44.9862 53.7841C44.9799 53.6884 44.9935 53.5925 45.026 53.5024C45.0585 53.4122 45.1094 53.3298 45.1753 53.2602C45.2412 53.1906 45.3208 53.1354 45.4091 53.098C45.4974 53.0606 45.5924 53.0419 45.6883 53.043C45.8877 53.0449 46.079 53.1225 46.2234 53.26C46.3679 53.3976 46.4546 53.585 46.4662 53.7841Z" fill="#263238"/>
<path d="M48.7349 53.7841C48.7412 53.8797 48.7276 53.9757 48.6951 54.0658C48.6625 54.156 48.6117 54.2384 48.5458 54.308C48.4799 54.3776 48.4003 54.4328 48.312 54.4702C48.2237 54.5076 48.1287 54.5263 48.0328 54.5252C47.8333 54.5228 47.642 54.4452 47.4974 54.3077C47.3527 54.1703 47.2653 53.9832 47.2528 53.7841C47.2468 53.6883 47.2606 53.5924 47.2934 53.5022C47.3262 53.412 47.3773 53.3296 47.4434 53.2601C47.5094 53.1905 47.5892 53.1353 47.6776 53.098C47.7659 53.0606 47.8611 53.0419 47.957 53.043C48.1563 53.0454 48.3473 53.1231 48.4916 53.2606C48.636 53.3981 48.7229 53.5851 48.7349 53.7841Z" fill="#263238"/>
<path d="M51.021 53.7841C51.0269 53.8796 51.0131 53.9754 50.9805 54.0654C50.9478 54.1555 50.897 54.2378 50.8311 54.3073C50.7653 54.3768 50.6858 54.432 50.5977 54.4695C50.5096 54.507 50.4147 54.5259 50.3189 54.5251C50.1194 54.5228 49.9281 54.4451 49.7834 54.3077C49.6388 54.1703 49.5514 53.9832 49.5388 53.7841C49.5329 53.6885 49.5467 53.5927 49.5793 53.5027C49.612 53.4127 49.6628 53.3304 49.7287 53.2608C49.7945 53.1913 49.874 53.1361 49.9621 53.0986C50.0503 53.0612 50.1451 53.0422 50.2409 53.043C50.4404 53.0453 50.6317 53.123 50.7764 53.2604C50.921 53.3979 51.0084 53.5849 51.021 53.7841Z" fill="#263238"/>
<path d="M44.568 61.1166C44.5742 61.2123 44.5607 61.3082 44.5281 61.3983C44.4956 61.4885 44.4448 61.571 44.3788 61.6405C44.3129 61.7101 44.2333 61.7653 44.145 61.8027C44.0568 61.8401 43.9617 61.8588 43.8659 61.8577C43.6663 61.8554 43.4751 61.7777 43.3304 61.6402C43.1857 61.5028 43.0984 61.3158 43.0858 61.1166C43.0798 61.0209 43.0937 60.9249 43.1265 60.8347C43.1593 60.7446 43.2103 60.6621 43.2764 60.5926C43.3425 60.523 43.4222 60.4679 43.5106 60.4305C43.599 60.3932 43.6941 60.3745 43.79 60.3755C43.9893 60.3779 44.1804 60.4557 44.3247 60.5931C44.469 60.7306 44.5559 60.9177 44.568 61.1166Z" fill="#263238"/>
<path d="M46.8454 61.1166C46.8513 61.2122 46.8375 61.308 46.8049 61.398C46.7722 61.488 46.7214 61.5703 46.6555 61.6398C46.5897 61.7094 46.5102 61.7646 46.4221 61.8021C46.334 61.8395 46.2391 61.8585 46.1433 61.8577C45.9438 61.8554 45.7525 61.7777 45.6078 61.6403C45.4632 61.5028 45.3758 61.3158 45.3632 61.1166C45.3569 61.021 45.3705 60.9251 45.403 60.8349C45.4356 60.7447 45.4864 60.6623 45.5523 60.5927C45.6183 60.5231 45.6979 60.4679 45.7861 60.4305C45.8744 60.3932 45.9694 60.3744 46.0653 60.3755C46.2648 60.3779 46.4561 60.4555 46.6008 60.593C46.7454 60.7304 46.8328 60.9175 46.8454 61.1166Z" fill="#263238"/>
<path d="M49.1228 61.1166C49.1287 61.2124 49.1149 61.3083 49.0821 61.3985C49.0493 61.4887 48.9983 61.5711 48.9322 61.6406C48.8661 61.7102 48.7864 61.7654 48.698 61.8027C48.6096 61.8401 48.5145 61.8588 48.4185 61.8577C48.2191 61.8558 48.0278 61.7783 47.8833 61.6407C47.7389 61.5031 47.6522 61.3158 47.6406 61.1166C47.6343 61.021 47.6479 60.9251 47.6805 60.8349C47.713 60.7447 47.7638 60.6623 47.8298 60.5927C47.8957 60.5231 47.9753 60.4679 48.0635 60.4305C48.1518 60.3932 48.2469 60.3744 48.3427 60.3755C48.5422 60.3779 48.7335 60.4555 48.8782 60.593C49.0229 60.7304 49.1102 60.9175 49.1228 61.1166Z" fill="#263238"/>
<path d="M51.398 61.1166C51.4043 61.2123 51.3908 61.3082 51.3582 61.3983C51.3257 61.4885 51.2748 61.571 51.2089 61.6405C51.143 61.7101 51.0634 61.7653 50.9751 61.8027C50.8868 61.8401 50.7918 61.8588 50.696 61.8577C50.4964 61.8554 50.3051 61.7777 50.1605 61.6402C50.0158 61.5028 49.9284 61.3158 49.9159 61.1166C49.9099 61.0209 49.9238 60.9249 49.9565 60.8347C49.9893 60.7446 50.0404 60.6621 50.1065 60.5926C50.1726 60.523 50.2523 60.4679 50.3407 60.4305C50.429 60.3932 50.5242 60.3745 50.6201 60.3755C50.8196 60.3774 51.0109 60.455 51.1553 60.5926C51.2997 60.7302 51.3865 60.9175 51.398 61.1166Z" fill="#263238"/>
<path d="M53.6754 61.1171C53.6817 61.2127 53.6682 61.3086 53.6356 61.3988C53.6031 61.489 53.5522 61.5714 53.4863 61.641C53.4204 61.7106 53.3408 61.7658 53.2525 61.8032C53.1642 61.8405 53.0692 61.8593 52.9734 61.8582C52.7738 61.8558 52.5825 61.7782 52.4379 61.6407C52.2932 61.5033 52.2058 61.3162 52.1933 61.1171C52.1873 61.0215 52.2011 60.9257 52.2338 60.8357C52.2664 60.7457 52.3173 60.6634 52.3831 60.5939C52.449 60.5243 52.5285 60.4691 52.6166 60.4316C52.7047 60.3942 52.7996 60.3752 52.8953 60.376C53.0949 60.3783 53.2862 60.456 53.4308 60.5935C53.5755 60.7309 53.6629 60.9179 53.6754 61.1171Z" fill="#263238"/>
<path d="M55.9529 61.1166C55.9588 61.2124 55.945 61.3083 55.9122 61.3985C55.8794 61.4887 55.8284 61.5711 55.7623 61.6406C55.6962 61.7102 55.6164 61.7654 55.5281 61.8027C55.4397 61.8401 55.3446 61.8588 55.2486 61.8577C55.0493 61.8553 54.8583 61.7776 54.714 61.6401C54.5696 61.5026 54.4827 61.3156 54.4707 61.1166C54.4644 61.021 54.478 60.9251 54.5105 60.8349C54.5431 60.7447 54.5939 60.6623 54.6598 60.5927C54.7258 60.5231 54.8053 60.4679 54.8936 60.4305C54.9819 60.3932 55.0769 60.3744 55.1728 60.3755C55.3723 60.3779 55.5636 60.4555 55.7083 60.593C55.8529 60.7304 55.9403 60.9175 55.9529 61.1166Z" fill="#263238"/>
</svg>
