<svg width="32" height="32" viewBox="0 0 32 32" fill="none" xmlns="http://www.w3.org/2000/svg">
<path d="M16.3594 19.9775C18.4995 19.9775 20.2344 18.2426 20.2344 16.1025C20.2344 13.9624 18.4995 12.2275 16.3594 12.2275C14.2193 12.2275 12.4844 13.9624 12.4844 16.1025C12.4844 18.2426 14.2193 19.9775 16.3594 19.9775Z" stroke="white" stroke-linecap="round" stroke-linejoin="round"/>
<path d="M21.5234 5.7666H11.1901C8.33663 5.7666 6.02344 8.0798 6.02344 10.9333V21.2666C6.02344 24.1201 8.33663 26.4333 11.1901 26.4333H21.5234C24.3769 26.4333 26.6901 24.1201 26.6901 21.2666V10.9333C26.6901 8.0798 24.3769 5.7666 21.5234 5.7666Z" stroke="white" stroke-width="1.75" stroke-linecap="round" stroke-linejoin="round"/>
<circle cx="22.8594" cy="10.6025" r="1" fill="white"/>
</svg>
