<svg width="32" height="32" viewBox="0 0 32 32" fill="none" xmlns="http://www.w3.org/2000/svg">
<path d="M23.5052 5.18848H8.00521C6.57847 5.18848 5.42188 6.34507 5.42188 7.77181V23.2718C5.42188 24.6985 6.57847 25.8551 8.00521 25.8551H23.5052C24.9319 25.8551 26.0885 24.6985 26.0885 23.2718V7.77181C26.0885 6.34507 24.9319 5.18848 23.5052 5.18848Z" stroke="white" stroke-width="1.75" stroke-linecap="round" stroke-linejoin="round"/>
<path d="M10.5938 14.2354V20.6937" stroke="white" stroke-width="2.75" stroke-linecap="round" stroke-linejoin="round"/>
<path d="M10.5938 10.3604V10.3733" stroke="white" stroke-width="2.75" stroke-linecap="round" stroke-linejoin="round"/>
<path d="M15.7578 20.6937V14.2354" stroke="white" stroke-width="2.75" stroke-linecap="round" stroke-linejoin="round"/>
<path d="M20.9245 20.7015V16.8265C20.9245 16.1414 20.6523 15.4843 20.1678 14.9998C19.6834 14.5153 19.0263 14.2432 18.3411 14.2432C17.656 14.2432 16.9989 14.5153 16.5145 14.9998C16.03 15.4843 15.7578 16.1414 15.7578 16.8265" stroke="white" stroke-width="2.75" stroke-linecap="round" stroke-linejoin="round"/>
</svg>
