<svg width="187" height="54" viewBox="0 0 187 54" fill="none" xmlns="http://www.w3.org/2000/svg">
<path d="M89.2822 33.2701H97.9907V0.462362H89.2822V33.2701ZM135.82 0.460938V7.29735H146.775V33.2701H155.481V7.29735H166.434V0.460938H135.82ZM123.691 13.448H116.413C114.479 13.448 112.915 12.6471 112.915 10.373C112.915 8.09187 114.479 7.29661 116.413 7.29661H132.062V0.461616H115.382C109.156 0.461616 104.105 4.06107 104.105 10.373C104.105 16.6835 109.156 20.283 115.382 20.283H122.87C124.8 20.283 126.368 21.0825 126.368 23.3636C126.368 25.6391 124.8 26.4358 122.87 26.4358H105.312V33.2708H123.691C129.921 33.2708 134.965 29.677 134.965 23.3636C134.965 17.0589 129.921 13.448 123.691 13.448V13.448ZM62.7739 0.460938L50.4582 29.9831L38.7176 16.8677L53.3973 0.460938H43.4538L29.5412 16.0366V0.460938H20.8313V33.2701H29.5412V17.6959L43.4538 33.2701H57.9361L67.9081 8.52825L75.1513 26.7161H63.6382L66.3741 33.2702H86.7302L73.0421 0.460938H62.7739Z" fill="#1F4899"/>
<path d="M0.632812 47.0477C31.0137 51.3736 62.0643 53.6104 93.6357 53.6104C125.206 53.6104 156.255 51.3736 186.633 47.0477C156.255 42.7275 125.206 40.4893 93.6357 40.4893C62.0643 40.4893 31.0137 42.7275 0.632812 47.0477Z" fill="url(#paint0_linear_2_827)"/>
<defs>
<linearGradient id="paint0_linear_2_827" x1="0.674309" y1="47.1067" x2="186.675" y2="47.1067" gradientUnits="userSpaceOnUse">
<stop stop-color="#69C5F0"/>
<stop offset="0.05" stop-color="#69C5F0"/>
<stop offset="0.3816" stop-color="#3F88D0"/>
<stop offset="0.5" stop-color="#3F88D0"/>
<stop offset="0.7316" stop-color="#2C61B5"/>
<stop offset="0.95" stop-color="#2C61B5"/>
<stop offset="1" stop-color="#2C61B5"/>
</linearGradient>
</defs>
</svg>
