<svg width="116" height="34" viewBox="0 0 116 34" fill="none" xmlns="http://www.w3.org/2000/svg">
<path d="M55.0395 21.2771H60.4465V0.907135H55.0395V21.2771ZM83.9343 0.90625V5.15091H90.7361V21.2771H96.1414V5.15091H102.942V0.90625H83.9343ZM76.4035 8.9698H71.8849C70.6838 8.9698 69.7127 8.47249 69.7127 7.06056C69.7127 5.64422 70.6837 5.15045 71.8849 5.15045H81.6008V0.906671H71.2444C67.3788 0.906671 64.2426 3.14153 64.2426 7.06052C64.2426 10.9787 67.3788 13.2135 71.2444 13.2135H75.8935C77.092 13.2135 78.0657 13.71 78.0657 15.1263C78.0657 16.5391 77.092 17.0338 75.8936 17.0338H64.9924V21.2775H76.4035C80.2717 21.2775 83.4035 19.0462 83.4035 15.1263C83.4035 11.2117 80.2717 8.96975 76.4035 8.96975V8.9698ZM38.5808 0.90625L30.9341 19.2362L23.6445 11.093L32.7589 0.90625H26.5852L17.947 10.577V0.90625H12.5391V21.2771H17.947V11.6073L26.5852 21.2771H35.577L41.7686 5.91516L46.2658 17.2078H39.1175L40.8161 21.2772H53.455L44.9562 0.90625H38.5808Z" fill="#1F4899"/>
<path d="M0 29.8315C18.8632 32.5175 38.1421 33.9062 57.7445 33.9062C77.346 33.9062 96.624 32.5175 115.485 29.8315C96.624 27.1492 77.346 25.7595 57.7445 25.7595C38.1421 25.7595 18.8632 27.1492 0 29.8315Z" fill="url(#paint0_linear_2_821)"/>
<defs>
<linearGradient id="paint0_linear_2_821" x1="0.0257645" y1="29.8682" x2="115.511" y2="29.8682" gradientUnits="userSpaceOnUse">
<stop stop-color="#69C5F0"/>
<stop offset="0.05" stop-color="#69C5F0"/>
<stop offset="0.3816" stop-color="#3F88D0"/>
<stop offset="0.5" stop-color="#3F88D0"/>
<stop offset="0.7316" stop-color="#2C61B5"/>
<stop offset="0.95" stop-color="#2C61B5"/>
<stop offset="1" stop-color="#2C61B5"/>
</linearGradient>
</defs>
</svg>
