<svg width="100" height="100" viewBox="0 0 100 100" fill="none" xmlns="http://www.w3.org/2000/svg">
<rect opacity="0.2" width="100" height="100" rx="15" fill="#48C153"/>
<path d="M72.5405 76.3815C74.4422 76.3815 75.9999 74.8388 75.9999 72.95V37.9466C75.9999 36.0575 74.4422 34.5149 72.5405 34.5149H38.7754L52.3261 76.3815H72.5405Z" fill="#2A7A31"/>
<path d="M72.5405 36.0892C73.0438 36.0888 73.527 36.2887 73.8847 36.6454C74.2384 36.9968 74.437 37.4585 74.437 37.9466V72.95C74.437 73.1932 74.388 73.4339 74.2931 73.6576C74.1982 73.8812 74.0593 74.0831 73.8847 74.2512C73.5269 74.6078 73.0438 74.8077 72.5405 74.8074H53.4619L40.927 36.0892H72.5405ZM72.5405 34.5149H38.7754L52.3261 76.3815H72.5405C74.4422 76.3815 75.9999 74.8388 75.9999 72.95V37.9466C75.9999 36.0575 74.4422 34.5149 72.5405 34.5149Z" fill="#2A7A31"/>
<path d="M49.1273 66.4907L52.3261 76.3824L61.2194 66.4907H49.1273Z" fill="#2C6333"/>
<path d="M64.8589 61.5311C65.3723 61.2603 65.8205 60.9648 66.2035 60.6448C66.5865 60.3247 66.9043 59.9964 67.1569 59.6599C67.4177 59.3152 67.6092 58.9746 67.7314 58.6381C67.8618 58.2934 67.927 57.9651 67.927 57.6532C67.927 57.448 67.8985 57.2264 67.8414 56.9884C67.7844 56.7504 67.6866 56.5329 67.5481 56.3359C67.4177 56.139 67.2466 55.9748 67.0347 55.8435C66.8228 55.7122 66.562 55.6465 66.2524 55.6465C65.9346 55.6465 65.6249 55.7286 65.3234 55.8927C65.0219 56.0487 64.7407 56.2621 64.48 56.5329C64.2192 56.7955 63.9788 57.0992 63.7588 57.4439C63.5469 57.7804 63.3635 58.1333 63.2087 58.5027V66.5786H60.0183V62.5283L59.9939 62.516C59.8961 62.5817 59.7657 62.6637 59.6027 62.7622C59.4479 62.8525 59.2605 62.9428 59.0405 63.0331C58.8204 63.1234 58.5678 63.2013 58.2826 63.267C57.9974 63.3326 57.6836 63.3655 57.3414 63.3655C56.6243 63.3655 55.9316 63.2136 55.2634 62.91C54.6033 62.5981 54.0166 62.1795 53.5032 61.6543C52.9979 61.1208 52.5905 60.497 52.2808 59.783C51.9793 59.069 51.8285 58.3098 51.8285 57.5055C51.8285 56.8325 51.9385 56.1923 52.1586 55.585C52.3867 54.9776 52.7086 54.4441 53.1242 53.9845C53.548 53.5249 54.0614 53.1597 54.6644 52.8889C55.2674 52.618 55.952 52.4826 56.718 52.4826C57.264 52.4826 57.7936 52.5688 58.307 52.7411C58.8204 52.9135 59.3827 53.2254 59.9939 53.6768L60.0183 53.6645V50.993H49.9583V48.223H73.4888V50.993H63.2087V53.8984L63.2331 53.9107C63.5184 53.648 63.8117 53.4347 64.1132 53.2705C64.4148 53.1064 64.7122 52.9791 65.0056 52.8889C65.2989 52.7986 65.576 52.737 65.8368 52.7042C66.0975 52.6714 66.3339 52.655 66.5457 52.655C67.2629 52.655 67.9026 52.7986 68.4649 53.0858C69.0271 53.3731 69.5039 53.7506 69.895 54.2184C70.2862 54.6781 70.5836 55.2033 70.7873 55.7942C70.9992 56.3852 71.1052 56.9884 71.1052 57.604C71.1052 58.2441 70.9951 58.8761 70.7751 59.4998C70.5551 60.1154 70.2414 60.7063 69.8339 61.2726C69.4264 61.8389 68.9334 62.3724 68.3548 62.873C67.7763 63.3655 67.1284 63.8128 66.4113 64.2149L64.8589 61.5311ZM60.0917 56.6806C59.9287 56.5165 59.7535 56.3482 59.5661 56.1759C59.3786 56.0035 59.1749 55.8517 58.9549 55.7204C58.7349 55.5809 58.4945 55.4701 58.2337 55.388C57.9729 55.2977 57.6877 55.2526 57.378 55.2526C57.0032 55.2526 56.6731 55.3182 56.3879 55.4495C56.1027 55.5809 55.8623 55.7573 55.6667 55.9789C55.4712 56.2005 55.3245 56.459 55.2267 56.7545C55.1289 57.05 55.08 57.3618 55.08 57.6901C55.08 58.0677 55.1411 58.4206 55.2634 58.7489C55.3856 59.0772 55.5608 59.3644 55.789 59.6106C56.0253 59.8569 56.3024 60.0497 56.6202 60.1893C56.9461 60.3288 57.3128 60.3985 57.7203 60.3985C58.1848 60.3985 58.5678 60.3124 58.8693 60.14C59.179 59.9677 59.4235 59.7461 59.6027 59.4752C59.782 59.1962 59.9083 58.8884 59.9817 58.5519C60.055 58.2154 60.0917 57.883 60.0917 57.5547V56.6806Z" fill="white"/>
<path d="M27.4594 24C25.5577 24 24 25.5688 24 27.4893V63.0112C24 64.9265 25.5577 66.4953 27.4594 66.4953H61.2244L47.6737 24H27.4594Z" fill="#48C153"/>
<path d="M40.2978 40.2325H36.2885L32.7681 36.7239V36.5515L34.8583 34.4956L38.2931 38.7675L44.0871 31.8611L46.3118 34.0524V34.2248L40.2978 40.2325ZM35.4939 43.5318C35.4939 43.9094 35.6243 44.2131 35.8851 44.4429C36.154 44.6727 36.5044 44.8655 36.9363 45.0215C37.3764 45.1692 37.8735 45.3005 38.4276 45.4154C38.9817 45.5221 39.544 45.6493 40.1144 45.7971C40.693 45.9366 41.2594 46.113 41.8135 46.3264C42.3677 46.5398 42.8607 46.8271 43.2926 47.1882C43.7326 47.5411 44.083 47.9843 44.3438 48.5178C44.6127 49.0512 44.7472 49.7119 44.7472 50.4998C44.7472 51.3041 44.5638 51.9936 44.1971 52.5681C43.8304 53.1344 43.3456 53.5981 42.7425 53.9592C42.1395 54.3203 41.4468 54.5871 40.6645 54.7594C39.8903 54.9318 39.0958 55.0179 38.2809 55.0179C37.5067 55.0179 36.7448 54.9154 35.9951 54.7102C35.2535 54.505 34.5812 54.1931 33.9782 53.7745C33.3833 53.3478 32.8903 52.8102 32.4991 52.1618C32.1161 51.5052 31.9002 50.7296 31.8513 49.835H34.9561C35.0783 50.3029 35.2617 50.6845 35.5061 50.98C35.7506 51.2754 36.0236 51.5093 36.3251 51.6817C36.6348 51.8458 36.9567 51.9607 37.2908 52.0264C37.6331 52.0838 37.9631 52.1126 38.2809 52.1126C38.5987 52.1126 38.9451 52.092 39.3199 52.051C39.7029 52.0018 40.0574 51.9197 40.3834 51.8048C40.7175 51.6899 40.9945 51.5298 41.2146 51.3247C41.4346 51.1113 41.5446 50.8445 41.5446 50.5245C41.5446 50.0731 41.4101 49.716 41.1412 49.4534C40.8805 49.1826 40.53 48.9692 40.09 48.8132C39.6581 48.6491 39.1651 48.5178 38.6109 48.4193C38.0568 48.3126 37.4904 48.1977 36.9119 48.0746C36.3333 47.9515 35.7669 47.7955 35.2128 47.6068C34.6586 47.418 34.1615 47.1554 33.7215 46.8189C33.2896 46.4742 32.9392 46.0392 32.6703 45.5139C32.4095 44.9886 32.2791 44.328 32.2791 43.5318C32.2791 42.9327 32.4339 42.3705 32.7436 41.8453C33.0533 41.3118 33.477 40.8481 34.0149 40.4541C34.5527 40.052 35.1843 39.736 35.9095 39.5062C36.6429 39.2764 37.4334 39.1615 38.2809 39.1615C39.1121 39.1615 39.8944 39.2682 40.6278 39.4816C41.3694 39.6949 42.0173 40.015 42.5714 40.4418C43.1255 40.8686 43.5615 41.398 43.8793 42.0299C44.2053 42.6537 44.3683 43.38 44.3683 44.2089H41.2635C41.1983 43.8478 41.1005 43.5277 40.9701 43.2487C40.8397 42.9696 40.6564 42.7357 40.42 42.547C40.1919 42.35 39.9026 42.2023 39.5522 42.1038C39.2018 42.0053 38.778 41.956 38.2809 41.956C37.3682 41.956 36.6755 42.0874 36.2029 42.35C35.7302 42.6126 35.4939 43.0066 35.4939 43.5318Z" fill="white"/>
</svg>
