<svg width="25" height="25" viewBox="0 0 25 25" fill="none" xmlns="http://www.w3.org/2000/svg">
<path d="M4.125 4.16853V20.7485C4.12504 20.8714 4.15741 20.9921 4.21886 21.0985C4.28032 21.2048 4.36869 21.2932 4.47509 21.3546C4.5815 21.416 4.7022 21.4483 4.82506 21.4483C4.94791 21.4483 5.0686 21.416 5.175 21.3545L19.797 12.9345C19.8807 12.8863 19.9502 12.8168 19.9985 12.7332C20.0469 12.6495 20.0723 12.5546 20.0723 12.458C20.0723 12.3614 20.0469 12.2665 19.9985 12.1829C19.9502 12.0992 19.8807 12.0298 19.797 11.9815L5.175 3.56253C5.06853 3.50106 4.94775 3.46872 4.8248 3.46875C4.70186 3.46878 4.5811 3.5012 4.47466 3.56273C4.36822 3.62426 4.27987 3.71274 4.21849 3.81926C4.15711 3.92578 4.12486 4.04659 4.125 4.16953V4.16853Z" stroke="white" stroke-width="1.25" stroke-linecap="round" stroke-linejoin="round"/>
<path d="M15.125 9.45312L4.625 20.9531" stroke="white" stroke-width="1.25" stroke-linecap="round" stroke-linejoin="round"/>
<path d="M4.625 3.95312L15.125 15.4531" stroke="white" stroke-width="1.25" stroke-linecap="round" stroke-linejoin="round"/>
</svg>
