<svg width="18" height="18" viewBox="0 0 18 18" fill="none" xmlns="http://www.w3.org/2000/svg">
<path d="M17 8.90625C17 4.48958 13.4167 0.90625 9 0.90625C4.58333 0.90625 1 4.48958 1 8.90625C1 13.3229 4.58333 16.9063 9 16.9063C13.4167 16.9063 17 13.3229 17 8.90625Z" stroke="white" stroke-width="1.2" stroke-miterlimit="10"/>
<path d="M7.40011 12.2692L12.2091 9.30506C12.2762 9.26339 12.3316 9.20483 12.37 9.13501C12.4084 9.06518 12.4286 8.98644 12.4286 8.90635C12.4286 8.82627 12.4084 8.74753 12.37 8.6777C12.3316 8.60788 12.2762 8.54931 12.2091 8.50765L7.40011 5.54349C7.33118 5.50135 7.2525 5.47868 7.17215 5.47781C7.0918 5.47693 7.01267 5.49788 6.94287 5.53851C6.87307 5.57913 6.81513 5.63797 6.77497 5.70899C6.73481 5.78 6.7139 5.86064 6.71436 5.94262V11.8701C6.7139 11.9521 6.73481 12.0327 6.77497 12.1037C6.81513 12.1747 6.87307 12.2336 6.94287 12.2742C7.01267 12.3148 7.0918 12.3358 7.17215 12.3349C7.2525 12.334 7.33118 12.3114 7.40011 12.2692Z" fill="white"/>
</svg>
