<svg width="100" height="101" viewBox="0 0 100 101" fill="none" xmlns="http://www.w3.org/2000/svg">
<rect opacity="0.2" y="0.90625" width="100" height="100" rx="15" fill="#FA4344"/>
<path d="M30.3143 40.4932L48.4382 44.8884L71.193 42.5489L50.518 38.8854L30.3143 40.4932Z" fill="#F54748"/>
<path opacity="0.3" d="M30.3143 40.4932L48.4382 44.8884L71.193 42.5489L50.518 38.8854L30.3143 40.4932Z" fill="black"/>
<path d="M39.5696 72.7709C39.9076 72.8808 49.5561 72.7709 49.9217 72.5395C50.0599 72.4493 50.1281 71.0302 50.1606 69.3124C50.1606 68.9417 50.172 68.5577 50.1752 68.164C50.198 65.6374 50.1638 62.9567 50.1638 62.9567L43.7098 63.0075L43.8983 68.2132L43.9389 69.3616C43.9389 69.3616 40.2634 71.0695 39.8897 71.3747C39.516 71.6798 39.2316 72.6577 39.5696 72.7709Z" fill="#F7A9A0"/>
<path d="M39.5696 72.7707C39.9076 72.8807 49.5545 72.7707 49.9201 72.5394C50.0599 72.4475 50.1281 71.03 50.159 69.3123C50.1687 68.9415 50.1736 68.5576 50.1752 68.1639C50.1768 67.7701 50.1752 67.3583 50.1752 66.9613H43.8528L43.8983 68.2115L43.9406 69.3599C43.9406 69.3599 40.2634 71.0678 39.8897 71.3729C39.516 71.6781 39.2316 72.6575 39.5696 72.7707Z" fill="#EBEBEB"/>
<path d="M39.542 72.7823C39.8816 72.8939 49.5838 72.7905 49.951 72.551C50.1135 72.4394 50.1866 70.3558 50.2077 68.1558L43.8951 68.205L43.9373 69.3534C43.9373 69.3534 40.2374 71.0711 39.867 71.3779C39.4965 71.6847 39.2008 72.6724 39.542 72.7823Z" fill="#F54748"/>
<path d="M39.6753 72.3909C41.3001 72.3314 47.8647 72.2537 49.4765 72.3215C49.4895 72.3215 49.4895 72.3314 49.4765 72.333C47.8663 72.4256 41.3018 72.4504 39.6753 72.4173C39.6411 72.4173 39.6411 72.3909 39.6753 72.3909Z" fill="#D3D3D3"/>
<path d="M43.7017 68.9974C44.3403 68.871 45.1251 68.9613 45.6174 69.4157C45.6369 69.4338 45.6174 69.4617 45.5914 69.4551C44.9777 69.2621 44.3453 69.1361 43.7049 69.0794C43.6942 69.0798 43.6837 69.0759 43.6757 69.0686C43.6678 69.0612 43.6631 69.0509 43.6627 69.04C43.6623 69.0292 43.6661 69.0185 43.6734 69.0105C43.6808 69.0025 43.6909 68.9978 43.7017 68.9974Z" fill="#D3D3D3"/>
<path d="M43.2435 69.2779C43.8821 69.1499 44.6653 69.2402 45.1592 69.6962C45.1787 69.7126 45.1592 69.7405 45.1332 69.734C44.5193 69.5417 43.887 69.4158 43.2467 69.3583C43.2375 69.3568 43.229 69.3521 43.2227 69.345C43.2164 69.338 43.2128 69.3289 43.2124 69.3194C43.2121 69.3099 43.2149 69.3006 43.2206 69.293C43.2263 69.2855 43.2344 69.2801 43.2435 69.2779Z" fill="#D3D3D3"/>
<path d="M42.7917 69.5634C43.4303 69.4354 44.2151 69.5273 44.7074 69.9817C44.7269 69.9998 44.7074 70.026 44.6814 70.0195C44.0663 69.8295 43.4328 69.7069 42.7917 69.6536C42.7798 69.6536 42.7685 69.6489 42.7601 69.6404C42.7517 69.6319 42.747 69.6205 42.747 69.6085C42.747 69.5965 42.7517 69.5851 42.7601 69.5766C42.7685 69.5681 42.7798 69.5634 42.7917 69.5634Z" fill="#D3D3D3"/>
<path d="M42.3254 69.8488C42.964 69.7225 43.7472 69.8127 44.2411 70.2672C44.2606 70.2852 44.2411 70.3131 44.2151 70.3066C43.6014 70.1135 42.969 69.9875 42.3287 69.9308C42.3179 69.9313 42.3074 69.9274 42.2995 69.92C42.2915 69.9126 42.2868 69.9024 42.2864 69.8915C42.286 69.8806 42.2898 69.87 42.2972 69.862C42.3045 69.854 42.3146 69.8493 42.3254 69.8488Z" fill="#D3D3D3"/>
<path d="M42.7999 68.4264C43.2565 68.7775 43.8479 68.9186 44.3776 69.1073C44.3897 69.1106 44.4023 69.1111 44.4146 69.1086C44.4269 69.1061 44.4384 69.1007 44.4482 69.0929C44.458 69.085 44.4658 69.075 44.4711 69.0635C44.4763 69.0521 44.4788 69.0395 44.4784 69.0269C44.481 69.0263 44.4834 69.0252 44.4856 69.0237C44.4878 69.0221 44.4896 69.0201 44.4909 69.0178C44.4923 69.0155 44.4932 69.0129 44.4936 69.0102C44.4939 69.0076 44.4937 69.0049 44.493 69.0023C44.2933 68.43 43.9481 67.9208 43.4921 67.5257C43.2223 67.3026 42.7527 67.15 42.5041 67.5028C42.2555 67.8555 42.5334 68.2213 42.7999 68.4264ZM42.6374 67.908C42.5171 67.2009 43.2743 67.5651 43.4661 67.7439C43.5891 67.8583 43.7042 67.9811 43.8105 68.1114C44.0255 68.3826 44.2267 68.6646 44.4134 68.9563C44.1583 68.8464 43.8967 68.7578 43.6383 68.6578C43.3247 68.5314 42.6991 68.2985 42.6292 67.908H42.6374Z" fill="#D3D3D3"/>
<path d="M46.6183 67.9951C46.4559 67.5948 45.9684 67.6309 45.6532 67.7851C45.1191 68.0588 44.6657 68.4696 44.3386 68.9762C44.3373 68.9785 44.3365 68.9811 44.3362 68.9838C44.336 68.9865 44.3364 68.9892 44.3373 68.9917C44.3383 68.9942 44.3397 68.9965 44.3416 68.9983C44.3436 69.0002 44.3459 69.0016 44.3484 69.0024C44.337 69.05 44.3679 69.1124 44.4248 69.1058C44.9853 69.0451 45.593 69.05 46.1179 68.8171C46.4234 68.6809 46.7695 68.3757 46.6183 67.9951ZM45.2567 68.8335C44.9821 68.8696 44.7059 68.8925 44.4329 68.9385C44.6825 68.6995 44.9439 68.4734 45.2161 68.2609C45.3493 68.1592 45.4893 68.0671 45.6353 67.9853C45.8612 67.8622 46.6833 67.6883 46.4022 68.3478C46.2463 68.717 45.5833 68.7941 45.2567 68.8335Z" fill="#D3D3D3"/>
<path d="M50.3133 64.5682C49.2311 64.5451 49.5431 64.5352 48.461 64.5253C47.9312 64.5253 44.454 64.4889 43.96 64.5732C43.9579 64.574 43.9561 64.5755 43.9548 64.5774C43.9536 64.5794 43.9529 64.5816 43.9529 64.5839C43.9529 64.5862 43.9536 64.5885 43.9548 64.5904C43.9561 64.5923 43.9579 64.5938 43.96 64.5947C44.4475 64.6789 47.9312 64.6475 48.461 64.6426C49.5431 64.631 49.2311 64.6228 50.3133 64.5996C50.3166 64.5985 50.3194 64.5964 50.3214 64.5936C50.3234 64.5908 50.3245 64.5874 50.3245 64.5839C50.3245 64.5804 50.3234 64.577 50.3214 64.5742C50.3194 64.5714 50.3166 64.5693 50.3133 64.5682Z" fill="#D0D0D0"/>
<path d="M56.5057 72.4429C56.847 72.3428 64.778 66.7943 64.9551 66.389C65.0201 66.2364 64.2873 65.024 63.3595 63.5819C63.1596 63.2718 62.9517 62.9519 62.7372 62.6271C61.3528 60.5238 59.8368 58.3237 59.8368 58.3237L54.5201 62.02L57.5684 66.2217L58.2281 67.1437C58.2281 67.1437 56.1336 70.6382 55.9939 71.1025C55.8542 71.5668 56.1645 72.5413 56.5057 72.4429Z" fill="#F7A9A0"/>
<path d="M56.5058 72.4427C56.847 72.3426 64.778 66.7941 64.9551 66.3905C65.0185 66.2363 64.2873 65.0222 63.3595 63.5834C63.1613 63.2717 62.9517 62.9501 62.7372 62.6285C62.5227 62.307 62.2952 61.9592 62.0759 61.6294L56.8356 65.2125L57.5668 66.2215L58.2363 67.1435C58.2363 67.1435 56.1353 70.638 55.9956 71.1023C55.8558 71.5666 56.1645 72.5412 56.5058 72.4427Z" fill="#EBEBEB"/>
<path d="M56.4895 72.469C56.8324 72.3689 64.8073 66.7891 64.9795 66.3823C65.0575 66.1952 63.9542 64.4332 62.7502 62.599L57.5506 66.2084L58.2233 67.137C58.2233 67.137 56.1158 70.6577 55.9761 71.1302C55.8363 71.6027 56.1467 72.5707 56.4895 72.469Z" fill="#F54748"/>
<path d="M56.3823 72.0671C57.6968 71.0991 63.0881 67.3191 64.4595 66.4611C64.4709 66.4611 64.4758 66.4611 64.4595 66.4709C63.1775 67.4553 57.7569 71.1959 56.392 72.09C56.3693 72.1146 56.3546 72.0884 56.3823 72.0671Z" fill="#D3D3D3"/>
<path d="M57.8284 66.9747C58.2866 66.5071 58.9869 66.138 59.6482 66.2348C59.6742 66.2348 59.6677 66.2758 59.6482 66.2823C59.0327 66.4703 58.439 66.7244 57.8771 67.0403C57.8685 67.0468 57.8577 67.0496 57.847 67.0481C57.8363 67.0466 57.8267 67.0408 57.8203 67.0321C57.8138 67.0234 57.811 67.0125 57.8125 67.0017C57.8141 66.9909 57.8198 66.9812 57.8284 66.9747Z" fill="#D3D3D3"/>
<path d="M57.6074 67.47C58.0656 67.0041 58.766 66.6349 59.4273 66.7317C59.4533 66.7317 59.4468 66.7727 59.4273 66.7793C58.8122 66.9663 58.2189 67.2199 57.6578 67.5356C57.6492 67.5424 57.6383 67.5454 57.6274 67.544C57.6166 67.5426 57.6068 67.5369 57.6001 67.5282C57.5934 67.5195 57.5904 67.5085 57.5918 67.4976C57.5932 67.4867 57.5988 67.4767 57.6074 67.47Z" fill="#D3D3D3"/>
<path d="M57.3865 67.9671C57.8447 67.4995 58.545 67.132 59.2063 67.2288C59.2323 67.2288 59.2258 67.2698 59.2063 67.2764C58.5912 67.4634 57.998 67.717 57.4368 68.0327C57.4282 68.0395 57.4173 68.0425 57.4065 68.0411C57.3957 68.0397 57.3858 68.0341 57.3792 68.0254C57.3725 68.0167 57.3695 68.0056 57.3709 67.9947C57.3722 67.9838 57.3779 67.9739 57.3865 67.9671Z" fill="#D3D3D3"/>
<path d="M57.1655 68.4642C57.6237 67.9967 58.3224 67.6275 58.9853 67.726C59.0097 67.726 59.0048 67.7653 58.9853 67.7719C58.3704 67.9602 57.7772 68.2143 57.2158 68.5299C57.2072 68.5366 57.1963 68.5396 57.1855 68.5382C57.1747 68.5369 57.1648 68.5312 57.1582 68.5225C57.1515 68.5138 57.1485 68.5028 57.1499 68.4918C57.1512 68.4809 57.1568 68.471 57.1655 68.4642Z" fill="#D3D3D3"/>
<path d="M56.7657 67.0172C57.3393 67.0484 57.9031 66.8286 58.4507 66.6891C58.4626 66.685 58.4734 66.678 58.4821 66.6689C58.4909 66.6597 58.4973 66.6486 58.501 66.6364C58.5046 66.6242 58.5053 66.6114 58.5031 66.5988C58.5009 66.5863 58.4957 66.5745 58.4881 66.5644C58.4905 66.563 58.4924 66.5609 58.4937 66.5585C58.4951 66.556 58.4958 66.5533 58.4958 66.5505C58.4958 66.5477 58.4951 66.5449 58.4937 66.5425C58.4924 66.5401 58.4905 66.538 58.4881 66.5365C58.0062 66.1764 57.4392 65.9501 56.8437 65.8803C56.496 65.8475 56.0232 65.9886 56.0134 66.42C56.0037 66.8515 56.4407 66.9975 56.7657 67.0172ZM56.3384 66.6891C55.8509 66.1723 56.6764 66.0443 56.9315 66.0788C57.0963 66.1034 57.2591 66.1396 57.4189 66.1871C57.7498 66.29 58.0752 66.4099 58.3939 66.5464C58.1225 66.5989 57.856 66.6743 57.5814 66.7383C57.2613 66.8056 56.6146 66.968 56.3416 66.6825L56.3384 66.6891Z" fill="#D3D3D3"/>
<path d="M59.6906 64.4972C59.3363 64.2561 58.9496 64.5645 58.7741 64.8697C58.4838 65.3987 58.3369 65.9958 58.3484 66.6005C58.3483 66.6032 58.3488 66.6058 58.3499 66.6082C58.351 66.6106 58.3527 66.6127 58.3547 66.6143C58.3568 66.6159 58.3592 66.617 58.3618 66.6174C58.3644 66.6179 58.367 66.6177 58.3695 66.6169C58.3733 66.6289 58.3799 66.6399 58.3887 66.6489C58.3975 66.6579 58.4083 66.6646 58.4202 66.6686C58.432 66.6726 58.4447 66.6737 58.457 66.6719C58.4694 66.67 58.4812 66.6652 58.4914 66.6579C58.922 66.2904 59.4273 65.9508 59.7328 65.4619C59.9099 65.1748 60.0269 64.7318 59.6906 64.4972ZM59.0309 65.9656C58.8229 66.1526 58.6084 66.3265 58.4085 66.5201C58.482 66.181 58.5726 65.8459 58.6799 65.5161C58.7335 65.3564 58.7981 65.2007 58.8732 65.0501C58.9935 64.8204 59.5768 64.2118 59.7101 64.9172C59.7832 65.3061 59.2778 65.7441 59.0309 65.9656Z" fill="#D3D3D3"/>
<path d="M60.2869 59.5064C59.3851 60.1085 59.6369 59.9231 58.7384 60.5351C58.3013 60.8337 55.4204 62.8024 55.0596 63.1601C55.0596 63.1683 55.0596 63.1831 55.0726 63.1781C55.526 62.9632 58.3711 60.9436 58.8099 60.6368C59.6938 60.0085 59.4322 60.1791 60.3096 59.5392C60.3118 59.5377 60.3136 59.5358 60.315 59.5336C60.3164 59.5314 60.3173 59.5289 60.3178 59.5263C60.3182 59.5237 60.3182 59.5211 60.3176 59.5185C60.317 59.5159 60.316 59.5135 60.3145 59.5113C60.313 59.5092 60.3111 59.5074 60.3089 59.5059C60.3067 59.5045 60.3043 59.5036 60.3017 59.5031C60.2991 59.5027 60.2965 59.5027 60.294 59.5033C60.2914 59.5039 60.289 59.5049 60.2869 59.5064Z" fill="#D0D0D0"/>
<path d="M33.0619 70.4707L30.3143 40.4933L48.4382 44.8885V75.9061L33.0619 70.4707Z" fill="#F54748"/>
<path opacity="0.1" d="M33.0619 70.4707L30.3143 40.4933L48.4382 44.8885V75.9061L33.0619 70.4707Z" fill="black"/>
<path d="M38.0422 72.2312L42.4261 73.7799L40.9036 43.0609L35.899 41.8485L38.0422 72.2312Z" fill="#D0D0D0"/>
<path d="M48.4382 44.8886V75.9062L68.1269 72.3444L71.1931 42.5491L48.4382 44.8886Z" fill="#F54748"/>
<path d="M56.2328 74.4951L61.2147 73.5944L63.6114 43.3315L57.4758 43.9599L56.2328 74.4951Z" fill="white"/>
<path d="M29.032 41.2864L48.3432 45.7444L48.2663 38.6042L28.4321 34.8969L29.032 41.2864Z" fill="#F54748"/>
<path opacity="0.2" d="M29.032 41.2864L48.3432 45.7444L48.2663 38.6042L28.4321 34.8969L29.032 41.2864Z" fill="black"/>
<path d="M72.5537 42.9865L73.277 36.3092L48.2664 38.6044L48.3433 45.7447L72.5537 42.9865Z" fill="#F54748"/>
<path opacity="0.1" d="M72.5537 42.9865L73.277 36.3092L48.2664 38.6044L48.3433 45.7447L72.5537 42.9865Z" fill="black"/>
<path d="M35.4286 42.7628L41.1611 44.0869L40.7891 37.2068L34.9274 36.1073L35.4286 42.7628Z" fill="#D0D0D0"/>
<path d="M57.0447 44.7527L64.0558 43.9535L64.6706 37.0993L57.3056 37.7752L57.0447 44.7527Z" fill="white"/>
<path d="M28.4322 34.8971L48.2665 38.6044L73.2771 36.3091L51.0706 33.9103L28.4322 34.8971Z" fill="#F54748"/>
<path d="M34.9274 36.1072L58.2032 34.6822L63.088 35.2092L40.7891 37.2067L34.9274 36.1072Z" fill="white"/>
<path d="M57.3056 37.7753L64.6706 37.0993L43.4687 34.242L37.6078 34.4981L57.3056 37.7753Z" fill="white"/>
<path d="M44.1821 35.0149C44.1821 35.0149 39.8765 35.6985 38.2505 38.4579C36.6245 41.2174 36.6946 43.9589 36.0854 44.8724C35.4761 45.786 32.505 46.9254 32.505 46.9254L37.3507 51.2777C37.3507 51.2777 39.2718 51.1018 40.1161 48.1127C40.9604 45.1236 40.3731 41.757 41.6311 39.5894C42.8891 37.4218 45.443 36.0349 45.443 36.0349L44.1821 35.0149Z" fill="white"/>
<path d="M40.9912 41.3871C39.9966 40.398 39.1827 39.2394 38.5868 37.9647C40.4044 35.6123 44.1844 35.0177 44.1844 35.0177L45.4439 36.0371C45.4439 36.0371 42.8918 37.4195 41.632 39.5916C41.3229 40.1508 41.1064 40.7574 40.9912 41.3871Z" fill="#D0D0D0"/>
<path d="M50.9607 34.4132C50.9607 34.4132 54.9328 33.1068 57.7425 34.6262C60.5521 36.1455 61.9499 38.1642 62.9338 38.6383C63.9176 39.1125 67.0478 38.5281 67.0478 38.5281L65.1206 44.783C65.1206 44.783 63.3836 45.6328 61.1343 43.5116C58.885 41.3903 57.6629 38.2073 55.4804 36.9985C53.2978 35.7897 50.4132 35.9174 50.4132 35.9174L50.9607 34.4132Z" fill="white"/>
<path d="M59.1115 41.0873C57.9404 39.446 56.9213 37.7902 55.4819 36.9991C53.2962 35.7979 50.4132 35.9174 50.4132 35.9174L50.9607 34.4132C50.9607 34.4132 54.9328 33.1068 57.7425 34.6262C58.3026 34.9297 58.8417 35.2712 59.3562 35.6483C59.5175 37.1225 59.5793 39.1519 59.1115 41.0873Z" fill="#D0D0D0"/>
<path d="M59.1115 41.0873C59.3243 41.37 59.5448 41.647 59.7665 41.921C59.9881 42.195 60.2153 42.4642 60.4472 42.7389C60.6792 43.0137 60.9181 43.2629 61.1706 43.509C61.4212 43.7573 61.6886 43.9879 61.9706 44.1992C61.6705 44.0119 61.3886 43.7963 61.1286 43.5553C60.8686 43.3141 60.6208 43.0598 60.3862 42.7933C60.1452 42.5236 59.9298 42.247 59.7152 41.9688C59.5005 41.6906 59.3025 41.3804 59.1115 41.0873Z" fill="#D3D3D3"/>
<path d="M60.5035 36.5548C60.8211 36.7985 61.1247 37.0602 61.4129 37.3388C61.7079 37.6097 61.999 37.8862 62.3129 38.1455C62.4623 38.2764 62.6201 38.3971 62.7854 38.5068C62.9537 38.6095 63.1388 38.681 63.332 38.7179C63.5263 38.7595 63.7235 38.7863 63.9218 38.7979C64.1209 38.8132 64.3206 38.8174 64.52 38.8104C64.1201 38.8554 63.716 38.8451 63.3188 38.7799C63.1166 38.7479 62.9225 38.6768 62.7469 38.5706C62.577 38.4608 62.4146 38.3394 62.2611 38.2073C61.9557 37.9444 61.6625 37.6689 61.368 37.3839L60.9419 36.9693C60.803 36.8236 60.6566 36.6852 60.5035 36.5548Z" fill="#D3D3D3"/>
<path d="M57.9086 34.6885C57.7699 35.6642 53.1215 36.5914 50.1868 35.3465C50.1868 35.3465 52.5444 33.2984 54.8071 33.2886C57.0698 33.2787 57.97 34.2649 57.9086 34.6885Z" fill="#D3D3D3"/>
<path d="M50.1868 35.3465L50.2 35.0146L50.2151 34.6266L50.2196 34.4829C52.1229 31.177 55.3817 29.8598 55.6311 29.8736C55.8805 29.8874 57.1284 31.0121 57.6348 32.1175C58.1412 33.223 57.9398 35.0107 57.9137 34.6889C57.8875 34.3672 57.0168 33.4892 55.2742 33.4877C53.5315 33.4862 50.5973 34.9039 50.1868 35.3465Z" fill="white"/>
<path d="M50.2 35.0147L50.2151 34.6267C50.6262 34.0216 51.1572 33.5091 51.7745 33.1217C51.7906 33.1124 51.8045 33.1343 51.7922 33.1469C51.4928 33.4478 51.201 33.7554 50.9254 34.0752C51.673 33.5498 52.4733 33.1057 53.3132 32.7501C53.3485 32.7329 53.3808 32.7784 53.3409 32.8026C52.1577 33.3621 51.2059 34.2104 50.2 35.0147Z" fill="#D3D3D3"/>
<path d="M55.6777 41.9654C54.6803 42.5477 51.2272 39.3789 50.24 35.7223C50.24 35.7223 53.0623 35.8918 54.7215 38.0021C56.3807 40.1125 56.1102 41.7132 55.6777 41.9654Z" fill="#D3D3D3"/>
<path d="M50.24 35.7222L50.279 34.5823C54.7016 33.9477 58.2872 36.0406 58.4568 36.2786C58.6264 36.5166 58.5043 38.5098 57.8588 39.7901C57.2133 41.0703 55.425 42.1864 55.6998 41.9285C55.9746 41.6706 56.148 40.2121 54.8784 38.5793C53.6089 36.9465 50.945 35.783 50.24 35.7222Z" fill="white"/>
<path d="M50.2546 35.3056L50.2634 35.0358C51.6453 35.0976 53.0371 35.5934 54.2281 36.2484C54.2656 36.2641 54.2361 36.3317 54.2007 36.3151C53.506 35.9998 52.7829 35.7524 52.0415 35.5761C51.4527 35.4448 50.8557 35.3544 50.2546 35.3056Z" fill="#D3D3D3"/>
<path d="M57.1952 40.7163C57.3362 40.5143 57.4793 40.3202 57.6154 40.1215C57.7532 39.9231 57.8791 39.7167 57.9925 39.5032C57.9639 39.6233 57.922 39.7398 57.8675 39.8505C57.8115 39.9604 57.7475 40.066 57.6761 40.1664C57.5401 40.37 57.3784 40.5548 57.1952 40.7163Z" fill="#D3D3D3"/>
<path d="M40.7824 34.0886C40.8548 35.0727 45.4309 36.33 48.4408 35.285C48.4408 35.285 46.2299 33.0786 43.9737 32.91C41.7175 32.7413 40.7512 33.6635 40.7824 34.0886Z" fill="#D3D3D3"/>
<path d="M41.2372 31.5421C41.8182 30.4746 43.1444 29.4386 43.3903 29.4438C43.6362 29.4491 46.8001 30.9925 48.4678 34.4225L48.4621 34.612L48.4491 35.0719L48.4422 35.2857C48.0648 34.8168 45.2393 33.1949 43.4999 33.074C41.7606 32.9531 40.833 33.7724 40.7838 34.0892C40.7346 34.4061 40.6548 32.609 41.2372 31.5421Z" fill="white"/>
<path d="M45.379 31.9212C46.1772 32.3606 46.9067 32.9168 47.5436 33.5719C47.8692 33.8999 48.1754 34.2469 48.4606 34.6113L48.4476 35.0712C48.1395 34.6167 47.7975 34.1867 47.4245 33.7848C46.7832 33.1263 46.0767 32.5358 45.3161 32.0228C45.3055 32.0133 45.2985 32.0002 45.2964 31.986C45.2944 31.9718 45.2974 31.9573 45.3049 31.9451C45.3125 31.9329 45.3241 31.9238 45.3376 31.9195C45.3512 31.9151 45.3658 31.9157 45.379 31.9212Z" fill="#D3D3D3"/>
<path d="M42.4968 41.4988C43.4603 42.1509 47.1215 39.2331 48.364 35.6559C48.364 35.6559 45.5362 35.628 43.733 37.6241C41.9298 39.6202 42.083 41.2172 42.4968 41.4988Z" fill="#D3D3D3"/>
<path d="M40.1271 35.6365C40.3116 35.41 44.0334 33.578 48.4014 34.5155L48.3639 35.656C47.6558 35.6668 44.9187 36.6431 43.541 38.1815C42.1632 39.7199 42.236 41.1873 42.4889 41.4708C42.7418 41.7543 41.0374 40.5078 40.4803 39.1875C39.9232 37.8672 39.9432 35.8615 40.1271 35.6365Z" fill="white"/>
<path d="M43.9132 36.6287C44.4856 35.9803 45.2175 35.6332 46.0381 35.3871C46.6298 35.2097 47.2366 35.0886 47.8507 35.0254C47.471 34.9931 47.0899 34.9817 46.709 34.9914C46.0268 35.0409 45.352 35.1658 44.6967 35.3636C44.6501 35.3743 44.6347 35.3092 44.6717 35.2874C45.6914 34.6807 47.189 34.6879 48.3823 34.8875L48.3693 35.2532C47.7021 35.2978 47.0391 35.3918 46.3856 35.5344C45.5614 35.7381 44.5741 36.0476 43.957 36.6719C43.935 36.6999 43.8875 36.657 43.9132 36.6287Z" fill="#D3D3D3"/>
<path d="M47.8371 34.6646C47.8515 34.4326 47.9539 33.5839 48.2768 33.4615C48.5997 33.3392 49.1461 33.5592 49.2906 33.5628C49.4366 33.5671 49.998 33.3866 50.3097 33.5314C50.6214 33.6761 50.6666 34.5298 50.6661 34.7622C50.6656 34.9947 50.6129 35.898 50.3142 35.9914C50.0155 36.0848 49.3294 35.8667 49.2096 35.8627C49.0899 35.8588 48.3937 36.029 48.0994 35.9147C47.8051 35.8003 47.8228 34.8966 47.8371 34.6646Z" fill="white"/>
</svg>
