<svg width="100" height="101" viewBox="0 0 100 101" fill="none" xmlns="http://www.w3.org/2000/svg">
<rect opacity="0.2" y="0.90625" width="100" height="100" rx="15" fill="#FF7802"/>
<path fill-rule="evenodd" clip-rule="evenodd" d="M46.7346 49.1496C47.7632 49.5521 48.2708 50.7123 47.8682 51.7409L37.7881 77.5014C37.3855 78.53 36.2254 79.0376 35.1968 78.6351C34.1681 78.2326 33.6606 77.0724 34.0631 76.0438L44.1433 50.2833C44.5458 49.2547 45.7059 48.7471 46.7346 49.1496Z" fill="#FF7802"/>
<path fill-rule="evenodd" clip-rule="evenodd" d="M53.2654 49.1496C52.2368 49.5521 51.7292 50.7123 52.1317 51.7409L62.2119 77.5014C62.6144 78.53 63.7745 79.0376 64.8032 78.6351C65.8318 78.2326 66.3394 77.0724 65.9369 76.0438L55.8567 50.2833C55.4542 49.2547 54.294 48.7471 53.2654 49.1496Z" fill="#FF7802"/>
<path fill-rule="evenodd" clip-rule="evenodd" d="M38 69.9062C38 68.8017 38.8954 67.9062 40 67.9062H60C61.1046 67.9062 62 68.8017 62 69.9062C62 71.0108 61.1046 71.9062 60 71.9062H40C38.8954 71.9062 38 71.0108 38 69.9062Z" fill="#FF7802"/>
<path d="M25 30.9063C25 27.5925 27.6863 24.9062 31 24.9062H69C72.3137 24.9062 75 27.5925 75 30.9062V54.9062C75 58.22 72.3137 60.9062 69 60.9062H31C27.6863 60.9062 25 58.22 25 54.9062V30.9063Z" fill="#FFAA60"/>
<path fill-rule="evenodd" clip-rule="evenodd" d="M69 27.9062H31C29.3431 27.9062 28 29.2494 28 30.9063V54.9062C28 56.5631 29.3431 57.9062 31 57.9062H69C70.6569 57.9062 72 56.5631 72 54.9062V30.9062C72 29.2494 70.6569 27.9062 69 27.9062ZM31 24.9062C27.6863 24.9062 25 27.5925 25 30.9063V54.9062C25 58.22 27.6863 60.9062 31 60.9062H69C72.3137 60.9062 75 58.22 75 54.9062V30.9062C75 27.5925 72.3137 24.9062 69 24.9062H31Z" fill="#FF7802"/>
</svg>
