<svg width="100" height="101" viewBox="0 0 100 101" fill="none" xmlns="http://www.w3.org/2000/svg">
<rect opacity="0.2" y="0.90625" width="100" height="100" rx="15" fill="#739EFF"/>
<path d="M52.8914 33.3899L65.9551 26.6415L69.7965 34.0776L56.7328 40.8261L52.8914 33.3899Z" fill="#407BFF"/>
<path d="M40.7619 40.0246L53.8256 33.2761L57.3486 40.0959L44.2849 46.8444L40.7619 40.0246Z" fill="#407BFF"/>
<path d="M55.809 40.9891L56.6903 40.7815L52.9006 33.4438L52.2212 34.0409L55.809 40.9891Z" fill="#263238"/>
<path opacity="0.2" d="M55.809 40.9891L56.6903 40.7815L52.9006 33.4438L52.2212 34.0409L55.809 40.9891Z" fill="black"/>
<path d="M52.8797 33.3951L53.6728 32.9854L57.5142 40.4214L56.721 40.8311L52.8797 33.3951Z" fill="#263238"/>
<path d="M41.3639 46.7462L43.4222 47.1982L39.968 40.5059L39.1435 42.4476L41.3639 46.7462Z" fill="#263238"/>
<path d="M33.662 45.751L36.0441 44.521L37.7202 47.767L35.3381 48.997L33.662 45.751Z" fill="#263238"/>
<path opacity="0.2" d="M33.662 45.751L36.0441 44.521L37.7202 47.767L35.3381 48.997L33.662 45.751Z" fill="black"/>
<path d="M35.1307 44.3372L40.1622 41.738L42.4326 46.133L37.4011 48.7322L35.1307 44.3372Z" fill="#263238"/>
<path opacity="0.2" d="M41.3639 46.7462L43.4222 47.1982L39.968 40.5059L39.1435 42.4476L41.3639 46.7462Z" fill="black"/>
<path d="M39.9679 40.4346L40.761 40.0249L44.284 46.8447L43.4909 47.2544L39.9679 40.4346Z" fill="#263238"/>
<path d="M65.5504 26.8445L66.3436 26.4349L70.1836 33.8717L69.3904 34.2813L65.5504 26.8445Z" fill="#263238"/>
<path d="M38.518 48.6933C38.642 48.933 38.8343 49.1305 39.0706 49.261C39.3068 49.3914 39.5764 49.4488 39.8453 49.426C40.1142 49.4032 40.3703 49.3012 40.5813 49.1329C40.7922 48.9645 40.9485 48.7374 41.0303 48.4803C41.1122 48.2231 41.116 47.9475 41.0412 47.6882C40.9665 47.4289 40.8165 47.1976 40.6103 47.0235C40.4041 46.8494 40.1509 46.7404 39.8827 46.7102C39.6145 46.68 39.3434 46.73 39.1037 46.8539C38.9444 46.9362 38.8029 47.0491 38.6873 47.186C38.5716 47.323 38.4841 47.4815 38.4297 47.6523C38.3754 47.8231 38.3552 48.003 38.3703 48.1816C38.3854 48.3602 38.4356 48.5341 38.518 48.6933Z" fill="#263238"/>
<path d="M38.518 48.6933C38.642 48.933 38.8343 49.1305 39.0706 49.261C39.3068 49.3914 39.5764 49.4488 39.8453 49.426C40.1142 49.4032 40.3703 49.3012 40.5813 49.1329C40.7922 48.9645 40.9485 48.7374 41.0303 48.4803C41.1122 48.2231 41.116 47.9475 41.0412 47.6882C40.9665 47.4289 40.8165 47.1976 40.6103 47.0235C40.4041 46.8494 40.1509 46.7404 39.8827 46.7102C39.6145 46.68 39.3434 46.73 39.1037 46.8539C38.9444 46.9362 38.8029 47.0491 38.6873 47.186C38.5716 47.323 38.4841 47.4815 38.4297 47.6523C38.3754 47.8231 38.3552 48.003 38.3703 48.1816C38.3854 48.3602 38.4356 48.5341 38.518 48.6933Z" fill="#407BFF"/>
<path d="M28.1149 43.0705L30.517 41.8296L32.8526 46.3509L30.4505 47.5917L28.1149 43.0705Z" fill="#263238"/>
<path opacity="0.2" d="M28.1149 43.0705L30.517 41.8296L32.8526 46.3509L30.4505 47.5917L28.1149 43.0705Z" fill="black"/>
<path d="M33.395 45.2251L35.6666 49.6203L34.5862 50.1775L29.7873 48.4661L29.2045 47.3886L33.395 45.2251Z" fill="#263238"/>
<path d="M28.181 43.5107L30.8278 42.1433V40.9578L27.2115 42.8256L28.181 43.5107Z" fill="#407BFF"/>
<path d="M66.005 25.7596L68.2581 24.5957L72.7466 33.2846L70.4935 34.4485L66.005 25.7596Z" fill="#407BFF"/>
<g opacity="0.4">
<path opacity="0.4" d="M64.3151 28.2214L65.2846 27.7239L65.711 28.5512L64.7273 29.0544C64.5724 28.7857 64.4347 28.5075 64.3151 28.2214Z" fill="white"/>
<path opacity="0.4" d="M63.7294 28.5454C63.8508 28.8317 63.9884 29.1107 64.1417 29.3812L54.8054 34.1432L54.3761 33.3187L63.7294 28.5454Z" fill="white"/>
</g>
<g opacity="0.4">
<path opacity="0.4" d="M41.3354 40.4374L41.7647 41.2619L52.5765 35.6442L52.15 34.8169L41.3354 40.4374Z" fill="white"/>
</g>
<g opacity="0.4">
<path opacity="0.4" d="M66.3421 25.9384L66.7714 26.7628L68.5312 25.8417L68.1047 25.0144L66.3421 25.9384Z" fill="white"/>
</g>
<path d="M43.4834 35.5976L45.9388 34.3297L46.4097 35.2416L43.9543 36.5095L43.4834 35.5976Z" fill="#263238"/>
<path d="M37.9566 34.5954L49.4467 28.6599L50.4984 30.6957L39.0083 36.6313L37.9566 34.5954Z" fill="#407BFF"/>
<g opacity="0.4">
<path opacity="0.4" d="M48.4769 29.3982L49.2474 29.0031L49.4435 29.4039L48.6447 29.8133C48.5657 29.6854 48.509 29.5451 48.4769 29.3982Z" fill="white"/>
<path opacity="0.4" d="M48.0903 29.6086C48.1308 29.7527 48.1891 29.8912 48.2637 30.0209L38.5379 34.9961L38.3645 34.5867L48.0903 29.6086Z" fill="white"/>
</g>
<path d="M43.9341 31.2547L44.611 30.905L47.5181 36.5326L46.8412 36.8823L43.9341 31.2547Z" fill="#263238"/>
<path opacity="0.2" d="M43.9341 31.2547L44.611 30.905L47.5181 36.5326L46.8412 36.8823L43.9341 31.2547Z" fill="black"/>
<path d="M50.8991 30.2141L50.4897 30.6918L49.4407 28.6562L50.0661 28.6022L50.8991 30.2141Z" fill="#263238"/>
<path d="M36.6839 34.9994L40.2782 33.1427L41.5478 35.6003L37.9535 37.4571L36.6839 34.9994Z" fill="#263238"/>
<path opacity="0.3" d="M49.9013 29.8502C50.0226 30.1355 50.1602 30.4137 50.3135 30.6832L39.1349 36.5539L38.7057 35.7295L49.9013 29.8502Z" fill="black"/>
<path opacity="0.3" d="M71.9825 32.3038C72.1039 32.5892 72.2415 32.8673 72.3948 33.1368L70.5781 34.1006L70.1488 33.2761L71.9825 32.3038Z" fill="black"/>
<path opacity="0.3" d="M68.3265 33.3102C68.4479 33.5964 68.5855 33.8755 68.7388 34.146L57.5602 40.0139L57.1309 39.1894L68.3265 33.3102Z" fill="black"/>
<path opacity="0.3" d="M54.6092 40.156C54.7305 40.4423 54.8682 40.7213 55.0214 40.9918L44.5679 46.4361L44.1386 45.6117L54.6092 40.156Z" fill="black"/>
<path d="M46.5691 45.1276L52.717 41.9517L53.8313 44.1087L47.6834 47.2847L46.5691 45.1276Z" fill="#2148A2"/>
<path d="M49.8217 48.5911H52.5907V51.3601H49.8217V48.5911Z" fill="#263238"/>
<path opacity="0.2" d="M49.8217 48.5911H52.5907V51.3601H49.8217V48.5911Z" fill="#2148A2"/>
<path d="M49.8217 44.1875H51.2034V49.2565H49.8217V44.1875Z" fill="#2148A2"/>
<path d="M49.8217 47.9316H55.3597V49.2565H49.8217V47.9316Z" fill="#2148A2"/>
<path d="M48.44 50.8994H55.3597V52.8753H48.44V50.8994Z" fill="#2148A2"/>
<path d="M51.4014 76.9064H52.3029L52.8459 52.7412H50.8558L51.4014 76.9064Z" fill="#2148A2"/>
<path d="M62.3841 76.3377L63.3648 76.2297L56.1458 52.4568L53.983 52.6944L62.3841 76.3377Z" fill="#2148A2"/>
<path d="M60.5935 72.7935L62.7435 72.552L63.1552 73.8131L61.0052 74.0546L60.5935 72.7935Z" fill="#2148A2"/>
<path d="M61.4163 74.0919L63.5616 73.8479L63.9776 75.1063L61.8323 75.3502L61.4163 74.0919Z" fill="#2148A2"/>
<path d="M61.9433 75.6352L63.3476 75.4846L63.6491 76.9061H62.5603L61.9433 75.6352Z" fill="#2148A2"/>
<path d="M41.5718 76.3377L40.6211 76.2297L47.6219 52.4568L49.7186 52.6944L41.5718 76.3377Z" fill="#2148A2"/>
<path d="M42.8415 74.052L40.6915 73.8105L41.1032 72.5494L43.2532 72.7909L42.8415 74.052Z" fill="#2148A2"/>
<path d="M42.3953 75.4179L40.2452 75.1764L40.6569 73.9153L42.807 74.1568L42.3953 75.4179Z" fill="#2148A2"/>
<path d="M42.0426 75.6352L40.6388 75.4846L40.3368 76.9061H41.4274L42.0426 75.6352Z" fill="#2148A2"/>
<path d="M51.9489 71.6609L61.5947 72.0983L61.5069 72.765L51.861 72.3277L51.9489 71.6609Z" fill="#2148A2"/>
<path d="M51.8574 72.3283L42.2116 72.7656L42.1238 72.0989L51.7696 71.6615L51.8574 72.3283Z" fill="#2148A2"/>
<path d="M48.73 12.9863L50.81 14.1162L48.73 15.2562L47.6 17.3262L46.46 15.2562L44.39 14.1162L46.46 12.9863L47.6 10.9062L48.73 12.9863Z" fill="#5478BD"/>
<g opacity="0.8">
<path opacity="0.8" d="M15.34 32.1361L17.42 33.2662L15.34 34.4062L14.21 36.4762L13.07 34.4062L11 33.2662L13.07 32.1361L14.21 30.0562L15.34 32.1361Z" fill="#455B85"/>
</g>
<g opacity="0.5">
<path opacity="0.8" d="M89.85 48.4562L91.92 49.5962L89.85 50.7262L88.71 52.8062L87.58 50.7262L85.5 49.5962L87.58 48.4562L88.71 46.3862L89.85 48.4562Z" fill="#8BB3FF"/>
</g>
</svg>
